<svg width="286" height="330" viewBox="0 0 286 330" fill="none" xmlns="http://www.w3.org/2000/svg">
<path d="M257.899 263C257.199 263 256.499 262.6 256.199 262C255.599 261 255.999 259.8 256.899 259.3L281.399 245.1L281.599 150.8C281.599 149.7 282.499 148.8 283.599 148.8C284.699 148.8 285.599 149.7 285.599 150.8L285.399 246.3C285.399 247 284.999 247.7 284.399 248L258.899 262.8C258.499 262.9 258.199 263 257.899 263Z" fill="white"/>
<path d="M192.9 299.7C192.6 299.7 192.2 299.5 192 299.2C191.7 298.7 191.9 298.1 192.4 297.8L199.3 293.8C199.8 293.5 200.4 293.7 200.7 294.2C201 294.7 200.8 295.3 200.3 295.6L193.4 299.6C193.3 299.6 193.1 299.7 192.9 299.7ZM206.7 291.7C206.4 291.7 206 291.5 205.8 291.2C205.5 290.7 205.7 290.1 206.2 289.8L213.1 285.8C213.6 285.5 214.2 285.7 214.5 286.2C214.8 286.7 214.6 287.3 214.1 287.6L207.2 291.6C207.1 291.6 206.9 291.7 206.7 291.7ZM220.6 283.6C220.3 283.6 219.9 283.4 219.7 283.1C219.4 282.6 219.6 282 220.1 281.7L227 277.7C227.5 277.4 228.1 277.6 228.4 278.1C228.7 278.6 228.5 279.2 228 279.5L221.1 283.5C220.9 283.6 220.8 283.6 220.6 283.6ZM234.4 275.6C234.1 275.6 233.7 275.4 233.5 275.1C233.2 274.6 233.4 274 233.9 273.7L240.8 269.7C241.3 269.4 241.9 269.6 242.2 270.1C242.5 270.6 242.3 271.2 241.8 271.5L234.9 275.5C234.8 275.5 234.6 275.6 234.4 275.6Z" fill="white"/>
<path d="M142.4 330C142.1 330 141.7 329.9 141.4 329.7L47.4004 275.4C46.4004 274.8 46.1004 273.6 46.7004 272.7C47.3004 271.7 48.5004 271.4 49.4004 272L142.4 325.7L180 303.9C181 303.3 182.2 303.7 182.7 304.6C183.3 305.6 182.9 306.8 182 307.3L143.4 329.7C143.1 329.9 142.7 330 142.4 330Z" fill="white"/>
<path d="M1.90039 194.6C1.30039 194.6 0.900391 194.1 0.900391 193.6V185.6C0.900391 185 1.30039 184.6 1.90039 184.6C2.50039 184.6 2.90039 185.1 2.90039 185.6V193.6C2.90039 194.1 2.40039 194.6 1.90039 194.6ZM1.90039 178.6C1.30039 178.6 0.900391 178.1 0.900391 177.6V169.6C0.900391 169 1.30039 168.6 1.90039 168.6C2.50039 168.6 2.90039 169.1 2.90039 169.6V177.6C2.90039 178.1 2.50039 178.6 1.90039 178.6ZM1.90039 162.6C1.30039 162.6 0.900391 162.1 0.900391 161.6V153.6C0.900391 153 1.30039 152.6 1.90039 152.6C2.50039 152.6 2.90039 153.1 2.90039 153.6V161.6C2.90039 162.1 2.50039 162.6 1.90039 162.6Z" fill="white"/>
<path d="M2 137C0.9 137 0 136.1 0 135L0.1 83.8001C0.1 83.1001 0.5 82.4001 1.1 82.1001L25.5 68.0001C26.5 67.4001 27.7 67.8001 28.2 68.7001C28.8 69.7001 28.4 70.9001 27.5 71.4001L4.1 85.0001L4 135C4 136.1 3.1 137 2 137Z" fill="white"/>
<path d="M41.4999 61.9995C41.1999 61.9995 40.7999 61.7995 40.5999 61.4995C40.2999 60.9995 40.4999 60.3995 40.9999 60.0995L45.7999 57.2995C46.2999 56.9995 46.8999 57.1995 47.1999 57.6995C47.4999 58.1995 47.2999 58.7995 46.7999 59.0995L41.9999 61.8995C41.7999 61.8995 41.5999 61.9995 41.4999 61.9995ZM53.1999 55.1995C52.8999 55.1995 52.4999 54.9995 52.2999 54.6995C51.9999 54.1995 52.1999 53.5995 52.6999 53.2995L59.5999 49.2995C60.0999 48.9995 60.6999 49.1995 60.9999 49.6995C61.2999 50.1995 61.0999 50.7995 60.5999 51.0995L53.6999 55.0995C53.4999 55.0995 53.3999 55.1995 53.1999 55.1995ZM66.9999 47.0995C66.6999 47.0995 66.2999 46.8995 66.0999 46.5995C65.7999 46.0995 65.9999 45.4995 66.4999 45.1995L73.3999 41.1995C73.8999 40.8995 74.4999 41.0995 74.7999 41.5995C75.0999 42.0995 74.8999 42.6995 74.3999 42.9995L67.4999 46.9995C67.3999 47.0995 67.1999 47.0995 66.9999 47.0995ZM80.8999 39.0995C80.5999 39.0995 80.1999 38.8995 79.9999 38.5995C79.6999 38.0995 79.8999 37.4995 80.3999 37.1995L87.2999 33.1995C87.7999 32.8995 88.3999 33.0995 88.6999 33.5995C88.9999 34.0995 88.7999 34.6995 88.2999 34.9995L81.3999 38.9995C81.1999 39.0995 80.9999 39.0995 80.8999 39.0995ZM94.6999 31.0995C94.3999 31.0995 93.9999 30.8995 93.7999 30.5995C93.4999 30.0995 93.6999 29.4995 94.1999 29.1995L101.1 25.1995C101.6 24.8995 102.2 25.0995 102.5 25.5995C102.8 26.0995 102.6 26.6995 102.1 26.9995L95.1999 30.9995C95.0999 30.9995 94.8999 31.0995 94.6999 31.0995Z" fill="white"/>
<path d="M215.8 46C215.5 46 215.1 45.9 214.8 45.7L143.1 4.3L113.2 21.6C112.2 22.2 111 21.8 110.5 20.9C109.9 19.9 110.3 18.7 111.2 18.2L142.1 0.3C142.7 -0.1 143.5 -0.1 144.1 0.3L216.8 42.3C217.8 42.9 218.1 44.1 217.5 45C217.2 45.6 216.5 46 215.8 46Z" fill="white"/>
</svg>
