<svg width="242" height="71" viewBox="0 0 242 71" fill="none" xmlns="http://www.w3.org/2000/svg">
<path d="M9.3324 29.3125V52.299H18.3522V56.6207H3.82031V29.3125H9.3324Z" fill="white"/>
<path d="M40.2758 56.6207H34.7637V53.8648C33.3857 55.6812 31.0055 56.8712 28.3121 56.8712C23.2384 56.8712 19.6055 53.6143 19.6055 47.6641V34.9495H25.0549V46.8499C25.0549 50.3573 26.9967 52.2363 29.878 52.2363C32.822 52.2363 34.7011 50.3573 34.7011 46.8499V34.9495H40.2132V56.6207H40.2758Z" fill="white"/>
<path d="M53.0528 34.5737C58.4396 34.5737 62.0726 37.3922 63.2627 42.215H57.3748C56.7484 40.3986 55.3077 39.2086 53.0528 39.2086C49.9836 39.2086 47.9792 41.526 47.9792 45.7225C47.9792 49.9189 49.9836 52.2363 53.0528 52.2363C55.3077 52.2363 56.7484 51.2342 57.3748 49.2926H63.2627C62.0726 53.9274 58.4396 56.9338 53.0528 56.9338C46.789 56.9338 42.3418 52.5495 42.3418 45.7225C42.3418 38.8954 46.789 34.5737 53.0528 34.5737Z" fill="white"/>
<path d="M73.7873 34.5737C77.295 34.5737 79.6752 36.2022 80.928 38.0185V34.9495H86.4401V56.6207H80.928V53.4264C79.6126 55.3054 77.1697 56.9338 73.7247 56.9338C68.2752 56.9338 63.8906 52.4242 63.8906 45.6598C63.8906 38.8954 68.2752 34.5737 73.7873 34.5737ZM75.228 39.3965C72.284 39.3965 69.528 41.5886 69.528 45.7225C69.528 49.8563 72.284 52.1737 75.228 52.1737C78.2346 52.1737 80.9906 49.9189 80.9906 45.7851C80.9906 41.6513 78.2346 39.3965 75.228 39.3965Z" fill="white"/>
<path d="M98.2161 56.9338C92.7666 56.9338 89.0084 53.7395 88.7578 49.731H94.2699C94.4578 51.3595 95.9611 52.6121 98.1534 52.6121C100.283 52.6121 101.473 51.61 101.473 50.3573C101.473 46.474 89.2589 48.9794 89.2589 41.0249C89.2589 37.4548 92.4534 34.511 97.8402 34.511C103.102 34.511 106.234 37.3922 106.547 41.6513H101.285C101.16 39.9602 99.782 38.8328 97.6523 38.8328C95.6479 38.8328 94.5831 39.647 94.5831 40.8997C94.5831 44.8456 106.609 42.4029 106.735 50.2947C106.735 54.1153 103.478 56.9338 98.2161 56.9338Z" fill="white"/>
<path d="M141.935 37.5175H135.609C134.356 35.2 132.101 34.01 129.22 34.01C124.334 34.01 120.952 37.5175 120.952 42.9039C120.952 48.4783 124.397 51.9232 129.471 51.9232C133.667 51.9232 136.423 49.4805 137.238 45.5972H127.842V41.4007H142.624V46.1609C141.56 51.7353 136.549 56.8086 129.283 56.8086C121.328 56.8086 115.314 51.0463 115.314 42.9039C115.314 34.699 121.328 28.9367 129.22 28.9367C135.296 28.9367 140.182 32.0057 141.935 37.5175Z" fill="white"/>
<path d="M150.203 56.6207H144.691V34.9495H150.141V38.3317C151.519 36.0769 153.774 34.6363 156.78 34.6363V40.3986H155.34C152.083 40.3986 150.141 41.6513 150.141 45.8477V56.6207H150.203Z" fill="white"/>
<path d="M168.18 56.9338C161.917 56.9338 157.219 52.5495 157.219 45.7224C157.219 38.8954 162.104 34.511 168.368 34.511C174.632 34.511 179.518 38.8328 179.518 45.7224C179.455 52.5495 174.444 56.9338 168.18 56.9338ZM168.18 52.1737C171.062 52.1737 173.88 50.0441 173.88 45.7851C173.88 41.4634 171.187 39.3965 168.306 39.3965C165.424 39.3965 162.793 41.4634 162.793 45.7851C162.731 50.0441 165.236 52.1737 168.18 52.1737Z" fill="white"/>
<path d="M202.004 56.6207H196.492V53.8648C195.114 55.6812 192.734 56.8712 190.041 56.8712C184.967 56.8712 181.334 53.6143 181.334 47.6641V34.9495H186.783V46.8499C186.783 50.3573 188.725 52.2363 191.607 52.2363C194.55 52.2363 196.43 50.3573 196.43 46.8499V34.9495H201.942V56.6207H202.004Z" fill="white"/>
<path d="M218.102 34.5737C223.677 34.5737 227.999 38.8954 227.999 45.6598C227.999 52.4242 223.677 56.9339 218.102 56.9339C214.72 56.9339 212.277 55.2428 210.961 53.489V66.8926H205.449V34.9495H210.899V38.0812C212.214 36.2022 214.72 34.5737 218.102 34.5737ZM216.661 39.3965C213.717 39.3965 210.961 41.6513 210.961 45.7851C210.961 49.9189 213.717 52.1737 216.661 52.1737C219.605 52.1737 222.424 49.8563 222.424 45.7225C222.424 41.5886 219.605 39.3965 216.661 39.3965Z" fill="white"/>
<path d="M0 0H13.467V2.56797H8.33077V19.2911H5.1989V2.63061H0V0Z" fill="white"/>
<path d="M28.8764 10.8982H19.794V19.3537H16.6621V0H19.794V8.26762H28.8764V0H32.0083V19.2911H28.8764V10.8982Z" fill="white"/>
<path d="M46.8534 2.56797H39.3369V8.20499H45.9765V10.773H39.3369V16.6605H46.8534V19.2285H36.2051V0H46.8534V2.56797Z" fill="white"/>
<path d="M111.494 18.9153V2.00427L104.354 26.0555L111.494 43.3424V18.9153Z" fill="#0071BC"/>
<path d="M88.6945 12.3388L80.1758 24.6776H81.3033H101.034L88.6945 12.3388Z" fill="#009EFF"/>
<path d="M88.6947 12.4014L61.3848 24.7402H80.176L88.6947 12.4014Z" fill="#0071BC"/>
<path d="M110.806 2.19217L88.6953 12.4014L106.923 11.4619L110.806 2.19217Z" fill="#00CFFF"/>
<path d="M101.473 24.6776L106.923 11.4619L88.6953 12.3388L101.035 24.6776H101.473Z" fill="#0071BC"/>
</svg>
