<svg width="196" height="102" viewBox="0 0 196 102" fill="none" xmlns="http://www.w3.org/2000/svg">
<path d="M41.8164 94.3898C42.2626 94.3154 42.8327 94.2411 43.5763 94.2411C44.4686 94.2411 45.1379 94.4394 45.5593 94.836C45.9311 95.183 46.179 95.6787 46.179 96.3232C46.179 96.9677 45.9807 97.4634 45.6336 97.8352C45.1379 98.3557 44.3695 98.6036 43.4771 98.6036C43.2045 98.6036 42.9566 98.6036 42.7335 98.5292V101.355H41.8164V94.3898V94.3898ZM42.7335 97.7856C42.9318 97.8352 43.1797 97.86 43.4771 97.86C44.5678 97.86 45.2618 97.3147 45.2618 96.348C45.2618 95.4061 44.5926 94.9599 43.6011 94.9599C43.2045 94.9599 42.907 94.9847 42.7335 95.0342V97.7856Z" fill="#DADADA"/>
<path d="M52.5245 94.2906V97.2403H55.9452V94.2906H56.8623V101.355H55.9452V98.0335H52.5245V101.355H51.6074V94.2906H52.5245Z" fill="#DADADA"/>
<path d="M68.6863 97.7608C68.6863 100.19 67.199 101.479 65.3896 101.479C63.5057 101.479 62.2168 100.016 62.2168 97.8848C62.2168 95.6291 63.6049 94.1667 65.4887 94.1667C67.4469 94.1667 68.6863 95.6539 68.6863 97.7608ZM63.1835 97.86C63.1835 99.372 64.0015 100.735 65.4391 100.735C66.8768 100.735 67.6948 99.3968 67.6948 97.7856C67.6948 96.3727 66.9512 94.9103 65.4391 94.9103C63.9271 94.9103 63.1835 96.3232 63.1835 97.86Z" fill="#DADADA"/>
<path d="M75.1545 95.0838H72.998V94.3154H78.2282V95.0838H76.0717V101.38H75.1545V95.0838Z" fill="#DADADA"/>
<path d="M88.987 97.7608C88.987 100.19 87.4998 101.479 85.6903 101.479C83.8065 101.479 82.5176 100.016 82.5176 97.8848C82.5176 95.6291 83.9057 94.1667 85.7895 94.1667C87.7477 94.1667 88.987 95.6539 88.987 97.7608ZM83.4843 97.86C83.4843 99.372 84.3023 100.735 85.7399 100.735C87.1776 100.735 87.9956 99.3968 87.9956 97.7856C87.9956 96.3727 87.2519 94.9103 85.7399 94.9103C84.2279 94.9103 83.4843 96.3232 83.4843 97.86Z" fill="#DADADA"/>
<path d="M99.7684 101.058C99.347 101.206 98.529 101.454 97.5871 101.454C96.5212 101.454 95.6289 101.181 94.9348 100.512C94.3152 99.9173 93.9434 98.9754 93.9434 97.8848C93.9434 95.7779 95.4058 94.2411 97.7854 94.2411C98.6034 94.2411 99.2478 94.4146 99.5701 94.5633L99.347 95.3069C98.9752 95.1334 98.5042 95.0095 97.7854 95.0095C96.0751 95.0095 94.9348 96.0753 94.9348 97.86C94.9348 99.6447 96.0007 100.711 97.6614 100.711C98.2563 100.711 98.6777 100.636 98.876 100.512V98.4053H97.4384V97.6617H99.7684V101.058V101.058Z" fill="#DADADA"/>
<path d="M105.345 94.3898C105.816 94.3154 106.485 94.2411 107.105 94.2411C108.072 94.2411 108.716 94.4393 109.162 94.8112C109.509 95.1334 109.708 95.6043 109.708 96.1745C109.708 97.0916 109.113 97.7113 108.394 97.9592V97.9839C108.939 98.1822 109.261 98.678 109.41 99.4216C109.633 100.413 109.807 101.082 109.956 101.355H109.014C108.89 101.157 108.741 100.537 108.543 99.6695C108.344 98.7028 107.948 98.331 107.105 98.3062H106.237V101.38H105.32V94.3898H105.345ZM106.262 97.6121H107.204C108.171 97.6121 108.791 97.0668 108.791 96.2736C108.791 95.3565 108.121 94.9599 107.155 94.9599C106.708 94.9599 106.411 94.9847 106.262 95.0342V97.6121V97.6121Z" fill="#DADADA"/>
<path d="M116.4 99.1489L115.657 101.38H114.715L117.119 94.3154H118.21L120.614 101.38H119.648L118.904 99.1489H116.4ZM118.73 98.4301L118.036 96.3975C117.888 95.9266 117.764 95.5052 117.665 95.1086H117.64C117.541 95.53 117.441 95.9514 117.293 96.3975L116.599 98.4549H118.73V98.4301Z" fill="#DADADA"/>
<path d="M125.869 94.3898C126.315 94.3154 126.885 94.2411 127.629 94.2411C128.521 94.2411 129.191 94.4394 129.612 94.836C129.984 95.183 130.232 95.6787 130.232 96.3232C130.232 96.9677 130.033 97.4634 129.686 97.8352C129.191 98.3557 128.422 98.6036 127.53 98.6036C127.257 98.6036 127.009 98.6036 126.786 98.5292V101.355H125.869V94.3898V94.3898ZM126.786 97.7856C126.985 97.8352 127.232 97.86 127.53 97.86C128.621 97.86 129.315 97.3147 129.315 96.348C129.315 95.4061 128.645 94.9599 127.654 94.9599C127.257 94.9599 126.96 94.9847 126.786 95.0342V97.7856Z" fill="#DADADA"/>
<path d="M136.554 94.2906V97.2403H139.974V94.2906H140.892V101.355H139.974V98.0335H136.554V101.355H135.637V94.2906H136.554Z" fill="#DADADA"/>
<path d="M148.203 101.38V98.3805L145.947 94.3154H146.988L147.98 96.2736C148.252 96.8189 148.451 97.2403 148.674 97.736H148.699C148.897 97.2651 149.145 96.8189 149.417 96.2736L150.434 94.3154H151.45L149.095 98.3805V101.405H148.203V101.38Z" fill="#DADADA"/>
<path d="M4.95745 70.1727C4.58564 70.1975 4.28819 70.3214 4.04032 70.5197C3.79245 70.718 3.56936 70.9659 3.39585 71.2633V81.4757C3.39585 81.8475 3.495 82.1697 3.6933 82.4175C3.81723 82.6158 3.99074 82.7894 4.18904 82.9381C4.38734 83.0868 4.63521 83.186 4.90787 83.2355C4.93266 83.2603 4.93266 83.2851 4.93266 83.2851C4.88308 83.3347 4.70957 83.3347 4.43691 83.3347C2.70181 83.2603 1.33851 83.2603 0.396596 83.3347C0.198298 83.3595 0.0495745 83.3099 0 83.2603C0.470957 83.2107 0.842766 83.062 1.165 82.7646C1.48723 82.4671 1.66074 82.1201 1.68553 81.7483V71.9078C1.68553 71.6351 1.63596 71.412 1.51202 71.189C1.41287 70.9163 1.26415 70.6932 1.06585 70.4949C0.867553 70.2966 0.694042 70.1975 0.470957 70.1975C0.570106 70.1727 1.33851 70.1479 2.77617 70.1479C4.18904 70.1231 4.90787 70.1231 4.95745 70.1727Z" fill="#DADADA"/>
<path d="M12.7661 83.3347L10.9815 83.3099H10.5353L8.77539 83.3347V83.3099C9.39507 83.2356 9.76688 82.7646 9.86603 81.897V81.8227C9.89082 81.7483 9.89082 81.6492 9.89082 81.5252L9.9156 72.2548H9.89082V72.23C9.89082 71.6847 9.79167 71.2633 9.59337 70.9659C9.39507 70.6684 9.12241 70.4701 8.77539 70.4206V70.3958L13.8568 70.3462C14.9722 70.3958 15.8397 70.6189 16.509 71.0402C17.3022 71.5608 17.6988 72.3292 17.6988 73.3454C17.6988 74.6839 16.856 75.8242 15.1705 76.7909C14.9722 76.8404 14.8483 76.9148 14.7739 76.9892C17.4013 80.8312 19.9544 82.8885 22.4332 83.2355L23.1272 83.3595L19.8801 83.3843C18.5416 83.4091 17.4013 82.8142 16.4099 81.6492C15.0218 79.8645 13.8816 78.4268 12.9892 77.3362C12.3943 77.3362 11.9234 77.361 11.6011 77.4353L11.6507 81.5252C11.6507 82.0705 11.7499 82.4919 11.9482 82.7894C12.1465 83.0868 12.4191 83.2603 12.7661 83.3347ZM15.6662 73.4694C15.6662 72.6018 15.4432 71.9821 14.997 71.6103C14.5756 71.2137 13.8568 71.0154 12.9149 71.0154C12.1465 71.0154 11.7251 71.1394 11.6755 71.3625C11.6507 71.412 11.6507 71.4864 11.6507 71.5608L11.6011 76.5182H12.4191C13.5593 76.5182 14.3773 76.2208 14.8978 75.6259C15.4184 75.0558 15.6662 74.3369 15.6662 73.4694Z" fill="#DADADA"/>
<path d="M29.9184 70.1727C29.5466 70.1975 29.2491 70.3214 29.0013 70.5197C28.7534 70.718 28.5303 70.9659 28.3568 71.2633V81.4757C28.3568 81.8475 28.4559 82.1697 28.6542 82.4175C28.7782 82.6158 28.9517 82.7894 29.15 82.9381C29.3483 83.0868 29.5961 83.186 29.8688 83.2355C29.8936 83.2603 29.8936 83.2851 29.8936 83.2851C29.844 83.3347 29.6705 83.3347 29.3978 83.3347C27.6627 83.2603 26.2994 83.2603 25.3575 83.3347C25.1592 83.3595 25.0105 83.3099 24.9609 83.2603C25.4319 83.2107 25.8037 83.062 26.1259 82.7646C26.4482 82.4671 26.6217 82.1201 26.6465 81.7483V71.9078C26.6465 71.6351 26.5969 71.412 26.473 71.189C26.3738 70.9163 26.2251 70.6932 26.0268 70.4949C25.8285 70.2966 25.655 70.1975 25.4319 70.1975C25.531 70.1727 26.2994 70.1479 27.7371 70.1479C29.1252 70.1231 29.8688 70.1231 29.9184 70.1727Z" fill="#DADADA"/>
<path d="M47.6648 70.3462C47.3178 70.3958 47.0451 70.5693 46.8468 70.8915C46.6485 71.1889 46.5494 71.6103 46.5494 72.1557L46.5989 79.3687C46.5989 80.8808 46.6237 82.0705 46.6485 83.0125C46.6485 83.2603 46.5989 83.4338 46.5246 83.5082H46.3263C45.0869 82.244 41.6663 78.9969 36.0396 73.742L35.99 79.9388V81.4757C35.99 82.021 36.0892 82.4424 36.2875 82.7398C36.4858 83.0372 36.7584 83.2355 37.1054 83.2851V83.3099H33.7344V83.2851C34.0814 83.2355 34.3541 83.062 34.5524 82.7398C34.7507 82.4424 34.8498 82.021 34.8498 81.4757V79.691L34.8994 72.23C34.8994 71.3377 34.8746 70.6932 34.8498 70.2718H34.8994L45.0869 79.5422C45.1861 79.6662 45.2604 79.7158 45.31 79.7158C45.3596 79.7158 45.3844 79.6166 45.3844 79.4431L45.3596 72.1309C45.3596 71.5855 45.2604 71.1642 45.0621 70.8667C44.8638 70.5693 44.5912 70.371 44.2442 70.3214V70.2966L47.6648 70.3462Z" fill="#DADADA"/>
<path d="M51.0373 83.3099H48.5834L48.5586 83.2851C48.8808 83.2355 49.1039 83.0868 49.2774 82.839C49.4509 82.5911 49.6492 82.3432 49.8475 82.0706C50.0458 81.8227 50.5168 80.9056 51.2356 79.344C51.9544 77.7576 52.4998 76.543 52.8964 75.6507C53.8878 73.2215 54.7306 71.065 55.4494 69.1564C57.2589 73.4694 59.0684 77.5841 60.8283 81.5004C61.0266 82.0458 61.2992 82.4671 61.5967 82.7646C61.9189 83.062 62.2411 83.2355 62.6129 83.2851V83.3099L59.465 83.3347C58.8949 81.7979 58.4239 80.6329 58.0769 79.7901H52.3015L51.0373 83.3099ZM57.7051 78.8234C57.6555 78.7243 56.8375 76.7165 55.2016 72.7505L52.6237 78.9722H57.7794L57.7051 78.8234Z" fill="#DADADA"/>
<path d="M80.7072 83.3099H78.2533L78.2285 83.2851C78.5507 83.2355 78.7738 83.0868 78.9721 82.839C79.1456 82.5911 79.3439 82.3432 79.5422 82.0706C79.7405 81.8227 80.2115 80.9056 80.9303 79.344C81.6492 77.7576 82.1945 76.543 82.5911 75.6507C83.5826 73.2215 84.4253 71.065 85.1442 69.1564C86.9536 73.4694 88.7631 77.5841 90.523 81.5004C90.7213 82.0458 90.9939 82.4671 91.2914 82.7646C91.6136 83.062 91.9358 83.2355 92.3077 83.2851V83.3099L89.1597 83.3347C88.5648 81.7979 88.1186 80.6329 87.7716 79.7901H81.9962L80.7072 83.3099ZM87.375 78.8234C87.3254 78.7243 86.5074 76.7165 84.8715 72.7505L82.2936 78.9722H87.4494L87.375 78.8234Z" fill="#DADADA"/>
<path d="M95.9769 81.2774C95.9769 81.897 96.3239 82.2688 97.0427 82.4176C97.2162 82.4423 97.8359 82.4672 98.9018 82.4672C99.3975 82.4672 99.8189 82.4176 100.191 82.3184C101.009 82.0953 101.604 81.8227 102 81.55C102.397 81.2773 102.645 80.9551 102.744 80.6081L102.769 80.6329L102.372 83.2603L102.347 83.3843L102.174 83.3595C102.075 83.3843 101.926 83.3843 101.752 83.3843C100.711 83.3347 99.4223 83.3099 97.8111 83.3099C96.6461 83.3099 95.0845 83.3099 93.1263 83.3347V83.3099C93.4734 83.2603 93.746 83.0868 93.9443 82.7646C94.1426 82.4671 94.2418 82.0458 94.2418 81.5004L94.2666 74.5352H94.2418V72.2052H94.217V72.1805C94.217 71.6351 94.1178 71.2138 93.9195 70.9163C93.7212 70.6189 93.4486 70.4205 93.1016 70.371V70.3462H97.1419V70.371C96.7949 70.4205 96.5222 70.6189 96.3239 70.9659C96.1256 71.3129 96.0264 71.883 95.9769 72.701V81.2774Z" fill="#DADADA"/>
<path d="M116.054 79.6414C116.054 80.9056 115.558 81.8722 114.566 82.5167C113.947 82.9381 113.153 83.2108 112.162 83.3347H107.899L106.139 83.3595V83.3347C106.486 83.2851 106.758 83.1116 106.957 82.7894C107.155 82.4919 107.254 82.0705 107.254 81.5252L107.279 72.2548H107.254V72.23C107.254 71.6847 107.155 71.2633 106.957 70.9659C106.758 70.6684 106.486 70.4701 106.139 70.4206V70.3958L111.22 70.3462C112.335 70.3958 113.203 70.6189 113.848 71.0402C114.641 71.5608 115.037 72.3292 115.037 73.3454C115.037 74.684 114.219 75.6259 112.583 76.1464C112.385 76.196 112.41 76.2456 112.608 76.2951C114.913 76.6669 116.054 77.7824 116.054 79.6414ZM113.054 73.4694C113.054 72.6018 112.831 71.9821 112.385 71.6103C111.964 71.2137 111.245 71.0154 110.303 71.0154C109.535 71.0154 109.113 71.1394 109.064 71.3625C109.039 71.412 109.039 71.4864 109.039 71.5608V75.8738H109.906C110.997 75.8738 111.79 75.6754 112.311 75.3036C112.806 74.9566 113.054 74.3369 113.054 73.4694ZM114.021 79.8645C114.021 78.7739 113.649 77.9311 112.93 77.3858C112.311 76.9148 111.493 76.6669 110.476 76.6669C109.882 76.6669 109.411 76.6917 109.039 76.7661V81.6739C109.039 82.3184 109.683 82.6159 110.997 82.6159C113.03 82.6407 114.021 81.7235 114.021 79.8645Z" fill="#DADADA"/>
<path d="M123.688 83.3347L121.903 83.3099H121.457L119.697 83.3347V83.3099C120.317 83.2356 120.689 82.7646 120.788 81.897V81.8227C120.813 81.7483 120.813 81.6492 120.813 81.5252L120.837 72.2548H120.813V72.23C120.813 71.6847 120.714 71.2633 120.515 70.9659C120.317 70.6684 120.044 70.4701 119.697 70.4206V70.3958L124.779 70.3462C125.894 70.3958 126.762 70.6189 127.406 71.0402C128.199 71.5608 128.596 72.3292 128.596 73.3454C128.596 74.6839 127.753 75.8242 126.068 76.7909C125.869 76.8404 125.745 76.9148 125.671 76.9892C128.323 80.8312 130.852 82.8885 133.33 83.2355L134.024 83.3595L130.777 83.3843C129.439 83.4091 128.298 82.8142 127.307 81.6492C125.919 79.8645 124.779 78.4268 123.886 77.3362C123.291 77.3362 122.82 77.361 122.498 77.4353L122.548 81.5252C122.548 82.0705 122.647 82.4919 122.845 82.7894C123.068 83.0868 123.341 83.2603 123.688 83.3347ZM126.588 73.4694C126.588 72.6018 126.365 71.9821 125.919 71.6103C125.497 71.2137 124.779 71.0154 123.837 71.0154C123.068 71.0154 122.647 71.1394 122.597 71.3625C122.573 71.412 122.573 71.4864 122.573 71.5608L122.523 76.5182H123.341C124.481 76.5182 125.299 76.2208 125.82 75.6259C126.34 75.0558 126.588 74.3369 126.588 73.4694Z" fill="#DADADA"/>
<path d="M145.254 83.3595C145.155 83.3843 145.007 83.3843 144.833 83.3843C143.792 83.3347 142.503 83.3099 140.892 83.3099C139.727 83.3099 138.165 83.3099 136.207 83.3347V83.3099C136.554 83.2603 136.827 83.0868 137.025 82.7646C137.223 82.4671 137.322 82.0458 137.322 81.5004L137.347 72.23H137.322V72.2052C137.322 71.6599 137.223 71.2385 137.025 70.9411C136.827 70.6436 136.554 70.4453 136.207 70.3958V70.371L139.925 70.3462C140.917 70.3462 141.859 70.3214 142.701 70.2966H142.85C143.445 70.2718 143.99 70.247 144.511 70.2223C144.932 70.1975 145.155 70.2223 145.155 70.2966V70.6188L145.18 72.3787H145.155C145.13 72.2052 145.056 72.0565 144.957 71.9078C144.858 71.7839 144.684 71.6599 144.436 71.5608C144.189 71.4616 143.866 71.3873 143.47 71.3129C143.073 71.2633 142.553 71.2137 141.908 71.189C141.338 71.1642 140.545 71.1642 139.553 71.1642C139.33 71.1642 139.206 71.1889 139.132 71.2633C139.107 71.3129 139.082 71.412 139.082 71.5608V75.7002C139.082 75.8737 139.182 75.9481 139.355 75.9481C139.702 75.9481 140.991 75.9481 143.197 75.9729C143.742 75.9729 144.139 75.8489 144.387 75.6011C144.635 75.3532 144.783 75.0558 144.833 74.7087H144.858C144.833 75.2293 144.858 76.3199 144.883 77.9807H144.858C144.808 77.6336 144.635 77.361 144.312 77.1627C144.015 76.9644 143.594 76.8652 143.048 76.8652C142.206 76.8157 140.941 76.7909 139.281 76.8156C139.157 76.8156 139.107 76.8652 139.107 76.9644V81.3021C139.107 81.9218 139.454 82.2936 140.173 82.4424C140.346 82.4672 140.966 82.4919 142.032 82.4919C142.528 82.4919 142.949 82.4424 143.321 82.3432C144.139 82.1201 144.734 81.8475 145.13 81.5748C145.527 81.3022 145.775 80.9799 145.874 80.6329L145.899 80.6577L145.502 83.2851L145.477 83.409L145.254 83.3595Z" fill="#DADADA"/>
<path d="M160.846 79.5918C160.895 79.6414 160.92 79.9636 160.92 80.5585C160.92 81.1782 160.895 81.7235 160.821 82.2193C160.796 82.2689 160.796 82.3184 160.771 82.368L160.672 82.4671C160.474 82.6654 160.077 82.8638 159.507 83.062C158.565 83.4091 157.375 83.5578 155.962 83.5578C153.98 83.5578 152.294 82.9133 150.906 81.6244C149.493 80.3354 148.749 78.7243 148.725 76.7661V76.7413C148.749 74.8079 149.468 73.1967 150.906 71.883C152.294 70.594 153.98 69.9496 155.962 69.9496C157.375 69.9496 158.54 70.1231 159.507 70.4453C160.077 70.6436 160.474 70.8419 160.672 71.0402L160.771 71.1394C160.796 71.1889 160.821 71.2385 160.821 71.2881C160.895 71.7839 160.92 72.354 160.92 72.9488C160.92 73.5437 160.895 73.8908 160.846 73.9156H160.796C160.771 73.742 160.697 73.5685 160.598 73.3207C160.499 73.0976 160.325 72.8497 160.102 72.6018C159.879 72.3539 159.606 72.1061 159.259 71.8582C158.912 71.6103 158.516 71.3625 158.02 71.1642C157.475 70.9163 156.78 70.7924 155.913 70.7924C154.45 70.7924 153.261 71.2881 152.319 72.2548C151.327 73.3206 150.807 74.7583 150.807 76.5926V76.6917V76.7165V76.8156C150.807 78.6499 151.302 80.1124 152.319 81.1534C153.261 82.1201 154.45 82.6159 155.913 82.6159C156.78 82.6159 157.475 82.4919 158.02 82.2441C158.516 82.021 158.912 81.7979 159.259 81.55C159.606 81.3021 159.879 81.0543 160.102 80.8064C160.325 80.5585 160.499 80.3355 160.598 80.0876C160.697 79.8397 160.771 79.6662 160.796 79.4927H160.846V79.5918Z" fill="#DADADA"/>
<path d="M178.938 83.3099L177.178 83.2851H176.831C176.286 83.2851 175.666 83.2851 174.948 83.3099V83.2851C175.295 83.2355 175.567 83.062 175.766 82.7398C175.964 82.4424 176.063 82.021 176.063 81.4757L176.038 77.7824C176.038 77.5097 176.013 77.3114 175.939 77.2122C175.865 77.1131 175.716 77.0635 175.468 77.0635H168.453C168.156 77.0635 167.982 77.1131 167.908 77.1627C167.834 77.237 167.809 77.4353 167.809 77.7328L167.834 81.4757C167.834 82.021 167.933 82.4424 168.131 82.7398C168.329 83.0372 168.602 83.2355 168.949 83.2851V83.3099L167.189 83.2851H166.842C166.297 83.2851 165.677 83.2851 164.958 83.3099V83.2851C165.305 83.2355 165.578 83.062 165.776 82.7398C165.975 82.4424 166.074 82.021 166.074 81.4757V72.2796H166.049V72.2548C166.049 71.7095 165.95 71.2881 165.752 70.9907C165.553 70.6932 165.281 70.4949 164.934 70.4453V70.4206H168.974V70.4453C168.627 70.4949 168.354 70.6932 168.156 71.0402C167.958 71.3873 167.858 71.9574 167.809 72.7753V75.3532C167.809 75.8242 168.032 76.0473 168.478 76.0473H175.394C175.666 76.0473 175.84 76.0225 175.89 75.9729C175.989 75.8737 176.038 75.6506 176.038 75.3284L176.063 72.2548H176.038V72.23C176.038 71.6847 175.939 71.2633 175.741 70.9659C175.543 70.6684 175.27 70.4701 174.923 70.4206V70.3958H178.938V70.4206C178.591 70.4701 178.319 70.6684 178.12 71.0154C177.922 71.3625 177.823 71.9326 177.773 72.7505V78.5755L177.798 81.4509C177.798 81.9962 177.897 82.4176 178.096 82.715C178.294 83.062 178.567 83.2356 178.938 83.3099Z" fill="#DADADA"/>
<path d="M195.101 70.2966C195.076 71.5608 195.076 72.6266 195.052 73.519H194.977C194.358 72.6018 193.862 72.0069 193.44 71.7095C192.92 71.3377 192.003 71.1394 190.714 71.1394H189.945C189.698 71.1642 189.574 71.2137 189.549 71.3129C189.524 71.3625 189.499 71.412 189.499 71.4864L189.474 81.4757C189.474 81.8475 189.574 82.1697 189.772 82.4176C189.896 82.6159 190.069 82.7894 190.268 82.9381C190.466 83.0868 190.714 83.186 190.986 83.2355C191.011 83.2603 191.011 83.2851 191.011 83.2851C190.962 83.3347 190.788 83.3347 190.516 83.3347C188.78 83.2603 187.417 83.2603 186.475 83.3347C186.277 83.3595 186.128 83.3099 186.079 83.2603C186.55 83.2107 186.921 83.062 187.244 82.7646C187.566 82.4671 187.739 82.1201 187.764 81.7483L187.739 71.4864C187.739 71.3625 187.665 71.2385 187.541 71.189H186.475C185.186 71.189 184.294 71.3872 183.749 71.759C183.327 72.0565 182.807 72.6514 182.212 73.5685H182.137C182.113 72.6762 182.113 71.6103 182.088 70.3462L187.665 70.371L195.101 70.2966Z" fill="#DADADA"/>
<path d="M137.94 60.7039C137.865 60.1338 137.766 59.6381 137.667 59.1919C137.518 58.2996 137.221 57.4816 136.75 56.7132C136.279 55.9448 135.734 55.2259 135.114 54.6063C134.346 53.8379 133.478 53.1686 132.561 52.5985C131.644 52.0284 130.702 51.4831 129.76 50.9873C128.62 50.4172 127.43 49.8967 126.24 49.4257C125.05 48.9796 123.861 48.5334 122.671 48.112C122.324 47.9881 121.977 47.8889 121.63 47.8146C121.308 47.7154 120.961 47.6163 120.589 47.5171C120.019 45.782 119.523 44.0469 119.101 42.287C118.68 40.5519 118.308 38.7672 117.961 36.9578C117.218 32.4713 116.895 27.9104 117.044 23.3248C117.069 22.5812 117.094 21.8375 117.143 21.0691C117.193 20.3255 117.242 19.5571 117.317 18.8135C117.366 18.4169 117.416 18.0203 117.466 17.6485C117.49 17.2767 117.54 16.8801 117.614 16.4835L117.713 15.3433C117.763 14.9467 117.837 14.6245 117.912 14.4262C117.986 14.1783 118.085 13.9304 118.184 13.7073C118.259 13.6082 118.333 13.5091 118.407 13.4099C119.696 11.7987 121.035 10.2371 122.448 8.72512C123.861 7.2131 125.199 5.99851 126.438 5.08138C127.678 4.16425 128.818 3.69331 129.81 3.66852C130.801 3.64373 131.495 4.33779 131.892 5.72587C132.016 6.07289 132.115 6.17202 132.14 6.04809C132.164 5.92415 132.189 5.77544 132.164 5.62672C131.991 4.85831 131.644 4.18905 131.148 3.66852C130.652 3.14799 130.107 2.77619 129.512 2.52831C128.917 2.28044 128.298 2.15649 127.653 2.10691C127.009 2.08213 126.414 2.15649 125.893 2.35478C124.257 2.92489 122.621 3.99077 120.961 5.60194C119.3 7.21311 117.713 9.02257 116.226 11.0799C114.714 13.1125 113.326 15.1698 112.062 17.2271C110.798 19.2845 109.781 21.0444 108.963 22.4573C106.435 26.8942 103.882 31.2567 101.329 35.5945C99.8666 38.0732 98.4289 40.5519 96.9665 43.0554C95.5288 42.9563 94.0911 42.8571 92.6535 42.7828C88.4644 42.6588 84.2754 42.7828 80.0864 43.1794C75.8973 43.576 71.8074 44.3939 67.8167 45.6333C66.2799 46.0795 64.7679 46.6496 63.3302 47.3188C61.8925 47.9881 60.5045 48.8061 59.2155 49.7728C57.2821 51.26 55.8197 53.0695 54.8282 55.2012C54.0102 57.0354 53.6384 58.9193 53.688 60.8774C53.7375 62.8356 54.1589 64.7195 55.0017 66.5289C55.6957 68.0409 56.6624 69.429 57.877 70.6684C59.0916 71.9078 60.5292 72.7257 62.1404 73.1223C63.5781 73.5189 64.9414 73.395 66.2799 72.7009C67.0979 72.3291 67.7919 71.8086 68.3868 71.1393C68.9817 70.4701 69.527 69.776 69.998 69.0324C70.1715 68.7102 70.221 68.4376 70.1715 68.1897C70.1219 67.9418 70.0227 67.7683 69.8988 67.6691C69.7749 67.5452 69.5766 67.5204 69.3783 67.57C69.1552 67.6196 68.9817 67.7931 68.8825 68.1153C68.5107 68.9085 68.0893 69.6521 67.5936 70.3957C67.0979 71.1393 66.4534 71.6847 65.6354 72.0069C64.9662 72.2795 64.2721 72.4531 63.5533 72.5522C62.8345 72.6514 62.1156 72.5522 61.3968 72.2796C59.7856 71.6847 58.4719 70.6932 57.406 69.2803C56.3402 67.8674 55.547 66.405 54.9769 64.8682C54.3324 62.9348 54.1589 60.9766 54.4316 58.9936C54.7042 57.0106 55.3983 55.1516 56.5137 53.4661C57.4308 52.1276 58.4967 50.9873 59.7608 50.0454C61.0002 49.1035 62.3387 48.2855 63.7764 47.5915C65.1892 46.8974 66.6765 46.3273 68.2381 45.8812C69.7749 45.435 71.2869 45.0632 72.7493 44.7658C76.9384 43.8486 81.1274 43.3281 85.3413 43.1794C89.1337 43.0554 92.9509 43.1298 96.7682 43.4272C95.7519 45.1871 94.7356 46.947 93.7193 48.7317C91.4389 52.6977 89.1833 56.614 87.002 60.5056C84.7959 64.3972 82.5899 68.3384 80.359 72.2796C79.6402 73.5437 78.7231 75.1301 77.6324 77.0635C76.5418 78.9969 75.3024 80.8807 73.9639 82.7646C72.6006 84.6484 71.163 86.3091 69.6509 87.7468C68.1389 89.1844 66.6021 90.0768 65.1149 90.3742C64.1977 90.5725 63.5037 90.4238 63.0575 89.9776C62.6114 89.5315 62.2891 88.9861 62.1156 88.3665C61.9173 87.7468 61.8182 87.1767 61.7686 86.6562C61.719 86.1356 61.6447 85.9125 61.5455 85.9621C61.2976 86.086 61.1737 86.4083 61.1489 86.9288C61.1241 87.4493 61.2481 88.0195 61.4959 88.6391C61.7438 89.2588 62.1404 89.8041 62.6609 90.2999C63.1815 90.7956 63.8755 91.0187 64.7183 90.9939C65.6602 90.9939 66.6765 90.6469 67.7423 89.9528C68.8082 89.2588 69.8245 88.3912 70.7912 87.375C71.7579 86.3587 72.675 85.3176 73.5425 84.227C74.4101 83.1364 75.1289 82.1944 75.7486 81.4013C77.5085 79.0465 79.194 76.5925 80.8052 74.0642C82.4164 71.5359 83.978 69.0076 85.49 66.4298C87.002 63.8767 88.4892 61.2988 89.9765 58.7209C91.4637 56.1431 92.9509 53.6148 94.4382 51.1113C95.9502 48.6078 97.4622 46.1042 98.9742 43.6007C100.833 43.7742 102.668 43.9973 104.502 44.2948C106.633 44.6418 108.74 45.0136 110.872 45.435C112.434 45.782 113.797 46.0547 114.937 46.253C116.077 46.4513 117.416 46.8479 118.953 47.3684C120.019 51.0865 121.531 54.5567 123.489 57.8038C124.803 60.0099 126.389 61.9433 128.248 63.604C129.388 64.6203 130.578 65.3887 131.817 65.8597C133.057 66.3306 134.271 66.2563 135.461 65.6366C136.254 65.2152 136.824 64.6451 137.122 63.9759C137.419 63.3066 137.667 62.6869 137.865 62.1168C138.014 61.745 138.039 61.2492 137.94 60.7039ZM113.475 45.5341C111.888 45.2119 110.079 44.8897 108.046 44.5427C107.179 44.3692 106.311 44.2204 105.419 44.0965C104.527 43.9725 103.634 43.8238 102.717 43.6503C101.552 43.4768 100.387 43.3529 99.1973 43.2289C100.66 40.7998 102.122 38.3706 103.585 35.9415C106.609 30.9097 109.732 25.9027 112.979 20.9204C113.4 20.276 114.119 19.2597 115.111 17.8716C115.755 16.9545 116.474 15.9878 117.242 14.9715L116.97 16.781C116.871 17.3263 116.771 17.8964 116.697 18.4417C116.598 18.987 116.524 19.5571 116.499 20.1025C115.953 24.6881 115.904 29.1746 116.35 33.6115C116.524 35.7928 116.796 37.9493 117.193 40.081C117.589 42.2374 118.085 44.3692 118.68 46.5009C118.705 46.6496 118.73 46.7735 118.779 46.8727C116.846 46.3273 115.061 45.8564 113.475 45.5341ZM136.923 62.092C136.725 62.6621 136.502 63.1579 136.229 63.6288C135.957 64.075 135.535 64.3972 134.94 64.6203C133.924 64.9673 132.982 64.893 132.09 64.3724C131.52 64.0254 130.975 63.6536 130.454 63.257C129.933 62.8604 129.463 62.439 129.016 61.9929C128.57 61.4971 128.124 61.0014 127.703 60.5304C127.281 60.0595 126.86 59.5637 126.463 59.0432C125.373 57.556 124.406 56.0439 123.588 54.4576C122.77 52.8712 122.002 51.2352 121.357 49.5744C121.233 49.3514 121.134 49.0539 121.084 48.7317C121.035 48.4095 120.936 48.1368 120.812 47.9137C122.596 48.4342 124.282 49.0044 125.844 49.6488C126.934 50.095 128 50.566 129.091 51.1113C130.157 51.6566 131.198 52.2515 132.214 52.8959C133.007 53.4165 133.775 54.0362 134.519 54.7798C135.263 55.5234 135.882 56.3166 136.353 57.1594C137.27 58.6714 137.444 60.3073 136.923 62.092Z" fill="#DADADA"/>
<path d="M116.573 5.0566C119.82 5.0566 119.82 0 116.573 0C113.301 0 113.301 5.0566 116.573 5.0566Z" fill="#DADADA"/>
</svg>
