<svg width="208" height="89" viewBox="0 0 208 89" fill="none" xmlns="http://www.w3.org/2000/svg">
<path d="M10.3147 83.0148C10.2061 81.386 10.0975 79.3771 10.0975 77.9111C9.66315 79.2685 9.22879 80.7887 8.63156 82.4175L6.5684 88.1183H5.42824L3.52796 82.4718C2.98502 80.7887 2.49638 79.2685 2.17061 77.9111H2.1163C2.06201 79.3771 2.00773 81.3316 1.89914 83.1233L1.57336 88.1727H0.107422L0.921829 76.3909H2.87643L4.8853 82.0917C5.37395 83.5577 5.75398 84.8607 6.07974 86.0552H6.13405C6.45982 84.8607 6.89416 83.5577 7.38281 82.0917L9.50028 76.3909H11.4548L12.215 88.1727H10.6947L10.3147 83.0148Z" fill="#DADADA"/>
<path d="M34.5297 82.6351H29.969V86.8701H35.0727V88.1731H28.3945V76.3913H34.8012V77.6944H29.969V81.4407H34.5297V82.6351Z" fill="#DADADA"/>
<path d="M52.9893 84.4811L51.7405 88.1731H50.166L54.1838 76.3913H56.0297L60.0475 88.1731H58.4187L57.1699 84.4811H52.9893ZM56.8441 83.2867L55.6497 79.8662C55.3782 79.106 55.2153 78.4002 55.0525 77.6944H54.9982C54.8353 78.4002 54.6724 79.1061 54.4009 79.8119L53.2608 83.2323H56.8441V83.2867Z" fill="#DADADA"/>
<path d="M75.793 76.5542C76.716 76.3914 77.8018 76.2828 79.0506 76.2828C81.2223 76.2828 82.7969 76.8257 83.8284 77.7487C84.9143 78.726 85.5116 80.0833 85.5116 81.9836C85.5116 83.8839 84.9143 85.4584 83.8284 86.5443C82.6883 87.6302 80.8966 88.2274 78.6163 88.2274C77.5304 88.2274 76.6074 88.1731 75.8472 88.0645V76.5542H75.793ZM77.3132 86.9786C77.6932 87.0329 78.2362 87.0329 78.8334 87.0329C82.091 87.0329 83.8828 85.1869 83.8828 82.0379C83.8828 79.2689 82.3082 77.4772 79.1049 77.4772C78.2905 77.4772 77.7475 77.5315 77.3132 77.6401V86.9786Z" fill="#DADADA"/>
<path d="M111.572 82.1465C111.572 86.2185 109.129 88.336 106.088 88.336C102.939 88.336 100.768 85.8928 100.768 82.3094C100.768 78.5631 103.102 76.1199 106.251 76.1199C109.455 76.1742 111.572 78.6717 111.572 82.1465ZM102.396 82.3637C102.396 84.9155 103.754 87.1415 106.197 87.1415C108.586 87.1415 109.998 84.9155 109.998 82.2551C109.998 79.8662 108.749 77.4229 106.251 77.4229C103.754 77.4229 102.396 79.7576 102.396 82.3637Z" fill="#DADADA"/>
<path d="M129.49 88.1732L126.504 76.3914H128.133L129.544 82.3637C129.87 83.8296 130.196 85.2955 130.413 86.4357H130.467C130.685 85.2412 131.01 83.8839 131.445 82.3637L133.019 76.3914H134.594L136.005 82.3637C136.331 83.7753 136.657 85.187 136.82 86.3814H136.874C137.145 85.0784 137.471 83.7753 137.797 82.3094L139.372 76.3371H140.946L137.58 88.1188H136.005L134.539 81.9836C134.159 80.4634 133.942 79.3233 133.779 78.1288H133.725C133.508 79.3233 133.236 80.4634 132.802 81.9836L131.119 88.1188H129.49V88.1732Z" fill="#DADADA"/>
<path d="M182.316 87.8473C181.773 88.1188 180.633 88.3903 179.222 88.3903C175.91 88.3903 173.412 86.2728 173.412 82.4179C173.412 78.726 175.91 76.2285 179.602 76.2285C181.068 76.2285 181.991 76.5543 182.425 76.7714L182.045 78.0202C181.502 77.7487 180.687 77.5315 179.656 77.5315C176.887 77.5315 175.041 79.3232 175.041 82.4179C175.041 85.3498 176.724 87.1416 179.547 87.1416C180.47 87.1416 181.448 86.9244 182.045 86.6529L182.316 87.8473Z" fill="#DADADA"/>
<path d="M207.999 82.1465C207.999 86.2185 205.556 88.336 202.515 88.336C199.366 88.336 197.194 85.8928 197.194 82.3094C197.194 78.5631 199.529 76.1199 202.678 76.1199C205.881 76.1742 207.999 78.6717 207.999 82.1465ZM198.823 82.3637C198.823 84.9155 200.18 87.1415 202.624 87.1415C205.013 87.1415 206.424 84.9155 206.424 82.2551C206.424 79.8662 205.176 77.4229 202.678 77.4229C200.181 77.4229 198.823 79.7576 198.823 82.3637Z" fill="#DADADA"/>
<path d="M22.3147 47.0727L13.9535 58.2029H12.9762L4.83213 47.0184V65.6412H0V40.0145H5.53794L13.5735 51.0362L21.6089 40.0145H27.1469V65.6412H22.3147V47.0727V47.0727Z" fill="#DADADA"/>
<path d="M52.6091 65.5869H33.4434C33.4434 57.0628 33.4434 48.4844 33.4434 39.9602H52.6091V44.6295H38.2212V50.5475H52.0661V55.0539H38.2212V60.8634H52.6091V65.5869Z" fill="#DADADA"/>
<path d="M80.5179 47.0727L72.1566 58.2029H71.1794L63.0353 47.0184V65.6412H58.2031V40.0145H63.7411L71.7766 51.0362L79.8121 40.0145H85.35V65.6412H80.5179V47.0727V47.0727Z" fill="#DADADA"/>
<path d="M144.964 65.5869H139.209L131.716 57.0085H127.047V65.5869H122.215V39.906C126.287 39.906 130.359 39.9602 134.377 39.9602C140.403 40.0145 143.607 44.0323 143.607 48.4301C143.607 51.9592 141.978 55.4883 137.146 56.4656L144.91 65.2069V65.5869H144.964ZM127.101 44.4667V52.665H134.431C137.526 52.665 138.829 50.6018 138.829 48.593C138.829 46.5298 137.471 44.4667 134.431 44.4667H127.101Z" fill="#DADADA"/>
<path d="M148.818 65.5869V39.9602H153.596V65.5869H148.818Z" fill="#DADADA"/>
<path d="M178.138 60.7548H164.728L162.556 65.5869H157.344L168.854 39.9602H174.121L185.631 65.5869H180.364L178.138 60.7548ZM171.46 45.3896L166.682 56.3027H176.238L171.46 45.3896Z" fill="#DADADA"/>
<path d="M194.807 39.9602V61.1348H208V65.5869H189.975V39.9602H194.807Z" fill="#DADADA"/>
<path d="M112.118 52.9908C112.063 57.2257 109.783 61.732 103.756 61.732C97.7297 61.732 95.4493 57.2257 95.3408 53.045C95.2865 50.7104 95.9923 48.2129 97.6211 46.4212C96.0466 45.9869 94.5264 45.3896 93.1147 44.6838C91.4316 47.0727 90.6172 50.0046 90.6172 52.9365C90.6172 59.6689 94.7978 66.1298 103.811 66.1298C112.823 66.1298 116.895 59.506 116.95 52.8822C117.004 50.2761 116.298 47.6699 114.995 45.4439C113.529 46.0411 111.955 46.5298 110.326 46.8555C111.575 48.6472 112.172 50.8733 112.118 52.9908Z" fill="#DADADA"/>
<path d="M128.784 16.1795C128.567 16.1795 128.35 16.1795 128.132 16.1795C119.445 16.3424 112.659 18.9485 107.989 23.9436C106.686 25.3552 105.655 26.8211 104.786 28.3956C104.895 27.5269 105.22 25.0294 105.275 23.3463C105.275 23.0749 105.275 22.8577 105.275 22.6405C105.275 22.6405 105.275 22.6405 105.275 22.5862C105.166 19.22 104.46 16.0167 103.266 13.0305C101.746 9.28424 99.4653 6.24377 97.0763 3.85485C97.0763 3.85485 97.0763 3.85486 97.022 3.80057C96.8592 3.58339 96.5877 3.36621 96.3705 3.14903C96.2619 3.09474 96.2077 2.98615 96.0991 2.87757C95.6104 2.44321 95.0675 1.95457 94.5245 1.52022C94.4159 1.41163 94.3617 1.35734 94.2531 1.24875C94.2531 1.24875 94.2531 1.24873 94.1988 1.19444C93.6558 0.760087 93.2215 0.380057 92.7328 0C92.1899 0.325763 91.5927 0.651506 91.104 1.03156C83.2857 6.40665 78.9422 16.0709 80.8425 25.9524C82.8514 36.2682 91.104 43.8151 100.931 45.4439C101.148 45.4982 101.366 45.4982 101.528 45.5525C104.135 45.9326 106.849 45.8783 109.564 45.3353C109.618 45.3353 109.618 45.3353 109.673 45.3353C122.432 42.7835 130.901 30.7303 129.164 17.9712C129.164 17.8626 129.11 17.6998 129.11 17.5912C129.055 17.2654 129.001 16.7767 128.893 16.451C128.838 16.3967 128.784 16.2881 128.784 16.1795ZM82.3627 25.8981C82.2541 25.6266 82.1998 25.3552 82.1998 25.2466C80.6253 16.0167 84.9688 7.05817 92.4614 2.28031H92.5157C93.1672 2.76896 93.9273 3.3662 94.6331 4.01772C92.8414 7.54682 91.3212 11.9989 91.2669 17.1568C91.2669 21.1203 92.1899 25.0294 93.8187 28.8843C89.801 26.1696 84.806 26.1696 82.5256 26.3868C82.5256 26.3325 82.5256 26.2782 82.5256 26.2782L82.3627 25.8981ZM100.768 43.2721V43.5436V43.6522V43.7608L100.171 43.6522H100.063C100.008 43.6522 99.9539 43.6522 99.8996 43.5979C98.7052 43.3264 97.5107 43.0007 96.3705 42.5664C86.8691 38.3857 83.8286 31.4361 82.9056 28.1242C85.1317 28.0156 89.6924 28.1785 93.5472 30.9475C94.416 31.599 95.3932 32.3048 95.9905 33.1735L96.1533 33.3364C96.3162 33.4993 96.4791 33.7164 96.6963 33.9879C97.0763 34.5308 97.4564 35.0738 97.8908 35.6167C98.1622 35.9968 98.4337 36.3768 98.6508 36.8112C98.6508 36.8112 98.6509 36.8112 98.7052 36.8655C98.7595 36.9198 98.7595 36.974 98.8138 37.0826C98.8138 37.0826 98.8138 37.0827 98.8138 37.137C98.9766 37.4084 99.0852 37.5713 99.1938 37.8428C99.791 39.1458 100.714 41.3719 100.768 43.2721ZM101.203 37.897L100.714 37.0283C100.551 36.7569 100.388 36.4854 100.225 36.1597L100.171 36.1054C100.117 35.9968 100.062 35.8882 100.008 35.8339C99.9539 35.7796 99.9539 35.7253 99.8996 35.6167C99.5196 34.9652 99.0852 34.3137 98.7052 33.7164C98.7052 33.6621 98.6508 33.6622 98.6508 33.6079C98.2708 33.1735 97.945 32.7392 97.6193 32.3591C96.7506 31.1646 95.9905 29.753 95.719 29.21C95.6647 29.1557 95.6647 29.1015 95.6647 29.0472C95.6647 29.0472 95.6647 29.0472 95.6647 28.9929C95.6647 28.9386 95.6647 28.9386 95.6647 28.9386C93.7644 25.0837 92.95 21.1203 93.0043 17.1025C93.0043 12.5419 94.416 8.46982 95.9905 5.21219C98.1622 7.43824 100.225 10.2072 101.637 13.6277C102.723 16.3424 103.374 19.22 103.483 22.2062V22.2605V22.1518C103.537 23.2377 103.7 25.3009 103.374 25.3552H103.32C103.212 29.9159 101.583 36.3225 101.257 37.5713C101.257 37.7342 101.257 37.8427 101.203 37.897ZM109.238 43.5979C109.184 43.5979 109.184 43.5979 109.13 43.5979C107.392 43.9236 105.763 44.1951 104.026 44.0323C103.646 44.0323 103.266 43.978 102.994 43.9237C102.94 40.829 103.32 31.6532 109.401 25.138C113.527 20.6859 119.554 18.297 127.318 17.9712C128.947 29.9702 121.128 41.2633 109.238 43.5979Z" fill="#F9F9F9"/>
<path d="M127.264 18.0798C129.001 29.9701 121.129 41.2633 109.238 43.6522C109.184 43.6522 109.184 43.6522 109.13 43.6522C107.392 43.978 105.763 44.2494 104.026 44.0865C103.646 44.0865 103.266 44.0323 102.994 43.978C102.94 40.8832 103.32 31.7076 109.401 25.1923C113.473 20.7403 119.5 18.3513 127.264 18.0798Z" fill="#DADADA"/>
<path d="M103.429 22.3148V22.369C103.429 22.369 103.429 22.2605 103.429 22.3148C103.429 23.4006 103.591 25.4095 103.32 25.4638H103.266C103.157 30.0245 101.528 36.4312 101.202 37.6799C101.202 37.7342 101.202 37.8428 101.148 37.8971L100.66 37.0284C100.497 36.7569 100.334 36.4854 100.171 36.1597L100.117 36.1054C100.062 35.9968 100.008 35.8882 99.9537 35.8339C99.8994 35.7796 99.8994 35.7253 99.8451 35.6167C99.4651 34.9652 99.0307 34.3137 98.6507 33.7165C98.6507 33.6622 98.5964 33.6622 98.5964 33.6079C98.2163 33.1735 97.8905 32.7392 97.5648 32.3591C96.6961 31.1646 95.936 29.753 95.6645 29.21C95.6102 29.1557 95.6102 29.1015 95.6102 29.0472C95.6102 29.0472 95.6102 29.0472 95.6102 28.9929C95.6102 28.9386 95.6102 28.9386 95.6102 28.9386C93.7099 25.0837 92.8955 21.1203 92.9498 17.1026C92.9498 12.5419 94.3614 8.46983 95.936 5.2122C98.1077 7.43825 100.171 10.2072 101.583 13.6277C102.668 16.3967 103.32 19.2743 103.429 22.3148Z" fill="#DADADA"/>
<path d="M93.8188 28.8843C89.8011 26.1696 84.8061 26.1696 82.5257 26.3868C82.5257 26.3325 82.5257 26.2782 82.5257 26.2782L82.3628 25.9524C82.2542 25.6809 82.1999 25.4095 82.1999 25.3009C80.6254 16.071 84.9689 7.11248 92.4615 2.33463H92.5158C93.1673 2.82327 93.9274 3.42051 94.6332 4.07203C92.8415 7.60113 91.3213 12.0532 91.267 17.2111C91.267 21.1203 92.19 24.9751 93.8188 28.8843Z" fill="#DADADA"/>
<path d="M100.767 43.2722V43.5436V43.6523V43.7608L100.17 43.6523H100.061C100.007 43.6523 99.9526 43.6522 99.8983 43.5979C98.7038 43.3264 97.5094 43.0007 96.3692 42.5664C86.8678 38.3858 83.8273 31.4361 82.9043 28.1242C85.1303 28.0156 89.691 28.1785 93.5459 30.9475C94.4146 31.599 95.3919 32.3048 95.9891 33.1735L96.152 33.3364C96.3149 33.4993 96.4778 33.7165 96.6949 33.9879C97.075 34.5309 97.4551 35.0738 97.8894 35.6168C98.1609 35.9968 98.4323 36.3768 98.6495 36.8112C98.6495 36.8112 98.6495 36.8112 98.7038 36.8655C98.7581 36.9198 98.7581 36.9741 98.8124 37.0827C98.8124 37.0827 98.8124 37.0827 98.8124 37.137C98.9753 37.4085 99.0839 37.5713 99.1924 37.8428C99.7897 39.1458 100.713 41.3719 100.767 43.2722Z" fill="#DADADA"/>
</svg>
