<svg width="164" height="66" viewBox="0 0 164 66" fill="none" xmlns="http://www.w3.org/2000/svg">
<path d="M7.31659 64.9353C6.88067 65.1533 5.94657 65.4024 4.79449 65.4024C2.1167 65.4024 0.0927734 63.721 0.0927734 60.5761C0.0927734 57.587 2.11669 55.563 5.07471 55.563C6.25793 55.563 7.00521 55.8121 7.34772 55.9989L7.03635 56.9954C6.56929 56.7774 5.91542 56.5906 5.13699 56.5906C2.89512 56.5906 1.43167 58.0229 1.43167 60.5138C1.43167 62.8491 2.77057 64.3437 5.07471 64.3437C5.82201 64.3437 6.60043 64.188 7.09863 63.9389L7.31659 64.9353Z" fill="#DADADA"/>
<path d="M16.657 65.2467V61.1989L13.6367 55.7187H15.0379L16.3768 58.3342C16.7193 59.0504 17.0307 59.642 17.3109 60.2959H17.342C17.5911 59.6731 17.9336 59.0504 18.3073 58.3342L19.6773 55.7187H21.0474L17.8714 61.1677V65.2155H16.657V65.2467Z" fill="#DADADA"/>
<path d="M27.7422 55.8744C28.2715 55.7498 29.1434 55.6564 29.9841 55.6564C31.1984 55.6564 32.008 55.8744 32.5684 56.3414C33.0666 56.7151 33.378 57.2756 33.378 58.0229C33.378 58.957 32.7553 59.7666 31.7589 60.1091V60.1402C32.6619 60.3582 33.7205 61.1054 33.7205 62.5066C33.7205 63.3162 33.4092 63.97 32.911 64.406C32.2571 64.9976 31.1984 65.309 29.6416 65.309C28.8009 65.309 28.147 65.2467 27.7422 65.1844V55.8744V55.8744ZM28.9565 59.7665H30.0775C31.3541 59.7665 32.1325 59.0815 32.1325 58.1474C32.1325 57.0576 31.2918 56.5906 30.0463 56.5906C29.4859 56.5906 29.1434 56.6217 28.9565 56.684V59.7665ZM28.9565 64.3126C29.2056 64.3437 29.5481 64.3748 29.9841 64.3748C31.2607 64.3748 32.4128 63.9078 32.4128 62.5377C32.4128 61.2611 31.2918 60.7006 29.9529 60.7006H28.9565V64.3126Z" fill="#DADADA"/>
<path d="M45.9577 60.7941H42.2836V64.2192H46.3937V65.2467H41.0381V55.7187H46.2069V56.7462H42.2836V59.7665H45.9577V60.7941V60.7941Z" fill="#DADADA"/>
<path d="M53.6182 55.8433C54.2409 55.7187 55.1439 55.6564 55.9846 55.6564C57.2924 55.6564 58.1642 55.9055 58.7246 56.4349C59.1917 56.8708 59.4719 57.4935 59.4719 58.2408C59.4719 59.4863 58.6935 60.327 57.6971 60.6695V60.7006C58.4133 60.9497 58.8492 61.6348 59.0671 62.6312C59.3785 63.9701 59.5965 64.873 59.8144 65.2467H58.5378C58.3821 64.9665 58.1642 64.1569 57.9151 62.9737C57.6349 61.6659 57.1055 61.1677 55.9846 61.1366H54.8325V65.2467H53.6182V55.8433V55.8433ZM54.8636 60.2025H56.1091C57.4169 60.2025 58.2576 59.4863 58.2576 58.3965C58.2576 57.1822 57.3546 56.6217 56.078 56.6217C55.4864 56.6217 55.0816 56.6528 54.8636 56.7151V60.2025Z" fill="#DADADA"/>
<path d="M75.5068 55.8744C76.2541 55.7498 77.1571 55.6564 78.1224 55.6564C79.8972 55.6564 81.1427 56.0924 81.9834 56.8397C82.8552 57.6181 83.3534 58.7079 83.3534 60.2648C83.3534 61.8216 82.8552 63.0982 81.9834 63.97C81.0804 64.873 79.6169 65.3401 77.7487 65.3401C76.8457 65.3401 76.1296 65.3089 75.5068 65.2155V55.8744V55.8744ZM76.7212 64.2814C77.0326 64.3125 77.4685 64.3437 77.9667 64.3437C80.6133 64.3437 82.0145 62.8803 82.0145 60.2959C82.0145 58.054 80.769 56.6217 78.1535 56.6217C77.5307 56.6217 77.0326 56.684 76.7212 56.7462V64.2814Z" fill="#DADADA"/>
<path d="M95.4655 60.7941H91.7914V64.2192H95.9015V65.2467H90.5459V55.7187H95.7147V56.7462H91.7914V59.7665H95.4655V60.7941Z" fill="#DADADA"/>
<path d="M103.126 55.7187H108.264V56.7462H104.371V59.9222H107.952V60.9498H104.371V65.2467H103.126V55.7187Z" fill="#DADADA"/>
<path d="M120.594 60.7941H116.919V64.2192H121.029V65.2467H115.674V55.7187H120.843V56.7462H116.919V59.7665H120.594V60.7941Z" fill="#DADADA"/>
<path d="M128.253 65.2467V55.7187H129.623L132.643 60.545C133.328 61.6659 133.889 62.6623 134.325 63.6275H134.356C134.231 62.3509 134.2 61.1989 134.2 59.7043V55.7187H135.352V65.2467H134.107L131.086 60.4204C130.433 59.3618 129.779 58.272 129.312 57.2444H129.28C129.343 58.4588 129.374 59.5797 129.374 61.1677V65.2467H128.253Z" fill="#DADADA"/>
<path d="M143.044 63.7521C143.604 64.0946 144.382 64.3748 145.223 64.3748C146.469 64.3748 147.216 63.721 147.216 62.7557C147.216 61.8839 146.718 61.3546 145.41 60.8875C143.853 60.327 142.888 59.5174 142.888 58.1785C142.888 56.684 144.102 55.5942 145.97 55.5942C146.936 55.5942 147.652 55.8121 148.057 56.0612L147.714 57.0576C147.403 56.8708 146.78 56.5906 145.908 56.5906C144.6 56.5906 144.102 57.369 144.102 58.0229C144.102 58.9258 144.694 59.3618 146.002 59.86C147.621 60.4827 148.43 61.2611 148.43 62.6623C148.43 64.1257 147.372 65.4024 145.099 65.4024C144.196 65.4024 143.168 65.1221 142.67 64.7796L143.044 63.7521Z" fill="#DADADA"/>
<path d="M160.729 60.7941H157.055V64.2192H161.165V65.2467H155.81V55.7187H160.978V56.7462H157.055V59.7665H160.729V60.7941Z" fill="#DADADA"/>
<path d="M57.1367 12.9986H62.0564V43.1393H80.7075V47.4051H57.1367V12.9986Z" fill="#DADADA"/>
<path d="M88.2116 15.4584C87.62 14.8668 87.3086 14.1506 87.3086 13.2788C87.3086 12.4381 87.62 11.6908 88.2116 11.0992C88.8032 10.5076 89.5816 10.1962 90.4846 10.1962C91.3875 10.1962 92.166 10.4764 92.7576 11.0681C93.3492 11.6285 93.6606 12.3447 93.6606 13.2165C93.6606 14.0884 93.3492 14.8357 92.7576 15.4584C92.166 16.05 91.3875 16.3614 90.4846 16.3614C89.5816 16.3302 88.8032 16.05 88.2116 15.4584ZM88.1182 21.3745H92.851V47.4362H88.1182V21.3745Z" fill="#DADADA"/>
<path d="M126.137 23.99C128.098 25.9205 129.064 28.7228 129.064 32.4281V47.4362H124.331V32.9886C124.331 30.4665 123.739 28.5671 122.525 27.2905C121.31 26.0139 119.567 25.36 117.325 25.36C114.772 25.36 112.748 26.1073 111.284 27.6019C109.821 29.0965 109.074 31.2449 109.074 34.0161V47.4362H104.31V21.3745H108.824V25.2977C109.79 23.9588 111.066 22.9313 112.685 22.184C114.305 21.4679 116.142 21.0942 118.228 21.0942C121.528 21.1253 124.175 22.0595 126.137 23.99Z" fill="#DADADA"/>
<path d="M163.875 35.9778H142.733C143.013 38.2819 144.041 40.119 145.753 41.5202C147.466 42.9213 149.614 43.6064 152.167 43.6064C155.281 43.6064 157.803 42.5477 159.703 40.4615L162.318 43.5129C161.135 44.883 159.672 45.9416 157.928 46.6578C156.184 47.3739 154.223 47.7476 152.043 47.7476C149.303 47.7476 146.843 47.1871 144.726 46.035C142.608 44.9141 140.958 43.3261 139.775 41.3022C138.623 39.2783 138.031 36.9742 138.031 34.4209C138.031 31.8988 138.592 29.6258 139.713 27.5708C140.834 25.5468 142.39 23.9588 144.383 22.8379C146.376 21.7169 148.618 21.1253 151.109 21.1253C153.6 21.1253 155.811 21.6858 157.772 22.8379C159.734 23.9588 161.26 25.5468 162.349 27.5708C163.439 29.5947 164 31.9299 164 34.5454C163.968 34.8879 163.937 35.3862 163.875 35.9778ZM145.411 27.166C143.885 28.536 142.982 30.3419 142.733 32.5838H159.454C159.204 30.3731 158.302 28.5983 156.776 27.1971C155.25 25.7959 153.351 25.1109 151.109 25.1109C148.836 25.1109 146.936 25.7959 145.411 27.166Z" fill="#DADADA"/>
<path d="M22.8633 13.6129L29.5673 23.42L31.1188 7.49441L22.8633 13.6129Z" fill="#DADADA"/>
<path d="M31.8507 0L22.8633 13.6129L31.1188 7.49441L31.8507 0Z" fill="#DADADA"/>
<path d="M31.119 7.49441L29.5674 23.42C29.5967 23.3908 29.6259 23.3615 29.6845 23.3322L36.5348 12.9103L31.8508 0L31.119 7.49441Z" fill="#DADADA"/>
<path d="M31.8516 0L40.839 6.3234L44.996 0H31.8516Z" fill="#DADADA"/>
<path d="M36.5356 12.9103L40.839 6.3234L31.8516 0L36.5356 12.9103Z" fill="#DADADA"/>
<path d="M3.57154 43.1221C5.2695 41.7169 7.02601 40.3117 8.78252 38.9065C10.539 37.5013 12.2955 36.1254 14.052 34.7787C15.7793 33.4321 17.565 32.1147 19.2337 30.8559C20.9024 29.5678 22.5711 28.3968 24.1226 27.2551C24.8252 26.7574 25.4986 26.2597 26.1426 25.7913C25.0594 24.8252 23.947 23.8299 22.8638 22.8345C21.2244 21.3122 19.5557 19.7899 17.9456 18.2969C16.3355 16.8039 14.7839 15.2816 13.2616 13.8178C11.7393 12.3833 10.3048 10.9196 8.92889 9.57293C7.55296 8.22628 6.29414 6.9089 5.12313 5.67935C3.01533 3.513 1.2881 1.61012 0 0.175644L15.6329 23.1858L16.1013 23.8884L3.22026 43.4442C3.33736 43.3271 3.45444 43.2392 3.57154 43.1221Z" fill="#DADADA"/>
<path d="M5.82537 45.9326C5.03495 46.5473 4.24453 47.1621 3.4541 47.7476H13.6418L8.63579 43.7369C7.66971 44.4981 6.7329 45.2007 5.82537 45.9326Z" fill="#DADADA"/>
<path d="M16.278 37.5599C15.2533 38.4088 14.2287 39.2578 13.1748 40.0775L13.6139 47.7476L22.8063 33.7541V33.7834L25.5289 29.6263C24.1529 30.8266 22.7185 32.1147 21.1962 33.3736C19.6153 34.7495 17.9759 36.1547 16.278 37.5599Z" fill="#DADADA"/>
<path d="M11.0655 41.7755C10.2458 42.4195 9.42612 43.0929 8.57715 43.7369L13.5832 47.7476L13.144 40.0775C12.4707 40.663 11.7681 41.2193 11.0655 41.7755Z" fill="#DADADA"/>
<path d="M25.82 29.3922C25.7322 29.48 25.6444 29.5385 25.5566 29.6263L22.834 33.7834L28.9232 42.7708L28.0157 27.46C27.3131 28.0748 26.5812 28.7481 25.82 29.3922Z" fill="#DADADA"/>
<path d="M41.5703 41.19L41.3946 41.2192L32.3193 47.7476H46.0201L41.5703 41.19Z" fill="#DADADA"/>
<path d="M41.5121 41.1314L37.9991 35.9205C37.7942 35.7741 37.6185 35.5985 37.4136 35.4521C36.9159 35.0422 36.4182 34.6324 35.8913 34.1932L28.9238 42.7708L41.395 41.2192L41.5121 41.1314Z" fill="#DADADA"/>
<path d="M32.7582 31.5585C31.2359 30.2411 29.5965 28.8945 28.0156 27.46L28.9232 42.7708L35.8906 34.1932C34.866 33.3443 33.8121 32.466 32.7582 31.5585Z" fill="#DADADA"/>
<path d="M28.9238 42.7708L32.3197 47.7476L41.395 41.2192L28.9238 42.7708Z" fill="#DADADA"/>
<path d="M13.6119 0H1.22852L18.3837 7.02601L13.6119 0Z" fill="#DADADA"/>
<path d="M18.3837 7.02601V8.02135V7.02601L1.22852 0C2.69227 1.08318 4.47806 2.4591 6.52731 4.09851C7.84469 5.15241 9.27916 6.26485 10.7722 7.52367C12.2652 8.75323 13.8461 10.0413 15.4269 11.4173C16.393 12.2662 17.3884 13.1152 18.3837 13.9642V7.02601Z" fill="#DADADA"/>
<path d="M22.8638 13.6129L18.3848 7.05527V13.9642C19.0288 14.5204 19.7021 15.0766 20.3462 15.6621C22.0149 17.1259 23.6835 18.6189 25.3522 20.1119C26.6403 21.2829 27.9284 22.4832 29.1872 23.6542C29.3043 23.5664 29.4507 23.4786 29.5678 23.3908L22.8638 13.6129Z" fill="#DADADA"/>
<path d="M18.3848 7.02601L22.8638 13.6129L18.3848 7.02601Z" fill="#DADADA"/>
</svg>
