<svg width="185" height="70" viewBox="0 0 185 70" fill="none" xmlns="http://www.w3.org/2000/svg">
<path d="M145.129 49.4344H142.81L142.162 51.7989H144.266L143.619 54.1634H145.939L146.586 51.7989H144.482L145.129 49.4344Z" fill="#DADADA"/>
<path d="M149.715 49.4344H147.449L148.042 47.1799H145.776L145.129 49.5444H147.395L146.801 51.7989H148.906L148.258 54.1634H150.578L151.225 51.7989H149.067L149.715 49.4344Z" fill="#DADADA"/>
<path d="M154.355 49.4344H152.035L152.682 47.1799H150.362L149.715 49.5444H152.035L151.387 51.7989H153.491L152.898 54.1634H155.164L155.811 51.7989H153.707L154.355 49.4344Z" fill="#DADADA"/>
<path d="M158.941 49.4344H156.675L157.269 47.1799H155.003L154.355 49.5444H156.621L156.028 51.7989H158.132L157.485 54.1634H159.805L160.452 51.7989H158.348L158.941 49.4344Z" fill="#DADADA"/>
<path d="M163.581 49.4344H161.261L161.909 47.1799H159.589L158.941 49.5444H161.261L160.614 51.7989H162.718L162.125 54.1634H164.391L165.038 51.7989H162.934L163.581 49.4344Z" fill="#DADADA"/>
<path d="M168.166 49.4344H165.9L166.493 47.1799H164.227L163.58 49.5444H165.846L165.253 51.7989H167.357L166.709 54.1634H169.029L169.677 51.7989H167.572L168.166 49.4344Z" fill="#DADADA"/>
<path d="M172.806 49.4344H170.54L171.133 47.1799H168.813L168.166 49.5444H170.486L169.838 51.7989H171.943L171.349 54.1634H173.615L174.263 51.7989H172.158L172.806 49.4344Z" fill="#DADADA"/>
<path d="M177.393 49.4344H175.127L175.774 47.1799H173.454L172.807 49.5444H175.073L174.479 51.7989H176.583L175.936 54.1634H178.256L178.903 51.7989H176.799L177.393 49.4344Z" fill="#DADADA"/>
<path d="M182.032 49.4344H179.766L180.36 47.1799H178.04L177.393 49.5444H179.713L179.065 51.7989H181.223L180.576 54.1634H182.842L183.489 51.7989H181.385L182.032 49.4344Z" fill="#DADADA"/>
<path d="M182.681 47.1799L182.033 49.5444H184.353L185.001 47.1799H182.681Z" fill="#DADADA"/>
<path d="M122.901 24.0298C122.901 23.9199 122.901 23.7549 122.901 23.5349C122.901 23.26 122.901 22.9301 122.901 22.5452C122.901 22.3802 122.901 22.1602 122.901 21.9403C122.901 21.7203 122.848 21.5004 122.848 21.2254C122.794 20.7305 122.74 20.1807 122.686 19.5758C122.578 18.9709 122.416 18.3661 122.308 17.7062C122.146 17.0463 121.876 16.3315 121.661 15.6166C121.553 15.2317 121.337 14.7918 121.175 14.4069C121.013 14.077 120.851 13.6921 120.743 13.3621V13.3071C120.582 12.9222 120.366 12.5923 120.15 12.2074C119.934 11.8225 119.718 11.3826 119.449 10.9976C118.909 10.2278 118.423 9.40298 117.776 8.68813C116.589 7.09347 115.025 5.71877 113.298 4.39905C111.572 3.13432 109.521 2.08955 107.363 1.31971C106.824 1.15475 106.284 0.989781 105.691 0.824817L105.205 0.659852L104.774 0.549875L103.911 0.384911L103.047 0.219946C102.724 0.164958 102.508 0.164958 102.184 0.10997L100.458 -6.76308e-06C98.1377 -0.054995 95.7638 0.164958 93.4978 0.769828C91.2319 1.42969 89.0738 2.3095 87.1855 3.46425C85.2972 4.67399 83.5168 6.0487 82.1141 7.58837C81.3587 8.30321 80.7653 9.18303 80.1178 9.95286C79.7941 10.3378 79.5783 10.7777 79.3086 11.1626C79.0388 11.5475 78.7691 11.9874 78.5532 12.3723C78.4993 12.5373 78.3914 12.6473 78.3374 12.8122C78.1216 13.1972 77.9058 13.5821 77.744 13.967C77.6361 14.2419 77.4742 14.4619 77.3663 14.7368C77.0426 15.5067 76.7189 16.2765 76.5031 16.9914C76.2873 17.7062 76.0715 18.421 75.9096 19.0259C75.7478 19.6858 75.6399 20.3456 75.532 20.8955C75.478 21.1705 75.4241 21.4454 75.3701 21.7203C75.3161 21.9403 75.3162 22.1602 75.3162 22.3252C75.2622 22.7101 75.2622 23.0401 75.2082 23.315C75.1543 23.8649 75.1543 24.1398 75.1543 24.1398H75.3162L81.089 20.5656C81.089 20.4006 81.1429 20.2906 81.1429 20.1257C81.2508 19.6308 81.3587 19.0809 81.4666 18.476C81.5745 17.8712 81.8443 17.2663 82.0061 16.6064C82.0601 16.3865 82.168 16.1115 82.2759 15.8916C82.4378 15.5067 82.5996 15.1218 82.7615 14.7368C82.7615 14.6818 82.8154 14.6818 82.8154 14.6269C82.9773 14.2969 83.1931 13.967 83.3549 13.6371C83.5707 13.3071 83.6787 12.9222 83.9484 12.5923C84.434 11.9324 84.8116 11.2176 85.4051 10.5577C86.4302 9.18303 87.8329 7.9183 89.3436 6.76354C90.8542 5.60879 92.6346 4.72898 94.5229 4.01413C96.4112 3.35427 98.4614 2.96936 100.512 2.85938H102.076C102.346 2.85938 102.67 2.85938 102.885 2.85938L103.641 2.96936L104.396 3.02435L104.774 3.07933L105.151 3.13432C105.637 3.2443 106.176 3.35427 106.662 3.46425C108.658 4.01413 110.547 4.78397 112.273 5.82874C113.946 6.87352 115.51 8.08326 116.751 9.45797C117.452 10.1178 117.938 10.8327 118.531 11.5475C118.801 11.8774 119.017 12.2624 119.287 12.5923C119.503 12.9222 119.718 13.2522 119.934 13.5821L119.988 13.6371C120.15 13.967 120.312 14.2969 120.528 14.6269C120.743 15.0118 120.905 15.3967 121.067 15.7266C121.337 16.4415 121.661 17.1013 121.876 17.7062C122.092 18.3661 122.254 18.9709 122.416 19.5208C122.524 20.0707 122.632 20.6206 122.74 21.1155C122.794 21.3354 122.848 21.6104 122.848 21.7753C122.901 21.9953 122.901 22.2152 122.901 22.3802C122.955 22.7651 122.955 23.095 123.009 23.37C122.848 23.7549 122.848 23.9199 122.901 24.0298C122.901 24.2498 122.901 24.3598 122.901 24.3598C122.901 24.3598 122.901 24.2498 122.901 24.0298Z" fill="#DADADA"/>
<path d="M11.2755 47.1249L15.5916 32.2781C15.9693 30.7384 16.3469 29.3637 16.6167 28.154C16.8864 26.9442 17.1562 25.8445 17.372 24.7447C17.5878 25.1846 17.8036 25.6795 18.0194 26.1744C18.2352 26.6693 18.505 27.2192 18.8287 27.769C19.1524 28.3739 19.4761 29.0338 19.8538 29.7486C20.2314 30.4635 20.6631 31.3433 21.1486 32.2231L24.7634 39.1516C25.0871 39.8115 25.4648 40.3613 25.8424 40.7463C26.2201 41.1312 26.5977 41.4611 26.9214 41.6811C27.2991 41.901 27.6768 42.066 28.1084 42.121C28.54 42.176 29.0256 42.2309 29.5111 42.2309C29.9967 42.2309 30.4823 42.176 30.9139 42.121C31.3455 42.066 31.7231 41.901 32.1008 41.6811C32.4785 41.4611 32.8561 41.1312 33.1798 40.7463C33.5575 40.3613 33.8812 39.8115 34.2589 39.1516L37.8736 32.2781C38.7908 30.5185 39.4922 29.0338 40.0856 27.879C40.6252 26.7243 41.1647 25.6795 41.5963 24.6897C41.8121 25.7895 42.0818 26.9442 42.3516 28.099C42.6214 29.2537 42.999 30.6284 43.4306 32.1681L46.0203 41.791H65.0652L80.6033 30.1885L81.5205 29.4737L87.8328 24.7447L91.9331 30.8484C92.3647 31.5082 92.8503 32.2231 93.3359 32.9379C93.6596 33.4328 96.6269 38.1618 99.1087 41.7361H110.492L121.714 25.5695C121.714 24.9646 121.66 24.3598 121.606 23.8649C121.606 23.6999 121.606 23.5899 121.553 23.425L121.445 22.4352C121.445 22.3252 121.445 22.2152 121.391 22.1053V21.4454L121.337 21.2804C121.283 21.0055 121.229 20.8405 121.229 20.8405C121.175 20.5656 121.121 20.3456 121.067 20.0707L120.527 18.3111C120.42 17.9811 120.258 17.5962 120.096 17.1563C119.988 16.8814 119.88 16.6614 119.772 16.3865C119.664 16.1115 119.502 15.8366 119.341 15.5067C118.747 16.0016 118.261 16.5515 117.884 17.1013L105.043 35.5224L94.1991 19.4658L108.766 7.14847L85.405 20.1807L74.0212 26.5593V26.5043L53.1959 37.8869L47.531 17.7612C47.1533 16.4965 46.5598 15.5067 45.6966 14.9018C44.8334 14.2969 43.9162 13.967 42.8911 13.967C41.8121 13.967 40.8949 14.2419 40.1396 14.7368C39.3843 15.2867 38.7908 15.9466 38.3052 16.8264L33.9891 24.6897C33.3956 25.7345 32.9101 26.6693 32.4245 27.4941C31.9929 28.2639 31.6152 28.9788 31.2376 29.6386C30.9139 30.2985 30.5902 30.8484 30.3743 31.3433C30.1046 31.8382 29.8888 32.3331 29.673 32.828C29.4032 32.3331 29.1874 31.8382 28.9177 31.2883C28.6479 30.7934 28.3781 30.1885 28.0544 29.5837C27.7307 28.9788 27.3531 28.2639 26.8675 27.4391C26.4359 26.6143 25.8964 25.6795 25.3029 24.6347L20.9868 16.9364C20.5012 16.0566 19.9077 15.3417 19.1524 14.7918C18.3971 14.2419 17.5339 14.022 16.4548 14.022C15.4298 14.022 14.4586 14.3519 13.5954 14.9568C12.7322 15.5617 12.1387 16.4965 11.761 17.8162L3.29065 47.1249L1.40234 54.1634H140.274L142 47.1249H11.2755Z" fill="#DADADA"/>
<path d="M121.554 22.4902L121.662 23.48C121.554 22.4902 121.446 21.7203 121.338 21.2254L121.5 22.1602C121.554 22.2702 121.554 22.3802 121.554 22.4902Z" fill="#DADADA"/>
<path d="M180.683 27.2192C178.957 25.9544 176.475 25.3496 173.184 25.3496H158.617C157.646 25.3496 156.945 25.1846 156.459 24.9097C155.974 24.6347 155.758 24.1398 155.758 23.425C155.758 22.7101 155.974 22.2152 156.459 21.9403C156.945 21.6654 157.646 21.5004 158.617 21.5004H177.231L182.572 14.4069H159.265C157.215 14.4069 155.488 14.6269 154.031 15.0118C152.575 15.4517 151.388 16.0016 150.471 16.7164C149.553 17.4313 148.852 18.3661 148.42 19.4108C147.989 20.4556 147.773 21.6104 147.773 22.8751C147.773 24.0299 147.989 25.1296 148.366 26.0644C148.744 27.0542 149.392 27.879 150.201 28.5389C151.01 29.1987 152.089 29.7486 153.33 30.1335C154.571 30.5185 156.082 30.6834 157.808 30.6834H172.375C173.346 30.6834 174.101 30.8484 174.533 31.1233C174.965 31.3983 175.234 31.9482 175.234 32.663C175.234 33.3778 175.019 33.8727 174.533 34.2027C174.101 34.5326 173.346 34.6426 172.375 34.6426H140.597L128.62 17.0464C128.027 16.1665 127.325 15.4517 126.462 14.8468C125.599 14.242 124.574 13.967 123.333 13.967C122.955 13.967 122.578 14.022 122.254 14.077C122.254 14.077 122.254 14.077 122.254 14.132C122.308 14.242 122.416 14.5719 122.632 15.1218C122.632 15.1768 122.686 15.2317 122.686 15.2867C122.686 15.3417 122.686 15.3417 122.739 15.3967C123.387 17.2663 124.466 21.0605 124.034 24.9647L127.973 30.9034C128.404 31.5632 128.89 32.2781 129.376 32.9929C129.699 33.4878 132.882 38.2168 135.256 41.791H143.888H171.728C173.778 41.791 175.504 41.5711 176.961 41.1862C178.418 40.7463 179.604 40.1964 180.522 39.4265C181.439 38.6567 182.14 37.7219 182.572 36.6221C183.003 35.5224 183.219 34.2577 183.219 32.883C183.273 30.3535 182.41 28.4839 180.683 27.2192Z" fill="#DADADA"/>
<path d="M87.2938 15.2317L88.0491 14.022L85.5673 12.0424L84.4883 13.7471L87.2938 15.2317Z" fill="#DADADA"/>
<path d="M92.0423 10.0628L93.1753 9.23801L91.6107 6.4886L89.9922 7.64335L92.0423 10.0628Z" fill="#DADADA"/>
<path d="M97.7609 7.69834L99.1097 7.4234L98.786 4.23409L96.8438 4.619L97.7609 7.69834Z" fill="#DADADA"/>
<path d="M103.91 7.25843L105.259 7.75333L106.608 4.83895L104.719 4.17909L103.91 7.25843Z" fill="#DADADA"/>
<path d="M109.791 9.293L110.978 10.0628L112.974 7.58837L111.356 6.4886L109.791 9.293Z" fill="#DADADA"/>
<path d="M115.078 14.132L115.833 15.2867L118.585 13.6921L117.452 12.0424L115.078 14.132Z" fill="#DADADA"/>
<path d="M12.4089 60.1571H12.8944C13.7037 60.1571 14.3511 60.432 14.7827 61.0369C15.2683 61.6418 15.3762 62.3016 15.2143 63.1265L13.7577 70H11.8694L13.326 63.1265C13.38 62.8515 13.326 62.6316 13.1642 62.4116C13.0023 62.1917 12.7865 62.1367 12.5168 62.1367H12.0312C11.3298 62.1367 10.6824 62.3566 10.0889 62.8515C9.49548 63.3464 9.17177 63.8963 9.00992 64.5562L7.87693 69.945H5.93468L7.39137 63.0715C7.44532 62.7965 7.39137 62.5766 7.22951 62.3566C7.06766 62.1367 6.85185 62.0817 6.58209 62.0817H6.09653C5.39516 62.0817 4.74774 62.3016 4.15427 62.7965C3.5608 63.2914 3.2371 63.8413 3.07524 64.5012L1.94226 69.89H0L1.13298 64.5012C1.40274 63.2914 2.05016 62.2466 3.12919 61.3668C4.15427 60.487 5.28726 60.0471 6.52814 60.0471H7.01371C8.14669 60.0471 8.74016 60.597 8.90201 61.7518C9.87314 60.707 11.0601 60.1571 12.4089 60.1571Z" fill="#DADADA"/>
<path d="M29.943 60.1571C30.8602 60.1571 31.6155 60.487 32.1011 61.1469C32.6406 61.8067 32.8024 62.6316 32.5866 63.5664L31.9932 66.5357C31.7774 67.4705 31.2918 68.2954 30.4825 68.9552C29.6733 69.6151 28.81 69.945 27.8929 69.945H24.0623C23.1451 69.945 22.3898 69.6151 21.9042 68.9552C21.3647 68.2954 21.2029 67.4705 21.4187 66.5357L22.0121 63.5664C22.2279 62.6316 22.7135 61.8067 23.5228 61.1469C24.332 60.487 25.1953 60.1571 26.1124 60.1571H29.943ZM25.7348 62.0817C25.3571 62.0817 24.9795 62.2466 24.6018 62.5216C24.2781 62.7965 24.0623 63.1814 23.9544 63.5664L23.3609 66.5357C23.253 66.9206 23.3609 67.3056 23.5767 67.5805C23.7925 67.8554 24.1162 68.0204 24.4939 68.0204H28.3245C28.7021 68.0204 29.0798 67.8554 29.4574 67.5805C29.7812 67.3056 29.997 66.9206 30.1049 66.5357L30.6983 63.5664C30.8062 63.1814 30.6983 62.7965 30.4825 62.5216C30.2667 62.2466 29.943 62.0817 29.5654 62.0817H25.7348Z" fill="#DADADA"/>
<path d="M39.1699 62.0817L39.6015 60.1021H49.097L48.6654 62.0817H44.8348L43.2163 69.945H41.274L42.8926 62.0817H39.1699Z" fill="#DADADA"/>
<path d="M62.529 60.1571C63.4461 60.1571 64.2015 60.487 64.687 61.1469C65.2265 61.8067 65.3884 62.6316 65.1726 63.5664L64.5791 66.5357C64.3633 67.4705 63.8777 68.2954 63.0685 68.9552C62.2592 69.6151 61.396 69.945 60.4788 69.945H56.6482C55.731 69.945 54.9757 69.6151 54.4902 68.9552C53.9506 68.2954 53.7888 67.4705 54.0046 66.5357L54.5981 63.5664C54.8139 62.6316 55.2994 61.8067 56.1087 61.1469C56.918 60.487 57.7812 60.1571 58.6984 60.1571H62.529ZM58.2668 62.0817C57.8891 62.0817 57.5115 62.2466 57.1338 62.5216C56.8101 62.7965 56.5943 63.1814 56.4864 63.5664L55.8929 66.5357C55.785 66.9206 55.8929 67.3056 56.1087 67.5805C56.3245 67.8554 56.6482 68.0204 57.0259 68.0204H60.8565C61.2341 68.0204 61.6118 67.8554 61.9894 67.5805C62.3131 67.3056 62.529 66.9206 62.6369 66.5357L63.2303 63.5664C63.3382 63.1814 63.2303 62.7965 63.0145 62.5216C62.7987 62.2466 62.475 62.0817 62.0973 62.0817H58.2668Z" fill="#DADADA"/>
<path d="M79.6325 70H77.0428L75.3164 67.5255H73.2122L72.6727 70H70.7305L71.8634 64.6111C72.1332 63.4014 72.7806 62.3566 73.8057 61.4768C74.8308 60.597 75.9638 60.1571 77.1507 60.1571H79.2548C80.0641 60.1571 80.6575 60.432 81.1431 61.0369C81.5747 61.6418 81.7366 62.3016 81.5747 63.1265L81.251 64.6111C81.0892 65.436 80.6575 66.0958 79.9562 66.7007C79.3088 67.2506 78.6613 67.5255 77.906 67.5805L79.6325 70ZM76.7191 62.0817C76.0717 62.0817 75.4243 62.3016 74.8847 62.7965C74.2913 63.2914 73.9676 63.8413 73.8057 64.5561L73.5899 65.5459H78.1218C78.3916 65.5459 78.6074 65.436 78.8771 65.271C79.093 65.051 79.2548 64.8311 79.3088 64.5561L79.6325 63.0715C79.6864 62.7965 79.6325 62.5766 79.4706 62.3566C79.3088 62.1367 79.093 62.0817 78.8232 62.0817H76.7191Z" fill="#DADADA"/>
<path d="M98.1919 60.1571L97.7603 62.1367H91.5019C91.2321 62.1367 91.0163 62.2467 90.7466 62.4116C90.5308 62.6316 90.3689 62.8515 90.315 63.1265C90.261 63.3464 90.315 63.5664 90.4229 63.7313C90.5847 63.9513 90.8005 64.0613 91.0703 64.0613H94.9008C95.7101 64.0613 96.3036 64.3362 96.7352 64.9411C97.1668 65.491 97.3287 66.2058 97.1668 67.0306L96.951 68.0204C96.8431 68.5703 96.5734 69.0102 96.0878 69.3951C95.6562 69.78 95.1167 69.945 94.6311 69.945H86.916L87.3476 67.9654H95.0627L95.2785 66.9756C95.3325 66.7007 95.2785 66.4807 95.1167 66.2608C94.9548 66.0958 94.739 65.9859 94.4692 65.9859H90.6387H90.5847C89.8294 65.9309 89.2359 65.6009 88.8043 65.0511C88.3727 64.5012 88.2108 63.8413 88.4267 63.0165C88.5885 62.1917 89.0201 61.5318 89.7215 60.9269C90.4229 60.3771 91.1242 60.0471 91.9335 60.0471H98.1919V60.1571Z" fill="#DADADA"/>
<path d="M112.003 60.1571C112.812 60.1571 113.406 60.432 113.891 61.0369C114.323 61.6418 114.485 62.3016 114.323 63.1265L113.999 64.6111C113.837 65.436 113.406 66.0958 112.704 66.7007C112.003 67.3056 111.248 67.5805 110.492 67.5805H105.96L105.421 70.055H103.479L104.611 64.6661C104.881 63.4564 105.529 62.4116 106.554 61.5318C107.579 60.652 108.712 60.2121 109.899 60.2121H112.003V60.1571ZM109.467 62.0817C108.82 62.0817 108.172 62.3016 107.633 62.7965C107.039 63.2914 106.716 63.8413 106.554 64.5562L106.338 65.5459H110.87C111.14 65.5459 111.355 65.436 111.625 65.271C111.841 65.051 112.003 64.8311 112.057 64.5562L112.381 63.0715C112.434 62.7965 112.381 62.5766 112.219 62.3566C112.057 62.1367 111.841 62.0817 111.571 62.0817H109.467Z" fill="#DADADA"/>
<path d="M128.998 60.1571C129.915 60.1571 130.67 60.487 131.156 61.1469C131.695 61.8067 131.857 62.6316 131.641 63.5664L131.048 66.5357C130.832 67.4705 130.347 68.2954 129.537 68.9552C128.728 69.6151 127.865 69.945 126.948 69.945H123.117C122.2 69.945 121.444 69.6151 120.959 68.9552C120.419 68.2954 120.258 67.4705 120.473 66.5357L121.067 63.5664C121.283 62.6316 121.768 61.8067 122.577 61.1469C123.387 60.487 124.25 60.1571 125.167 60.1571H128.998ZM124.789 62.0817C124.412 62.0817 124.034 62.2466 123.656 62.5216C123.333 62.7965 123.117 63.1814 123.009 63.5664L122.416 66.5357C122.308 66.9206 122.416 67.3056 122.631 67.5805C122.847 67.8554 123.171 68.0204 123.549 68.0204H127.379C127.757 68.0204 128.134 67.8554 128.512 67.5805C128.836 67.3056 129.052 66.9206 129.16 66.5357L129.753 63.5664C129.861 63.1814 129.753 62.7965 129.537 62.5216C129.321 62.2466 128.998 62.0817 128.62 62.0817H124.789Z" fill="#DADADA"/>
<path d="M146.101 70H143.512L141.785 67.5255H139.681L139.141 70H137.199L138.332 64.6111C138.602 63.4014 139.249 62.3566 140.274 61.4768C141.3 60.597 142.433 60.1571 143.619 60.1571H145.724C146.533 60.1571 147.126 60.432 147.612 61.0369C148.043 61.6418 148.205 62.3016 148.043 63.1265L147.72 64.6111C147.558 65.436 147.126 66.0958 146.425 66.7007C145.778 67.2506 145.13 67.5255 144.375 67.5805L146.101 70ZM143.188 62.0817C142.54 62.0817 141.893 62.3016 141.353 62.7965C140.76 63.2914 140.436 63.8413 140.274 64.5561L140.059 65.5459H144.591C144.86 65.5459 145.076 65.436 145.346 65.271C145.562 65.051 145.724 64.8311 145.778 64.5561L146.101 63.0715C146.155 62.7965 146.101 62.5766 145.939 62.3566C145.778 62.1367 145.562 62.0817 145.292 62.0817H143.188Z" fill="#DADADA"/>
<path d="M154.463 62.0817L154.895 60.1021H164.444L164.012 62.0817H160.182L158.563 69.945H156.621L158.239 62.0817H154.463Z" fill="#DADADA"/>
<path d="M179.766 60.1571L179.334 62.1367H173.076C172.806 62.1367 172.591 62.2467 172.321 62.4116C172.105 62.6316 171.943 62.8515 171.889 63.1265C171.835 63.3464 171.889 63.5664 171.997 63.7313C172.159 63.9513 172.375 64.0613 172.645 64.0613H176.475C177.284 64.0613 177.878 64.3362 178.309 64.9411C178.741 65.491 178.903 66.2058 178.741 67.0306L178.525 68.0204C178.417 68.5703 178.148 69.0102 177.662 69.3951C177.23 69.78 176.691 69.945 176.205 69.945H168.49L168.922 67.9654H176.637L176.853 66.9756C176.907 66.7007 176.853 66.4807 176.691 66.2608C176.529 66.0958 176.313 65.9859 176.043 65.9859H172.213H172.159C171.404 65.9309 170.81 65.6009 170.379 65.0511C169.947 64.5012 169.785 63.8413 170.001 63.0165C170.163 62.1917 170.594 61.5318 171.296 60.9269C171.997 60.3771 172.698 60.0471 173.508 60.0471H179.766V60.1571Z" fill="#DADADA"/>
</svg>
