<svg width="208" height="65" viewBox="0 0 208 65" fill="none" xmlns="http://www.w3.org/2000/svg">
<g clip-path="url(#clip0)">
<path d="M58.7232 30.0038C58.5314 29.808 58.4355 29.5633 58.4355 29.3185V3.37726C58.4355 3.08359 58.5314 2.83886 58.7232 2.69202C58.9149 2.49624 59.1546 2.39835 59.3943 2.39835H63.8525C64.1401 2.39835 64.3798 2.49624 64.5236 2.69202C64.7153 2.8878 64.8112 3.13253 64.8112 3.37726V16.5437L70.1802 10.5233C70.2281 10.4744 70.324 10.3765 70.4678 10.2297C70.6116 10.0828 70.7554 9.98494 70.8992 9.936C71.0431 9.88705 71.2348 9.8381 71.4266 9.8381H76.6038C76.8435 9.8381 77.0352 9.936 77.179 10.0828C77.3228 10.2297 77.4187 10.4744 77.4187 10.6702C77.4187 10.9639 77.3228 11.1596 77.1311 11.3554L70.1802 18.991L78.0898 28.7801C78.2816 28.9759 78.3775 29.1717 78.3775 29.3675C78.3775 29.6122 78.2816 29.8569 78.1378 30.0038C77.994 30.1506 77.7543 30.2485 77.5146 30.2485H72.2415C71.9059 30.2485 71.6662 30.1995 71.4745 30.1017C71.3307 30.0038 71.091 29.808 70.8992 29.6122L64.8112 22.1235V29.2696C64.8112 29.5143 64.7153 29.759 64.5236 29.9548C64.3318 30.1506 64.0921 30.2485 63.8525 30.2485H59.4422C59.1546 30.2974 58.9629 30.1995 58.7232 30.0038Z" fill="#DADADA"/>
<path d="M81.3977 28.3886C79.672 26.8223 78.7612 24.6687 78.5694 21.8788C78.5215 21.5361 78.5215 20.9488 78.5215 20.1167C78.5215 19.2846 78.5215 18.6973 78.5694 18.3547C78.7132 15.5648 79.672 13.4111 81.4457 11.8449C83.2193 10.2786 85.6641 9.49548 88.7321 9.49548C91.8481 9.49548 94.2929 10.2786 96.0665 11.8449C97.8402 13.4111 98.799 15.5648 98.9428 18.3547C98.9907 18.6973 98.9907 19.2846 98.9907 20.1167C98.9907 20.9488 98.9907 21.5361 98.9428 21.8788C98.799 24.6687 97.8402 26.8712 96.1145 28.3886C94.3887 29.9548 91.9439 30.689 88.7321 30.689C85.5683 30.689 83.1235 29.9548 81.3977 28.3886ZM91.2728 24.8645C91.8001 24.1792 92.1357 23.1024 92.1836 21.683C92.2316 21.4383 92.2316 20.8999 92.2316 20.1167C92.2316 19.3336 92.2316 18.7952 92.1836 18.5505C92.0877 17.131 91.8001 16.0542 91.2249 15.369C90.6496 14.6837 89.8347 14.2922 88.7321 14.2922C86.6229 14.2922 85.4724 15.7116 85.3286 18.5505L85.2806 20.1167L85.3286 21.683C85.3765 23.1024 85.6641 24.1792 86.2394 24.8645C86.8146 25.5497 87.6296 25.8923 88.7321 25.8923C89.8826 25.9413 90.7455 25.5497 91.2728 24.8645Z" fill="#DADADA"/>
<path d="M102.298 30.0527C102.107 29.8569 102.011 29.6122 102.011 29.3675V10.866C102.011 10.5723 102.107 10.3276 102.298 10.1807C102.49 9.98494 102.73 9.88705 102.969 9.88705H107.14C107.428 9.88705 107.667 9.98494 107.811 10.1807C108.003 10.3765 108.099 10.6212 108.099 10.866V12.1875C108.674 11.4044 109.489 10.7681 110.448 10.2297C111.454 9.74021 112.557 9.44653 113.755 9.44653C116.584 9.44653 118.549 10.5723 119.604 12.8238C120.227 11.8449 121.09 11.0128 122.192 10.3765C123.295 9.74021 124.493 9.44653 125.74 9.44653C127.849 9.44653 129.575 10.1807 130.869 11.6491C132.211 13.1175 132.834 15.2711 132.834 18.1589V29.3185C132.834 29.5633 132.739 29.808 132.547 30.0038C132.355 30.1995 132.115 30.2974 131.876 30.2974H127.513C127.226 30.2974 126.986 30.1995 126.794 30.0038C126.603 29.808 126.507 29.5633 126.507 29.3185V18.4526C126.507 17.131 126.267 16.2011 125.74 15.6137C125.212 15.0264 124.493 14.7327 123.583 14.7327C122.768 14.7327 122.096 15.0264 121.521 15.6137C120.994 16.2011 120.706 17.131 120.706 18.4036V29.2696C120.706 29.5143 120.61 29.759 120.419 29.9548C120.227 30.1506 119.987 30.2485 119.748 30.2485H115.289C115.002 30.2485 114.762 30.1506 114.618 29.9548C114.427 29.759 114.331 29.5143 114.331 29.2696V18.4526C114.331 17.18 114.043 16.25 113.516 15.6626C112.94 15.0753 112.269 14.7816 111.406 14.7816C110.592 14.7816 109.92 15.0753 109.345 15.6626C108.77 16.25 108.53 17.18 108.53 18.4526V29.3675C108.53 29.6122 108.434 29.8569 108.243 30.0527C108.051 30.2485 107.811 30.3464 107.571 30.3464H102.969C102.73 30.2974 102.49 30.2485 102.298 30.0527Z" fill="#DADADA"/>
<path d="M138.827 30.0038C138.635 29.808 138.539 29.5633 138.539 29.3185V15.0264H135.615C135.327 15.0264 135.088 14.9285 134.944 14.7327C134.752 14.5369 134.656 14.2922 134.656 14.0474V10.866C134.656 10.5723 134.752 10.3276 134.944 10.1807C135.136 9.98494 135.375 9.88705 135.615 9.88705H138.539V8.61446C138.539 6.02034 139.258 4.1604 140.696 2.9857C142.134 1.811 144.244 1.22365 146.928 1.22365H149.948C150.236 1.22365 150.476 1.32154 150.619 1.51732C150.811 1.71311 150.907 1.95783 150.907 2.20256V5.38404C150.907 5.62877 150.811 5.8735 150.619 6.06928C150.428 6.26506 150.188 6.36296 149.948 6.36296H147.264C146.401 6.36296 145.826 6.55874 145.442 6.9503C145.059 7.34187 144.915 7.97817 144.915 8.7613V9.83811H149.565C149.852 9.83811 150.092 9.936 150.236 10.1318C150.428 10.3276 150.524 10.5723 150.524 10.817V13.9985C150.524 14.2432 150.428 14.488 150.236 14.6837C150.044 14.8795 149.804 14.9774 149.565 14.9774H144.915V29.2696C144.915 29.5143 144.819 29.759 144.627 29.9548C144.435 30.1506 144.196 30.2485 143.956 30.2485H139.498C139.258 30.2974 139.019 30.1996 138.827 30.0038Z" fill="#DADADA"/>
<path d="M154.359 28.3886C152.633 26.8223 151.722 24.6687 151.53 21.8788C151.482 21.5361 151.482 20.9488 151.482 20.1167C151.482 19.2846 151.482 18.6973 151.53 18.3547C151.674 15.5648 152.633 13.4111 154.407 11.8449C156.18 10.2786 158.577 9.49548 161.693 9.49548C164.809 9.49548 167.254 10.2786 169.027 11.8449C170.801 13.4111 171.76 15.5648 171.904 18.3547C171.952 18.6973 171.952 19.2846 171.952 20.1167C171.952 20.9488 171.952 21.5361 171.904 21.8788C171.76 24.6687 170.801 26.8712 169.075 28.3886C167.35 29.9548 164.905 30.689 161.693 30.689C158.529 30.689 156.084 29.9548 154.359 28.3886ZM164.234 24.8645C164.761 24.1792 165.097 23.1024 165.145 21.683C165.192 21.4383 165.192 20.8999 165.192 20.1167C165.192 19.3336 165.192 18.7952 165.145 18.5505C165.049 17.131 164.761 16.0542 164.186 15.369C163.611 14.6837 162.796 14.2922 161.693 14.2922C159.584 14.2922 158.433 15.7116 158.29 18.5505L158.242 20.1167L158.29 21.683C158.337 23.1024 158.625 24.1792 159.2 24.8645C159.776 25.5497 160.59 25.8923 161.693 25.8923C162.844 25.9413 163.706 25.5497 164.234 24.8645Z" fill="#DADADA"/>
<path d="M174.492 30.0527C174.3 29.8569 174.204 29.6122 174.204 29.3675V10.866C174.204 10.5723 174.3 10.3276 174.492 10.1807C174.683 9.98495 174.923 9.88705 175.163 9.88705H179.573C179.861 9.88705 180.1 9.98495 180.292 10.1807C180.484 10.3765 180.58 10.6212 180.58 10.866V12.4322C181.97 10.7191 183.887 9.88705 186.284 9.88705H187.962C188.25 9.88705 188.489 9.98495 188.633 10.1807C188.825 10.3765 188.921 10.6212 188.921 10.866V14.9285C188.921 15.1732 188.825 15.4179 188.633 15.6137C188.441 15.8095 188.202 15.9074 187.962 15.9074H184.223C183.168 15.9074 182.353 16.2011 181.778 16.7884C181.203 17.3758 180.915 18.2078 180.915 19.2846V29.3675C180.915 29.6612 180.819 29.9059 180.628 30.0527C180.436 30.2485 180.196 30.3464 179.909 30.3464H175.115C174.875 30.2974 174.636 30.2485 174.492 30.0527Z" fill="#DADADA"/>
<path d="M195.537 22.564V15.0264H192.516C192.229 15.0264 191.989 14.9285 191.797 14.7327C191.606 14.5369 191.51 14.2922 191.51 14.0474V10.866C191.51 10.5723 191.606 10.3276 191.797 10.1807C191.989 9.98494 192.229 9.88705 192.516 9.88705H195.537V3.37726C195.537 3.08359 195.632 2.83886 195.824 2.69202C196.016 2.54518 196.256 2.39835 196.495 2.39835H200.953C201.241 2.39835 201.481 2.49624 201.625 2.69202C201.816 2.8878 201.912 3.13253 201.912 3.37726V9.83811H206.706C206.994 9.83811 207.233 9.936 207.425 10.1318C207.617 10.3276 207.713 10.5723 207.713 10.817V13.9985C207.713 14.2922 207.617 14.5369 207.425 14.6837C207.233 14.8795 206.994 14.9774 206.706 14.9774H201.912V22.0256C201.912 23.9834 202.631 24.9134 204.117 24.9134H207.089C207.377 24.9134 207.617 25.0113 207.761 25.2071C207.952 25.4029 208.048 25.6476 208.048 25.8923V29.3185C208.048 29.5633 207.952 29.808 207.761 30.0038C207.569 30.1995 207.329 30.2974 207.089 30.2974H203.494C198.173 30.2974 195.537 27.7523 195.537 22.564Z" fill="#DADADA"/>
<path d="M62.0306 58.5881C61.0239 58.0986 60.3049 57.5602 59.8255 56.9729C59.3461 56.3366 59.1064 55.8471 59.1064 55.4556C59.1064 55.2598 59.2023 55.064 59.3461 54.9661C59.4899 54.8682 59.6817 54.7703 59.8255 54.7703H61.2157C61.4074 54.7703 61.5992 54.8682 61.7909 55.064C62.2703 55.6514 62.8456 56.1408 63.4208 56.4834C63.9961 56.8261 64.763 56.9729 65.7697 56.9729C66.8243 56.9729 67.7352 56.7771 68.4063 56.3366C69.0774 55.8961 69.413 55.3087 69.413 54.5256C69.413 54.0361 69.2691 53.5956 68.9815 53.253C68.6939 52.9104 68.2145 52.6167 67.5434 52.4209C66.8723 52.1762 65.8656 51.9315 64.5234 51.5889C62.7017 51.1973 61.4554 50.6099 60.6884 49.8268C59.9214 49.0437 59.5379 48.0648 59.5379 46.8901C59.5379 46.1069 59.7776 45.3238 60.2569 44.5896C60.7363 43.8554 61.4074 43.2681 62.3182 42.8276C63.2291 42.387 64.2837 42.1423 65.578 42.1423C66.9202 42.1423 68.0228 42.387 68.9815 42.8276C69.8923 43.2681 70.6114 43.8065 71.0908 44.3938C71.5701 44.9812 71.8098 45.5196 71.8098 45.9111C71.8098 46.1069 71.7619 46.2538 71.6181 46.4006C71.4743 46.5474 71.3305 46.5964 71.1387 46.5964H69.8444C69.6047 46.5964 69.365 46.4985 69.2212 46.3027C68.8857 45.9111 68.598 45.5685 68.3583 45.3727C68.1187 45.128 67.7831 44.9322 67.3517 44.7854C66.9202 44.6386 66.345 44.5407 65.6739 44.5407C64.6672 44.5407 63.9002 44.7364 63.3729 45.177C62.8456 45.6175 62.5579 46.1559 62.5579 46.8901C62.5579 47.3306 62.6538 47.7221 62.8935 48.0158C63.1332 48.3095 63.5646 48.6032 64.2357 48.8479C64.9069 49.0926 65.8177 49.3863 67.064 49.631C69.0295 50.0715 70.4196 50.6589 71.2346 51.442C72.0495 52.2252 72.4809 53.253 72.4809 54.4767C72.4809 55.4066 72.2413 56.1898 71.714 56.9729C71.1866 57.7071 70.4196 58.2944 69.413 58.7349C68.4063 59.1755 67.2078 59.3712 65.8177 59.3712C64.2357 59.3223 62.9894 59.0776 62.0306 58.5881Z" fill="#DADADA"/>
<path d="M74.8783 58.7839C74.7345 58.6371 74.6865 58.4902 74.6865 58.2455V37.1988C74.6865 37.003 74.7345 36.8072 74.8783 36.6604C75.0221 36.5136 75.1659 36.4646 75.4056 36.4646H76.9396C77.1313 36.4646 77.3231 36.5136 77.4669 36.6604C77.6107 36.8072 77.6586 36.9541 77.6586 37.1988V44.5896C78.2818 43.8065 78.9529 43.2191 79.7679 42.7786C80.5828 42.3381 81.5895 42.1423 82.7879 42.1423C84.7534 42.1423 86.3353 42.7786 87.4378 44.1002C88.5404 45.4217 89.1157 47.1348 89.1157 49.2884V58.2455C89.1157 58.4413 89.0677 58.6371 88.9239 58.7839C88.7801 58.9307 88.6363 58.9797 88.3966 58.9797H86.8626C86.6709 58.9797 86.4791 58.9307 86.3353 58.7839C86.1915 58.6371 86.1435 58.4902 86.1435 58.2455V49.4842C86.1435 47.9669 85.808 46.8411 85.0889 46.009C84.3699 45.177 83.3632 44.7854 82.0209 44.7854C80.7266 44.7854 79.672 45.2259 78.905 46.058C78.138 46.8901 77.7545 48.0648 77.7545 49.5331V58.2455C77.7545 58.4413 77.7066 58.6371 77.5628 58.7839C77.419 58.9307 77.2751 58.9797 77.0354 58.9797H75.5015C75.1659 58.9797 75.0221 58.9307 74.8783 58.7839Z" fill="#DADADA"/>
<path d="M93.6209 57.3155C92.3745 55.994 91.7034 54.2809 91.6075 52.0783L91.5596 50.7078L91.6075 49.3374C91.7034 47.1837 92.3745 45.4217 93.6209 44.1002C94.8672 42.7786 96.6409 42.1423 98.894 42.1423C101.147 42.1423 102.921 42.7786 104.167 44.1002C105.413 45.4217 106.085 47.1348 106.18 49.3374C106.18 49.5821 106.228 50.0226 106.228 50.7078C106.228 51.3931 106.228 51.8336 106.18 52.0783C106.085 54.2319 105.413 55.994 104.167 57.3155C102.921 58.6371 101.147 59.2733 98.894 59.2733C96.6409 59.3223 94.8672 58.6371 93.6209 57.3155ZM102.01 55.6024C102.777 54.7703 103.16 53.5467 103.256 51.9804C103.256 51.7846 103.304 51.3441 103.304 50.7568C103.304 50.1694 103.304 49.7779 103.256 49.5331C103.208 47.9669 102.777 46.7432 102.01 45.9111C101.243 45.0791 100.236 44.6386 98.9419 44.6386C97.6476 44.6386 96.593 45.0791 95.826 45.9111C95.059 46.7432 94.6755 47.9669 94.6276 49.5331L94.5796 50.7568L94.6276 51.9804C94.6755 53.5467 95.059 54.7703 95.826 55.6024C96.593 56.4345 97.6476 56.875 98.9419 56.875C100.188 56.875 101.243 56.4345 102.01 55.6024Z" fill="#DADADA"/>
<path d="M109.057 64.8042C108.913 64.6574 108.865 64.5106 108.865 64.2658V43.2191C108.865 43.0233 108.913 42.8276 109.057 42.6807C109.201 42.5339 109.345 42.4849 109.584 42.4849H111.022C111.214 42.4849 111.406 42.5339 111.55 42.6807C111.694 42.8276 111.741 42.9744 111.741 43.2191V44.5896C112.892 42.9744 114.618 42.1423 116.823 42.1423C118.98 42.1423 120.61 42.8276 121.712 44.247C122.815 45.6175 123.39 47.4285 123.486 49.631C123.486 49.8758 123.534 50.2184 123.534 50.7078C123.534 51.1973 123.534 51.5399 123.486 51.7846C123.39 53.9383 122.815 55.7493 121.712 57.1687C120.61 58.5881 118.98 59.2734 116.823 59.2734C114.666 59.2734 112.988 58.4902 111.789 56.875V64.2169C111.789 64.4127 111.741 64.6084 111.598 64.7553C111.454 64.9021 111.31 64.9511 111.118 64.9511H109.584C109.393 65 109.201 64.9511 109.057 64.8042ZM119.364 55.3577C120.035 54.4277 120.418 53.2041 120.466 51.6868C120.466 51.491 120.514 51.1483 120.514 50.7568C120.514 46.7432 119.076 44.7854 116.152 44.7854C114.714 44.7854 113.659 45.2749 112.94 46.2048C112.221 47.1837 111.837 48.3095 111.789 49.631L111.741 50.8547L111.789 52.0783C111.837 53.302 112.221 54.4277 112.988 55.3577C113.755 56.2877 114.809 56.7771 116.2 56.7771C117.638 56.7282 118.692 56.2877 119.364 55.3577Z" fill="#DADADA"/>
<path d="M3.11593 0.0489502C1.39018 0.0489502 0 1.46838 0 3.23043L0.0479373 54.9172C0.0479373 56.6792 1.43812 58.0986 3.16386 58.0986L3.11593 0.0489502Z" fill="#DADADA"/>
<path d="M3.16406 35.5836L22.0993 58.0986H3.16406V35.5836Z" fill="#DADADA"/>
<path d="M28.4271 0L3.16415 29.3185L3.11621 0.0489458L28.4271 0Z" fill="#DADADA"/>
<path d="M40.2191 0H36.2883H32.3574V12.0896L36.2883 9.20181L40.2191 12.0896V0Z" fill="#DADADA"/>
<path d="M43.767 0H40.2196C40.2196 0.0489458 40.2196 0.0489458 40.2196 0.0978916V12.0896L36.2888 9.15286L32.3579 12.0896V0H29.6734V8.46762L9.15625 32.0595L30.9198 58.0986H43.767V0Z" fill="#DADADA"/>
</g>
<defs>
<clipPath id="clip0">
<rect width="208" height="65" fill="white"/>
</clipPath>
</defs>
</svg>
