<svg width="206" height="31" viewBox="0 0 206 31" fill="none" xmlns="http://www.w3.org/2000/svg">
<path d="M4.84587 3.98681V13.0728H15.9004V16.8081H4.84587V26.1465H17.1624V30.0838H0V0.0495949H17.1624V3.98681H4.84587Z" fill="#DADADA"/>
<path d="M30.5881 26.2988H40.9864V30.0846H25.7422V0.0504608H30.5881V26.2988Z" fill="#DADADA"/>
<path d="M53.4552 3.98768V13.0736H64.5098V16.809H53.4552V26.1474H65.7718V30.0846H48.6094V0.0504608H65.7718V3.98768H53.4552Z" fill="#DADADA"/>
<path d="M77.3822 0.0504608L86.0139 24.8854L94.696 0.0504608H99.9457L89.093 30.0846H82.8842L72.082 0.0504608H77.3822Z" fill="#DADADA"/>
<path d="M206 0.0504608V30.0846H201.154V0.0504608H206Z" fill="#DADADA"/>
<path d="M107.416 30.0846H124.578V26.1474H112.262V16.809H123.316V13.0736H112.262V3.98768H124.578V0.0504608H107.416V30.0846Z" fill="#DADADA"/>
<path d="M133.158 0.100937V30.0846H138.004V7.92496L150.321 26.6521V18.9291L138.004 0.100937H133.158Z" fill="#DADADA"/>
<path d="M157.44 0.100937H150.322H148.404V4.34107H150.322H152.594H152.644V28.1665V30.0846H157.44V0.100937Z" fill="#DADADA"/>
<path d="M191.058 17.2129C189.948 15.85 188.484 14.9919 186.667 14.6385C188.282 14.2347 189.595 13.4775 190.604 12.266C191.614 11.105 192.068 9.54025 192.068 7.67258C192.068 5.30013 191.26 3.48294 189.645 2.12004C188.03 0.757146 185.758 0.100937 182.73 0.100937H178.136V4.03821H181.67C183.487 4.03821 184.85 4.44198 185.708 5.24963C186.616 6.05727 187.071 7.1173 187.071 8.53067C187.071 9.94404 186.616 11.0546 185.708 11.8622C184.799 12.6699 183.537 13.0737 181.821 13.0737H178.086V16.6071H181.871C183.739 16.6071 185.152 17.0109 186.162 17.869C187.172 18.7271 187.676 19.8881 187.676 21.4025C187.676 22.9168 187.172 24.0778 186.162 24.9359C185.152 25.794 183.739 26.1978 181.871 26.1978H178.035V30.1856H182.881C186.061 30.1856 188.484 29.4789 190.15 28.0151C191.816 26.5512 192.674 24.5826 192.674 22.0587C192.724 20.191 192.169 18.5757 191.058 17.2129Z" fill="#DADADA"/>
<path d="M175.815 0H168.697H166.779V4.29059H168.697H171.019V30.0846H175.865V26.0969V16.5566V13.0232V4.03821V0.0504653H175.815V0Z" fill="#DADADA"/>
</svg>
