<svg viewBox="0 0 236 66" fill="none" xmlns="http://www.w3.org/2000/svg">
<path d="M89.0182 46.8149C85.1894 46.8149 82.1051 45.6542 79.659 43.2272C77.2129 40.8003 76.043 37.6347 76.043 33.625V32.8863C76.043 30.2483 76.5747 27.8214 77.6383 25.711C78.7018 23.6006 80.0844 22.0178 81.9988 20.7516C83.9132 19.4854 85.9339 18.9578 88.2737 18.9578C91.9961 18.9578 94.7613 20.1185 96.782 22.4399C98.8028 24.7613 99.76 28.0324 99.76 32.3587V34.7857H82.1052C82.3179 37.0016 83.0624 38.7954 84.3386 40.0617C85.6149 41.3279 87.3165 41.961 89.2309 41.961C91.9961 41.961 94.2295 40.8003 96.0376 38.5844L99.3345 41.6445C98.271 43.2272 96.782 44.4935 94.974 45.3376C93.166 46.1818 91.2516 46.8149 89.0182 46.8149ZM88.2737 23.9172C86.572 23.9172 85.2958 24.4448 84.2323 25.6055C83.1687 26.7662 82.5306 28.349 82.3179 30.4594H93.9105V30.0373C93.8041 28.0324 93.2724 26.5552 92.3152 25.5C91.358 24.4448 89.9754 23.9172 88.2737 23.9172Z" fill="white"/>
<path d="M114.224 38.6898L119.967 19.5908H126.242L116.883 46.3928H111.672L102.206 19.5908H108.481L114.224 38.6898Z" fill="white"/>
<path d="M141.983 46.8149C138.154 46.8149 135.07 45.6542 132.624 43.2272C130.178 40.8003 129.008 37.6347 129.008 33.625V32.8863C129.008 30.2483 129.54 27.8214 130.603 25.711C131.667 23.6006 133.049 22.0178 134.964 20.7516C136.878 19.4854 138.899 18.9578 141.239 18.9578C144.961 18.9578 147.726 20.1185 149.747 22.4399C151.768 24.7613 152.725 28.0324 152.725 32.3587V34.7857H135.176C135.389 37.0016 136.134 38.7954 137.41 40.0617C138.686 41.3279 140.388 41.961 142.302 41.961C145.067 41.961 147.301 40.8003 149.109 38.5844L152.406 41.6445C151.342 43.2272 149.853 44.4935 148.045 45.3376C146.237 46.1818 144.216 46.8149 141.983 46.8149ZM141.239 23.9172C139.537 23.9172 138.261 24.4448 137.197 25.6055C136.134 26.7662 135.495 28.349 135.283 30.4594H146.875V30.0373C146.769 28.0324 146.237 26.5552 145.28 25.5C144.323 24.4448 142.94 23.9172 141.239 23.9172Z" fill="white"/>
<path d="M163.679 19.5908L163.892 22.6509C165.912 20.2239 168.465 19.0632 171.762 19.0632C177.399 19.0632 180.27 22.2288 180.376 28.6655V46.3928H174.314V28.9821C174.314 27.2938 173.995 26.0275 173.251 25.1834C172.506 24.3392 171.336 23.9171 169.635 23.9171C167.189 23.9171 165.381 24.9723 164.211 27.1882V46.1817H158.148V19.5908H163.679Z" fill="white"/>
<path d="M196.649 28.3489L201.754 19.5908H208.454L200.158 32.7808L208.667 46.3928H201.966L196.542 37.2126L191.225 46.3928H184.524L193.033 32.7808L184.843 19.5908H191.544L196.649 28.3489Z" fill="white"/>
<path d="M211.007 32.6752C211.007 30.0373 211.539 27.7158 212.602 25.6054C213.666 23.4951 215.155 21.9123 216.963 20.7515C218.771 19.5908 221.004 19.0632 223.45 19.0632C227.066 19.0632 230.044 20.2239 232.278 22.5454C234.511 24.8668 235.787 27.9269 236 31.8311V33.2028C236 35.8408 235.468 38.1623 234.511 40.2726C233.554 42.383 232.065 43.9658 230.151 45.1265C228.236 46.2873 226.003 46.8149 223.557 46.8149C219.728 46.8149 216.75 45.5486 214.41 43.0162C212.07 40.4837 211.007 37.1071 211.007 32.9918V32.6752ZM217.069 33.2028C217.069 35.9464 217.601 38.1623 218.771 39.6395C219.941 41.1168 221.536 41.961 223.557 41.961C225.577 41.961 227.173 41.1168 228.343 39.534C229.512 37.9512 230.044 35.6298 230.044 32.5697C230.044 29.8262 229.406 27.7158 228.236 26.133C227.066 24.5502 225.471 23.7061 223.45 23.7061C221.43 23.7061 219.941 24.4447 218.771 26.0275C217.601 27.6103 217.069 30.1428 217.069 33.2028Z" fill="white"/>
<path d="M64.2382 36.6285C64.2382 37.5781 64.1319 38.7389 64.0255 39.8996C63.9191 40.5327 63.8128 41.0603 63.7064 41.7989C63.6001 42.1155 63.6001 42.432 63.4937 42.7486C63.3874 43.0652 63.281 43.3817 63.1747 43.8038C63.0683 44.4369 62.8556 44.9645 62.6429 45.5976C62.5365 45.7031 62.4302 45.9142 62.3238 46.0197C61.8984 46.5473 61.3667 46.9694 60.9412 47.497C60.7285 47.708 60.4095 48.0246 60.1967 48.2356C59.8777 48.4467 59.665 48.6577 59.3459 48.8687C57.1125 50.7681 54.56 52.3509 51.582 53.5116C48.7105 54.6723 45.5199 55.3054 42.2229 55.3054C41.7975 55.3054 41.372 55.3054 40.9466 55.3054H40.5212H40.4148H40.2022H39.7767C39.2449 55.1999 38.7132 55.1999 38.1814 55.1999C37.9687 55.1999 37.6496 55.1999 37.4369 55.0944L36.9052 54.9889C36.1607 54.7778 35.5226 54.7778 34.7781 54.4613L33.6082 54.1447C33.1828 54.0392 32.8637 53.8281 32.4383 53.7226C32.3319 53.7226 32.2256 53.6171 32.2256 53.6171C32.4383 53.6171 32.5446 53.6171 32.7574 53.7226C33.2891 53.8281 33.8209 53.8281 34.2463 53.8281H34.6717H34.8844H34.9908H35.4162C35.8416 53.8281 36.267 53.8281 36.5861 53.8281C39.7767 53.8281 42.861 53.195 45.6262 52.1398C48.4978 51.0846 50.9439 49.5018 53.071 47.708C53.3901 47.497 53.6028 47.2859 53.9218 47.0749C54.1346 46.8639 54.4536 46.5473 54.6663 46.3363C55.0917 45.8087 55.6235 45.3866 56.0489 44.859C56.4743 44.3314 56.8997 43.9093 57.3252 43.3817C57.7506 42.8541 58.0696 42.3265 58.3887 41.9044C58.6014 41.6934 58.7078 41.3768 58.9205 41.1658C59.0268 40.9548 59.2396 40.6382 59.3459 40.4272C59.665 39.8996 59.8777 39.4775 60.1967 39.0554C60.7285 38.1057 61.0476 37.2616 61.473 36.4174C61.7921 35.5733 62.1111 34.8346 62.3238 34.2015C62.6429 33.5684 62.7492 32.9353 62.8556 32.4077C63.1747 31.458 63.281 30.9304 63.281 30.9304C63.281 30.9304 63.3874 31.458 63.6001 32.5132C63.7064 33.0408 63.8128 33.5684 63.9191 34.4126C64.2382 34.7291 64.2382 35.6788 64.2382 36.6285Z" fill="url(#paint0_linear)"/>
<path d="M56.5801 27.5538C56.4737 28.398 56.3674 29.2421 56.1547 29.9808C55.942 30.7194 55.7292 31.5636 55.5165 32.1967C54.453 35.0457 52.964 37.4727 51.156 39.2665C49.5607 40.8493 47.9654 42.01 46.4764 42.9597C47.0082 42.5376 47.54 42.01 48.1781 41.3769C49.9861 39.4775 51.5814 37.0506 52.645 34.096C52.8577 33.3574 53.0704 32.5133 53.2831 31.7746C53.4958 30.9305 53.6021 30.0863 53.7085 29.2421C53.7085 28.398 53.8148 27.5538 53.7085 26.6042C53.7085 26.0766 53.6021 25.549 53.6021 25.1269C53.4958 24.7048 53.4958 24.0717 53.3894 23.7551L53.1767 22.8055L53.0704 22.2779L52.8577 21.6447L52.7513 21.3282C52.4322 20.484 52.1132 19.5344 51.6878 18.6902L51.0496 17.424C50.8369 17.0019 50.5179 16.5798 50.3052 16.1577C49.9861 15.7357 49.7734 15.3136 49.4543 14.997L48.4971 13.8363C47.2209 12.359 45.7319 11.0928 44.1366 10.0376C43.2858 9.51 42.5413 8.9824 41.6905 8.56033C40.8396 8.13825 39.9888 7.71617 39.0316 7.39961C35.4156 6.13338 31.6932 5.7113 28.0771 6.02786C27.2263 6.02786 26.2691 6.2389 25.4183 6.34442C24.9929 6.44994 24.4611 6.55546 24.0357 6.66098L23.5039 6.76649L23.6103 6.66098H23.7166H23.823H23.9293L24.142 6.55546L24.7802 6.2389L24.9929 6.13338L25.4183 5.92234C25.5246 5.81682 25.8437 5.81682 26.0564 5.7113L27.439 5.39474C27.8644 5.28922 28.3962 5.1837 28.8216 5.07818C29.6725 4.97266 30.5233 4.76162 31.3741 4.76162C34.8838 4.44507 38.6062 4.86714 42.1159 6.13338C42.9667 6.44994 43.8176 6.87201 44.6684 7.18857C45.5192 7.61065 46.2637 8.13825 47.1146 8.56033C48.7099 9.61552 50.0925 10.8818 51.3687 12.2535L52.3259 13.3087C52.645 13.6253 52.8577 14.0473 53.1767 14.4694C53.3894 14.8915 53.7085 15.2081 53.9212 15.6301L54.5593 16.8964C54.9848 17.7405 55.3038 18.5847 55.6229 19.4288L55.7292 19.7454L55.9419 20.3785L56.0483 20.8006L56.261 21.7503C56.3673 21.9613 56.3674 22.5944 56.4737 23.0165C56.5801 23.5441 56.5801 23.9662 56.5801 24.4938C56.6864 25.8655 56.6864 26.7097 56.5801 27.5538Z" fill="url(#paint1_linear)"/>
<path d="M53.7087 29.3476C53.6023 30.1917 53.496 31.0359 53.2833 31.8801C53.0706 32.6187 52.8579 33.4629 52.6452 34.2015C51.5816 37.156 49.9863 39.583 48.1783 41.4823C47.6465 42.0099 47.1148 42.5375 46.4766 43.0651C46.583 42.8541 46.6893 42.7486 46.7957 42.5375C47.7529 41.0603 48.4974 39.4775 49.1355 37.6836C49.7736 35.8898 50.0927 33.9904 50.0927 32.0911C50.0927 31.669 49.9863 31.1414 49.9863 30.7193C49.8799 30.2973 49.88 29.7697 49.7736 29.3476C49.6673 28.9255 49.5609 28.3979 49.4545 28.0814C49.3482 27.9758 49.3482 27.7648 49.2418 27.6593C49.1355 27.4482 49.2418 27.4482 49.0291 27.0262L48.6037 25.971L48.391 25.5489C48.391 25.6544 48.391 25.6544 48.391 25.7599L48.2846 25.6544L48.1783 25.5489C47.9656 25.1268 47.7529 24.8103 47.4338 24.4937L47.0084 23.9661C46.902 23.7551 46.6893 23.6495 46.583 23.4385C46.4766 23.2275 46.3703 23.1219 46.1575 22.9109L45.6258 22.4888C45.3067 22.1723 44.8813 21.9612 44.5622 21.6447C44.2432 21.3281 43.8178 21.1171 43.3924 20.906C42.9669 20.695 42.5415 20.484 42.1161 20.2729C41.6907 20.0619 41.2653 19.8508 40.7335 19.7453C38.9255 19.1122 36.9047 18.6901 34.7777 18.6901H34.6713C34.1395 18.5846 33.6078 18.6901 33.076 18.6901C32.7569 18.6901 32.5442 18.6901 32.3315 18.6901L31.6934 18.7956C31.587 18.7956 31.4807 18.7956 31.3743 18.7956L30.8425 18.9012L29.779 19.1122L29.5663 19.2177H29.46L29.8854 19.0067L29.1409 19.2177C27.3328 19.7453 25.7376 20.3784 24.1422 21.2226C22.1215 22.3833 20.3135 23.7551 18.8245 25.3379C17.5483 26.7096 16.5911 28.1869 15.7403 29.6642C14.8894 31.1414 14.464 32.6187 14.1449 33.8849C13.8259 35.0456 13.6132 36.2064 13.6132 36.945C13.6132 37.156 13.6132 37.2616 13.6132 37.4726C13.5068 37.0505 13.2941 36.6284 13.1877 36.2064C13.1877 36.2064 13.1877 36.2064 13.1877 36.1008C13.0814 35.8898 12.975 35.5732 12.975 35.2567C12.8687 34.7291 12.7623 34.307 12.656 33.7794L12.5496 33.1463L12.4433 32.5132L12.3369 31.3525V31.0359V30.9304V30.8249V30.1917C12.3369 29.6642 12.3369 29.2421 12.3369 28.7145C12.3369 28.5034 12.3369 28.1869 12.3369 27.9758V27.4482C12.3369 27.1317 12.3369 26.7096 12.3369 26.393C12.3369 26.182 12.3369 26.0765 12.3369 25.8654L12.4433 25.3379C12.5496 24.9158 12.5496 24.5992 12.656 24.1771C12.656 23.7551 12.7623 23.4385 12.8687 23.0164C12.975 22.5943 13.0814 22.2778 13.0814 21.8557C13.1878 21.4336 13.2941 21.1171 13.4005 20.8005C13.5068 20.484 13.6132 20.0619 13.7195 19.7453C14.783 16.8963 16.272 14.3638 17.9737 12.1479C19.6753 9.93201 21.5897 8.13818 23.6105 6.76642C23.6105 6.76642 23.6105 6.76643 23.7168 6.66091L24.1422 6.55539C24.5677 6.44987 25.0994 6.34435 25.5248 6.23883C26.3757 6.13331 27.2265 5.92227 28.1837 5.92227C31.7997 5.60571 35.5221 6.02779 39.1382 7.29402C40.0954 7.61058 40.9462 8.03266 41.797 8.45474C42.6479 8.87681 43.4987 9.40441 44.2432 9.93201C45.8385 11.0927 47.3275 12.2534 48.6037 13.7307L49.5609 14.8914C49.88 15.208 50.0927 15.6301 50.4117 16.0521C50.6244 16.4742 50.9435 16.8963 51.1562 17.2129L51.7943 18.4791C52.2198 19.3232 52.5388 20.2729 52.8579 21.1171L52.9642 21.4336L53.1769 22.0667L53.2833 22.5943L53.496 23.544C53.6024 23.7551 53.6023 24.3882 53.7087 24.9158C53.8151 25.4434 53.8151 25.971 53.8151 26.393C53.8151 27.6593 53.8151 28.3979 53.7087 29.3476Z" fill="url(#paint2_linear)"/>
<path d="M31.1618 1.17393C31.3745 1.17393 31.4809 1.17393 31.5872 1.17393C31.1618 1.17393 30.8427 1.27945 30.4173 1.27945C29.7792 1.38497 29.1411 1.49049 28.5029 1.70153C27.7585 1.80705 27.1203 2.01809 26.4822 2.22912C23.6106 3.07328 20.5264 4.55055 17.4421 6.76646C14.3578 8.98237 11.4863 12.0424 9.14647 15.8411C7.97657 17.7405 7.0194 19.8509 6.16856 22.0668C5.95586 22.5944 5.8495 23.2275 5.63679 23.7551L5.42407 24.5993C5.31772 24.9158 5.3177 25.2324 5.21135 25.5489C5.105 26.1821 4.99865 26.8152 4.78594 27.4483L4.57325 28.398C4.57325 28.7145 4.57324 28.9256 4.46689 29.1366C4.46689 29.6642 4.36053 30.1918 4.36053 30.7194L4.25417 31.458V31.5635V31.9856V32.7243C4.25417 33.3574 4.25417 33.9905 4.25417 34.6236V35.5733L4.36053 36.523C4.57324 37.7892 4.57324 39.0554 4.99866 40.3217C5.31772 41.5879 5.53043 42.8541 6.0622 44.1204C7.76387 49.1853 10.6354 53.8282 14.3578 57.7324C17.2294 60.5814 20.5264 62.9028 24.1424 64.5911C23.717 64.4856 23.2916 64.2746 22.8662 64.1691C17.9739 62.4808 13.2943 59.7372 9.67824 56.0441C5.95584 52.3509 3.19063 47.708 1.59531 42.8541C1.1699 41.6934 0.85084 40.4272 0.638132 39.1609C0.319069 37.8947 0.212715 36.6285 0.106361 35.4678L0 34.5181V33.5684C0 32.9353 0 32.3022 0 31.7746V30.9304V30.6139L0.106361 29.8752C0.212715 29.3476 0.212721 28.9256 0.212721 28.398C0.212721 28.1869 0.212728 27.9759 0.319082 27.6593L0.531771 26.7096C0.638125 26.0765 0.744499 25.4434 0.850853 24.8103C0.957207 24.4937 0.957188 24.1772 1.06354 23.8606L1.27626 23.0165C1.48897 22.4889 1.59533 21.9613 1.80803 21.3282C2.55251 19.2178 3.50968 17.2129 4.67958 15.3135C6.91302 11.6204 9.78459 8.66581 12.7625 6.55542C15.7404 4.44503 18.7184 2.96776 21.4836 2.12361C22.1217 1.91257 22.8662 1.70153 23.5043 1.59601C24.1424 1.49049 24.7805 1.38497 25.4186 1.27945C26.5885 1.06841 27.7584 1.06841 28.7156 0.962891C29.4601 1.06841 30.311 1.17393 31.1618 1.17393Z" fill="url(#paint3_linear)"/>
<path d="M62.7486 45.5976C62.0042 47.8135 60.7279 50.2404 59.1326 52.6674C57.1119 55.6219 54.2403 58.5765 50.6243 60.8979C47.0082 63.2193 42.5413 65.0132 37.7554 65.6463C37.1173 65.7518 36.5855 65.7518 35.9474 65.8573L34.9902 65.9628H33.9266C33.3949 65.9628 32.8631 65.9628 32.4377 65.9628C32.1186 65.9628 31.9059 65.9628 31.5869 65.9628L30.5233 65.8573C29.1407 65.7518 27.7581 65.5408 26.4818 65.2242L24.5675 64.8021C24.3548 64.8021 24.1421 64.6966 24.0357 64.5911C20.4197 62.9028 17.1227 60.5813 14.2511 57.7323C10.4224 53.8281 7.55081 49.1852 5.9555 44.1203C5.53008 42.8541 5.21102 41.5878 4.89195 40.3216C4.57289 39.0554 4.46653 37.7891 4.25382 36.5229L4.14746 35.5732V34.6236C4.14746 33.9904 4.14746 33.3573 4.14746 32.7242V31.88V31.458V31.3524L4.25382 30.6138C4.36018 30.0862 4.36018 29.5586 4.36018 29.031C4.36018 28.82 4.36019 28.5034 4.46654 28.2924L4.67923 27.3427C4.78559 26.7096 4.89197 26.0765 5.10467 25.4434C5.21103 25.1268 5.21101 24.8102 5.31736 24.4937L5.53009 23.6495C5.74279 23.1219 5.84915 22.4888 6.06186 21.9612C6.80634 19.7453 7.86987 17.6349 9.03976 15.7356C11.3796 11.9369 14.2511 8.98232 17.3354 6.66089C20.4197 4.44498 23.504 2.96771 26.3755 2.12355C27.12 1.91252 27.7581 1.70148 28.3962 1.59596C29.0344 1.49044 29.6725 1.38492 30.3106 1.17388C30.736 1.17388 31.0551 1.06836 31.4805 1.06836C32.0123 1.17388 32.544 1.2794 32.9695 1.2794C34.033 1.49044 34.5648 1.59596 34.5648 1.59596C34.5648 1.59596 34.033 1.807 33.0758 2.12355C32.5441 2.33459 32.0123 2.44011 31.2678 2.75667C30.6297 2.96771 29.8852 3.28427 29.0344 3.70635C28.1835 4.12842 27.3327 4.5505 26.3755 5.0781C25.5247 5.6057 24.5675 6.13329 23.7167 6.76641L23.6103 6.87193C23.6103 6.87193 23.6103 6.87193 23.5039 6.97745C21.5896 8.3492 19.6752 10.143 17.8672 12.3589C16.1655 14.5749 14.6766 17.1073 13.613 19.9563C13.5067 20.2729 13.4003 20.695 13.2939 21.0115C13.1876 21.3281 13.0812 21.7502 12.9749 22.0667C12.8685 22.3833 12.7622 22.8054 12.7622 23.2274C12.6558 23.544 12.5495 23.9661 12.5495 24.3882C12.4431 24.8102 12.4431 25.1268 12.3367 25.5489L12.2304 26.0765C12.2304 26.2875 12.2304 26.393 12.2304 26.6041C12.2304 26.9206 12.2304 27.3427 12.2304 27.6593V28.1869C12.2304 28.3979 12.2304 28.6089 12.2304 28.9255C12.2304 29.4531 12.2304 29.8752 12.2304 30.4028V31.0359V31.1414C12.2304 31.0359 12.2304 31.0359 12.2304 31.0359V31.1414V31.2469V31.5635L12.3367 32.7242L12.4431 33.3573L12.5495 33.9904C12.6558 34.518 12.7622 34.9401 12.8685 35.4677C12.9749 35.7843 12.9749 35.9953 13.0812 36.3119C13.0812 36.3119 13.0812 36.3119 13.0812 36.4174C13.1876 36.8395 13.2939 37.2615 13.5067 37.6836C13.613 38.0002 13.7194 38.3167 13.9321 38.6333C15.102 41.5878 16.91 44.4369 19.2498 46.7583C21.5896 49.0797 24.3548 50.8736 27.3327 52.0343C27.7581 52.1398 28.0772 52.3508 28.3962 52.4563L29.5661 52.7729C30.417 53.0895 30.9488 53.0895 31.6932 53.3005L32.225 53.406C32.3314 53.406 32.3313 53.406 32.4377 53.406C32.544 53.406 32.6504 53.5115 32.6504 53.5115C33.0758 53.6171 33.3949 53.8281 33.8203 53.9336L34.9902 54.2502C35.841 54.5667 36.4791 54.5667 37.1173 54.7778L37.649 54.8833C37.8618 54.8833 38.1808 54.9888 38.3935 54.9888C38.9253 54.9888 39.4571 55.0943 39.9888 55.0943H40.4143H40.627H40.7333H41.1588C41.5842 55.0943 42.0096 55.0943 42.435 55.0943C45.732 55.0943 48.8163 54.4612 51.7942 53.3005C54.6657 52.1398 57.3246 50.557 59.558 48.6576C59.8771 48.4466 60.0898 48.2356 60.4089 48.0245C60.6216 47.8135 60.9406 47.4969 61.1533 47.2859C61.5788 46.7583 62.2169 46.3362 62.536 45.8086C62.536 45.9141 62.6423 45.7031 62.7486 45.5976Z" fill="url(#paint4_linear)"/>
<defs>
<linearGradient id="paint0_linear" x1="45.0761" y1="39.1586" x2="57.7499" y2="51.7942" gradientUnits="userSpaceOnUse">
<stop stop-color="#FF175C"/>
<stop offset="1" stop-color="#FFD100"/>
</linearGradient>
<linearGradient id="paint1_linear" x1="56.8421" y1="26.3661" x2="21.3983" y2="20.5858" gradientUnits="userSpaceOnUse">
<stop stop-color="#FF175C"/>
<stop offset="1" stop-color="#FFD100"/>
</linearGradient>
<linearGradient id="paint2_linear" x1="54.2053" y1="26.8091" x2="13.2322" y2="20.1271" gradientUnits="userSpaceOnUse">
<stop stop-color="#FF175C"/>
<stop offset="1" stop-color="#F15A29"/>
</linearGradient>
<linearGradient id="paint3_linear" x1="2.88209" y1="11.2771" x2="41.8402" y2="50.1175" gradientUnits="userSpaceOnUse">
<stop stop-color="#FF175C"/>
<stop offset="1" stop-color="#FFD100"/>
</linearGradient>
<linearGradient id="paint4_linear" x1="63.8633" y1="38.842" x2="4.44902" y2="29.1525" gradientUnits="userSpaceOnUse">
<stop stop-color="#FF175C"/>
<stop offset="1" stop-color="#FFD100"/>
</linearGradient>
</defs>
</svg>
