<?xml version="1.0" encoding="utf-8"?>
<!-- Generator: Adobe Illustrator 27.9.0, SVG Export Plug-In . SVG Version: 6.00 Build 0)  -->
<svg version="1.1" id="圖層_1" xmlns="http://www.w3.org/2000/svg" xmlns:xlink="http://www.w3.org/1999/xlink" x="0px" y="0px"
	 viewBox="0 0 179.3 56.6" style="enable-background:new 0 0 179.3 56.6;" xml:space="preserve">
<style type="text/css">
	.st0{fill:#FFFFFF;}
</style>
<g>
	<polygon class="st0" points="51.7,0 13.3,6.2 5.8,34 	"/>
	<polygon class="st0" points="4.2,40.4 0,56.1 49.6,19.9 26.6,23.8 	"/>
	<path class="st0" d="M95.6,50.5c-0.2-0.2-0.3-0.4-0.6-0.5c-0.2-0.1-0.5-0.2-0.7-0.2c-0.2,0-0.3,0-0.5,0.1c-0.2,0-0.2,0.1-0.4,0.2
		c-0.1,0.1-0.2,0.2-0.3,0.3s-0.1,0.3-0.1,0.4c0,0.2,0.1,0.5,0.2,0.6c0.2,0.2,0.4,0.2,0.6,0.3c0.2,0.1,0.6,0.2,0.9,0.2
		s0.6,0.2,0.9,0.4c0.2,0.2,0.5,0.4,0.6,0.6c0.2,0.3,0.3,0.7,0.2,1c0,0.4-0.1,0.7-0.2,1c-0.2,0.3-0.3,0.6-0.6,0.7
		c-0.2,0.2-0.6,0.3-0.9,0.5c-0.3,0.1-0.7,0.2-1,0.2c-0.5,0-1-0.1-1.4-0.2c-0.4-0.2-0.8-0.5-1.1-0.8l1-1c0.2,0.2,0.4,0.5,0.6,0.6
		c0.2,0.2,0.6,0.2,0.9,0.2c0.2,0,0.3,0,0.5-0.1c0.2,0,0.3-0.1,0.4-0.2c0.2-0.1,0.2-0.2,0.3-0.3c0.1-0.2,0.2-0.3,0.2-0.5
		c0-0.2-0.1-0.5-0.2-0.6c-0.2-0.2-0.4-0.3-0.6-0.4s-0.6-0.2-0.9-0.3c-0.3-0.1-0.6-0.2-0.9-0.4c-0.2-0.2-0.5-0.4-0.6-0.6
		c-0.2-0.3-0.3-0.7-0.2-1c0-0.3,0.1-0.7,0.2-1c0.2-0.2,0.4-0.5,0.6-0.7c0.2-0.2,0.6-0.3,0.9-0.4s0.7-0.2,1-0.2
		c0.4,0,0.8,0.1,1.1,0.2c0.4,0.2,0.7,0.3,1,0.6L95.6,50.5z"/>
	<polygon class="st0" points="100.8,50.1 98.5,50.1 98.5,48.9 104.5,48.9 104.5,50.1 102.2,50.1 102.2,56.5 100.8,56.5 	"/>
	<path class="st0" d="M106.2,52.7c0-0.6,0.1-1.1,0.3-1.6c0.2-0.5,0.5-0.9,0.8-1.3c0.4-0.3,0.8-0.6,1.3-0.8s1-0.2,1.6-0.2
		c0.6,0,1.1,0.1,1.6,0.2c1,0.3,1.8,1.1,2.1,2c0.2,0.5,0.3,1,0.3,1.6s-0.1,1.1-0.3,1.6c-0.2,0.5-0.5,0.9-0.8,1.3
		c-0.4,0.3-0.8,0.6-1.3,0.8c-0.5,0.2-1,0.3-1.6,0.3c-0.6,0-1.1-0.1-1.6-0.2c-0.5-0.2-0.9-0.5-1.3-0.8c-0.3-0.3-0.6-0.8-0.8-1.2
		C106.3,53.8,106.2,53.3,106.2,52.7 M107.6,52.6c0,0.4,0.1,0.7,0.2,1.1c0.1,0.3,0.3,0.6,0.6,0.9c0.2,0.2,0.5,0.5,0.8,0.6
		c0.3,0.2,0.7,0.2,1,0.2c0.4,0,0.7-0.1,1.1-0.2c0.3-0.2,0.6-0.3,0.8-0.6c0.2-0.2,0.4-0.6,0.6-0.9c0.2-0.3,0.2-0.7,0.2-1.1
		c0-0.3-0.1-0.7-0.2-1c-0.1-0.3-0.3-0.6-0.6-0.9c-0.2-0.2-0.5-0.4-0.8-0.6c-0.3-0.2-0.7-0.2-1-0.2c-0.4,0-0.7,0.1-1,0.2
		c-0.3,0.2-0.6,0.3-0.8,0.6c-0.2,0.2-0.4,0.6-0.6,0.9C107.7,52,107.6,52.3,107.6,52.6"/>
	<path class="st0" d="M116.7,48.9h2.6c0.3,0,0.7,0,1,0.1c0.3,0.1,0.6,0.2,0.9,0.3s0.5,0.4,0.6,0.6c0.4,0.8,0.3,1.7-0.2,2.4
		c-0.3,0.4-0.8,0.6-1.3,0.6l2,3.3h-1.6l-1.8-3.2h-1v3.2h-1.4L116.7,48.9L116.7,48.9z M119.1,52.1c0.2,0,0.4,0,0.6,0
		c0.2,0,0.3-0.1,0.6-0.2c0.2-0.1,0.3-0.2,0.4-0.3c0.1-0.2,0.2-0.4,0.2-0.6s-0.1-0.4-0.2-0.6c-0.1-0.2-0.2-0.2-0.3-0.3
		c-0.2-0.1-0.3-0.1-0.5-0.2c-0.2,0-0.3,0-0.6,0H118V52L119.1,52.1z"/>
	<polygon class="st0" points="124.6,48.9 126.7,48.9 128.8,54.2 130.8,48.9 132.8,48.9 132.8,56.5 131.5,56.5 131.5,50.2 
		131.5,50.2 129.2,56.5 128.3,56.5 126,50.2 125.9,50.2 125.9,56.5 124.6,56.5 	"/>
	<polygon class="st0" points="140.1,48.9 142.1,48.9 144.1,54.2 146.2,48.9 148.2,48.9 148.2,56.5 146.9,56.5 146.9,50.2 
		146.9,50.2 144.6,56.5 143.7,56.5 141.4,50.2 141.3,50.2 141.3,56.5 140.1,56.5 	"/>
	<polygon class="st0" points="151.2,48.9 156.2,48.9 156.2,50.1 152.5,50.1 152.5,52 156,52 156,53.2 152.5,53.2 152.5,55.3 
		156.4,55.3 156.4,56.5 151.2,56.5 	"/>
	<path class="st0" d="M158.9,48.9h3c0.5,0,1,0.1,1.4,0.2s0.9,0.4,1.2,0.7c0.4,0.3,0.6,0.7,0.9,1.2c0.2,0.6,0.3,1.1,0.3,1.7
		c0,0.6-0.1,1.1-0.4,1.7c-0.2,0.5-0.6,0.9-1,1.1c-0.4,0.3-0.8,0.6-1.3,0.7c-0.5,0.2-1,0.2-1.4,0.2h-2.8L158.9,48.9z M161.2,55.3
		c0.4,0,0.8-0.1,1.2-0.2c0.3-0.1,0.7-0.2,1-0.5c0.3-0.2,0.5-0.5,0.6-0.8c0.2-0.4,0.2-0.8,0.2-1.2s-0.1-0.8-0.2-1.1s-0.3-0.6-0.6-0.8
		c-0.2-0.2-0.6-0.3-0.9-0.4c-0.4-0.1-0.7-0.2-1.1-0.2h-1.2v5.1H161.2z"/>
	<rect x="168.2" y="48.9" class="st0" width="1.4" height="7.5"/>
	<path class="st0" d="M174.8,48.9h1.2l3.3,7.5h-1.5l-0.7-1.7h-3.3l-0.7,1.7h-1.5L174.8,48.9z M176.5,53.6l-1.1-3l-1.2,3H176.5z"/>
	<path class="st0" d="M95.9,31.4c-0.4-0.2-0.8-0.6-1.2-1l-0.2-0.2v0.3c-0.1,5.4-0.6,5.7-0.6,5.7c-2.4,0-2.4-17.8-2.4-28.3V7.7h-24
		v11.1c0,6.2-0.5,13.1-4.3,18.3l-0.1,0.2l0.2,0.1c0.5,0.2,1,0.6,1.3,1l0.1,0.2l0.1-0.2c3.2-4.3,4.7-10.7,4.7-19.4V9.6h20.3v1.8
		c0.2,15.5,0.2,26.7,4.1,26.7C95.3,38.2,95.7,36.4,95.9,31.4L95.9,31.4L95.9,31.4z"/>
	<path class="st0" d="M84.6,28.8L84.6,28.8l-1.7,0.6l0.2,0.2c1,1,1.8,2.1,2.6,3.2l-5.5,0.2v-5.5h6.6v-9.6h-6.6v-3.7
		c0.2,0,0.4-0.2,0.5-0.3c2.2-0.3,4.3-0.8,6.5-1.4c0.1,0,0.2,0,0.3,0s0.3,0,0.4-0.2l0.1-0.1l-1.8-1.4H86c-3.8,1.2-10.7,2.2-15.9,2.8
		H70l0.1,0.2c0.2,0.4,0.3,0.9,0.5,1.4l0,0h0.1c2.2-0.2,4.9-0.6,7.5-1v3.6h-6.6v9.6h6.6v5.6c-3.6,0.2-6.9,0.3-9.1,0.4h-0.2l0.8,2.3
		h0.1c0.2-0.1,0.4-0.2,0.5-0.5c4-0.2,10.3-0.6,16.3-1c0.6,0.9,1,1.8,1.4,2.7v0.2l1.7-0.8v-0.1C88.4,33.5,86.7,31,84.6,28.8
		 M78.2,25.8h-4.8v-6.2h4.8V25.8z M80.1,19.5H85v6.2h-4.9V19.5z"/>
	<path class="st0" d="M113,7c0.3,0,0.6-0.2,0.7-0.4l0.1-0.2l-2.4-0.8v0.1c-2,6.2-5.3,12.5-8.6,16.2l-0.1,0.1l0.1,0.1
		c0.3,0.4,0.7,1.1,1,1.5l0.1,0.2l0.1-0.2c1.5-1.8,3-3.9,4.2-6v20.6h1.9V14.7c0.2,0,0.5-0.2,0.6-0.4l0.1-0.2l-0.6-0.2
		C111.2,11.7,112.1,9.4,113,7"/>
	<path class="st0" d="M117.8,30.3L117.8,30.3l-1.5,1l0.1,0.1c1.8,1.4,3.4,3,4.7,4.7l0.1,0.1l1.5-1.2l-0.1-0.1
		C121.2,33.2,119.6,31.6,117.8,30.3"/>
	<path class="st0" d="M131,26c0.2,0,0.4-0.1,0.6-0.2l1.8-0.1c0.6,0.6,1.1,1.1,1.7,1.7l0.1,0.1l1.5-1l-0.1-0.1
		c-1.6-1.7-3.4-3.1-5.3-4.4h3.2v-9.6h-9v-2.2h10.6V8.5h-10.6V6.6c0.3,0,0.6-0.2,0.6-0.5V5.9l-2.6-0.2v2.6h-10.2v1.7h10.2v2.2h-8.7
		v9.5h8.7v2.5c-3.8,0.1-7.5,0.1-10.5,0.1h-0.2l0.6,2.2h0.1c0.2,0,0.5-0.2,0.6-0.4c4-0.1,9.6-0.2,15-0.4v2.5h-16.9v1.8h16.9v5.8
		c0,0.6,0,0.6-1.9,0.6c-0.7,0-1.7,0-2.7-0.1h-1l0.2,0.4c0.2,0.4,0.4,0.9,0.5,1.4v0.1h0.1c3.6,0,4.7,0,5.5-0.2c1.1-0.3,1.3-1,1.3-2
		v-5.9h5.4v-1.8H131L131,26z M125.4,13.9h7v2.5h-7V13.9z M125.4,17.9h7v2.5h-7V17.9z M125.4,21.9h3.9l-0.6,0.3l0.2,0.1
		c0.6,0.5,1.6,1.1,2.6,1.9c-2,0.1-4.1,0.1-6.1,0.1h-0.1L125.4,21.9z M123.5,20.3h-6.9v-2.5h6.9V20.3z M123.5,16.3h-6.9v-2.5h6.9
		V16.3z"/>
	<polygon class="st0" points="172.2,13.2 166.1,14.3 164.9,18.7 	"/>
	<path class="st0" d="M179.1,35.3c-3.2-1.9-6-4.6-8.2-7.6h8.1v-1.8h-9.5v-3.2c0.2,0,0.5-0.2,0.6-0.4h5.1V11.3h3.9V9.4h-3.9V6.2
		c0.3,0,0.6-0.2,0.6-0.5V5.7l-2.5-0.2v4h-9.4V6.3c0.3,0,0.6-0.2,0.6-0.5V5.7l-2.5-0.2v4h-4.1v1.8h4.1v11h5.6v3.6h-9.3v1.8h7.8
		c-2.2,3.2-5.1,5.8-8.5,7.8l-0.2,0.1l0.2,0.2c0.5,0.4,0.9,0.9,1.2,1.4l0.1,0.1l0.1-0.1c3.4-2.2,6.3-5.2,8.6-8.6v9.6h1.9v-9.6
		c2.2,3.3,5,6.1,8.2,8.3l0.1,0.1l0.1-0.1c0.3-0.5,0.7-1,1.2-1.4l0.2-0.1L179.1,35.3z M173.2,20.6h-9.4v-9.3h9.4V20.6z"/>
	<path class="st0" d="M157.9,34.6l1.2-1.6l-0.1-0.1c-1.1-1.4-2.4-2.6-3.8-3.8c1.7-4,2.7-9,3.2-15.3c0.1-0.1,0.2-0.2,0.2-0.4v-0.1
		l-1.1-0.3l-0.3,0.1H152c0.6-2.6,1-4.8,1.4-6.6c0.4,0,0.6-0.2,0.6-0.5V5.8l-2.5-0.3l-0.1,0.3c-0.4,2.2-0.9,4.7-1.4,7.3h-3.8V15h3.4
		c-0.8,3.7-1.9,8.7-2.9,12.2v0.1l1.7,0.9l0.5-1.7c1.4,1,2.7,2,4,3.1c-1.4,2.9-3.5,5.4-6.2,7l-0.2,0.1l0.2,0.1
		c0.4,0.4,0.8,0.9,1.1,1.4l0.1,0.1l0.1-0.1c2.8-1.8,5-4.3,6.5-7.4c1.2,1.1,2.3,2.3,3.4,3.6L157.9,34.6z M149.4,24.5
		c0.7-2.9,1.5-6.3,2.2-9.7h4.9c-0.2,4.4-1.2,8.7-2.8,12.8C152.3,26.5,150.9,25.5,149.4,24.5"/>
	<polygon class="st0" points="65.3,50 62.9,50 62.9,48.8 68.9,48.8 68.9,50 66.6,50 66.6,56.2 65.3,56.2 	"/>
	<polygon class="st0" points="79,48.8 83.9,48.8 83.9,50 80.3,50 80.3,51.8 83.8,51.8 83.8,53 80.3,53 80.3,55.1 84.2,55.1 
		84.2,56.2 79,56.2 	"/>
	<polygon class="st0" points="75.4,48.7 75.4,51.7 71.5,51.7 71.5,48.7 70.2,48.7 70.2,56.3 71.5,56.3 71.5,52.9 75.4,52.9 
		75.4,56.3 76.7,56.3 76.7,48.7 	"/>
</g>
</svg>
