<?xml version="1.0" encoding="utf-8"?>
<!-- Generator: Adobe Illustrator 27.9.0, SVG Export Plug-In . SVG Version: 6.00 Build 0)  -->
<svg version="1.1" id="圖層_1" xmlns="http://www.w3.org/2000/svg" xmlns:xlink="http://www.w3.org/1999/xlink" x="0px" y="0px"
	 viewBox="0 0 236 65" style="enable-background:new 0 0 236 65;" xml:space="preserve">
<style type="text/css">
	.st0{fill:#E73E3B;}
	.st1{fill:#3E3A39;}
</style>
<g>
	<polygon class="st0" points="80.7,5.5 42.2,11.8 34.8,39.5 	"/>
	<polygon class="st1" points="33.1,45.9 28.9,61.6 78.6,25.4 55.5,29.3 	"/>
	<path class="st1" d="M124.6,56c-0.2-0.2-0.3-0.4-0.6-0.5c-0.2-0.1-0.5-0.2-0.7-0.2c-0.2,0-0.3,0-0.5,0.1c-0.2,0-0.2,0.1-0.4,0.2
		c-0.1,0.1-0.2,0.2-0.3,0.3c-0.1,0.2-0.1,0.3-0.1,0.4c0,0.2,0.1,0.5,0.2,0.6c0.2,0.2,0.4,0.2,0.6,0.3s0.6,0.2,0.9,0.2
		c0.3,0.1,0.6,0.2,0.9,0.4c0.2,0.2,0.5,0.4,0.6,0.6c0.2,0.3,0.3,0.7,0.2,1c0,0.4-0.1,0.7-0.2,1c-0.2,0.3-0.3,0.6-0.6,0.7
		c-0.2,0.2-0.6,0.3-0.9,0.5c-0.3,0.1-0.7,0.2-1,0.2c-0.5,0-1-0.1-1.4-0.2c-0.4-0.2-0.8-0.5-1.1-0.8l1-1c0.2,0.2,0.4,0.5,0.6,0.6
		c0.2,0.2,0.6,0.2,0.9,0.2c0.2,0,0.3,0,0.5-0.1c0.2,0,0.3-0.1,0.4-0.2c0.2-0.1,0.2-0.2,0.3-0.3c0.1-0.2,0.2-0.3,0.2-0.5
		c0-0.2-0.1-0.5-0.2-0.6c-0.2-0.2-0.4-0.3-0.6-0.4s-0.6-0.2-0.9-0.3c-0.3-0.1-0.6-0.2-0.9-0.4c-0.2-0.2-0.5-0.4-0.6-0.6
		c-0.2-0.3-0.3-0.7-0.2-1c0-0.3,0.1-0.7,0.2-1c0.2-0.2,0.4-0.5,0.6-0.7c0.2-0.2,0.6-0.3,0.9-0.4c0.3-0.1,0.7-0.2,1-0.2
		c0.4,0,0.8,0.1,1.1,0.2c0.4,0.2,0.7,0.3,1,0.6L124.6,56z"/>
	<polygon class="st1" points="129.8,55.6 127.4,55.6 127.4,54.4 133.4,54.4 133.4,55.6 131.1,55.6 131.1,62 129.8,62 	"/>
	<path class="st1" d="M135.1,58.2c0-0.6,0.1-1.1,0.3-1.6c0.2-0.5,0.5-0.9,0.8-1.3c0.4-0.3,0.8-0.6,1.3-0.8s1-0.2,1.6-0.2
		c0.6,0,1.1,0.1,1.6,0.2c1,0.3,1.8,1.1,2.1,2c0.2,0.5,0.3,1,0.3,1.6c0,0.6-0.1,1.1-0.3,1.6c-0.2,0.5-0.5,0.9-0.8,1.3
		c-0.4,0.3-0.8,0.6-1.3,0.8c-0.5,0.2-1,0.3-1.6,0.3c-0.6,0-1.1-0.1-1.6-0.2c-0.5-0.2-0.9-0.5-1.3-0.8c-0.3-0.3-0.6-0.8-0.8-1.2
		C135.3,59.3,135.1,58.8,135.1,58.2 M136.6,58.1c0,0.4,0.1,0.7,0.2,1.1c0.1,0.3,0.3,0.6,0.6,0.9c0.2,0.2,0.5,0.5,0.8,0.6
		c0.3,0.2,0.7,0.2,1,0.2c0.4,0,0.7-0.1,1.1-0.2c0.3-0.2,0.6-0.3,0.8-0.6c0.2-0.2,0.4-0.6,0.6-0.9c0.2-0.3,0.2-0.7,0.2-1.1
		c0-0.3-0.1-0.7-0.2-1c-0.1-0.3-0.3-0.6-0.6-0.9c-0.2-0.2-0.5-0.4-0.8-0.6s-0.7-0.2-1-0.2c-0.4,0-0.7,0.1-1,0.2
		c-0.3,0.2-0.6,0.3-0.8,0.6c-0.2,0.2-0.4,0.6-0.6,0.9C136.7,57.5,136.6,57.8,136.6,58.1"/>
	<path class="st1" d="M145.6,54.4h2.6c0.3,0,0.7,0,1,0.1s0.6,0.2,0.9,0.3c0.2,0.2,0.5,0.4,0.6,0.6c0.4,0.8,0.3,1.7-0.2,2.4
		c-0.3,0.4-0.8,0.6-1.3,0.6l2,3.3h-1.6l-1.8-3.2h-1v3.2h-1.4L145.6,54.4L145.6,54.4z M148,57.6c0.2,0,0.4,0,0.6,0s0.3-0.1,0.6-0.2
		c0.2-0.1,0.3-0.2,0.4-0.3c0.1-0.2,0.2-0.4,0.2-0.6s-0.1-0.4-0.2-0.6s-0.2-0.2-0.3-0.3c-0.2-0.1-0.3-0.1-0.5-0.2c-0.2,0-0.3,0-0.6,0
		H147v1.9L148,57.6z"/>
	<polygon class="st1" points="153.5,54.4 155.6,54.4 157.7,59.7 159.7,54.4 161.7,54.4 161.7,62 160.4,62 160.4,55.7 160.4,55.7 
		158.1,62 157.2,62 154.9,55.7 154.8,55.7 154.8,62 153.5,62 	"/>
	<polygon class="st1" points="169,54.4 171.1,54.4 173.1,59.7 175.2,54.4 177.2,54.4 177.2,62 175.9,62 175.9,55.7 175.9,55.7 
		173.6,62 172.6,62 170.4,55.7 170.3,55.7 170.3,62 169,62 	"/>
	<polygon class="st1" points="180.1,54.4 185.1,54.4 185.1,55.6 181.4,55.6 181.4,57.5 184.9,57.5 184.9,58.7 181.4,58.7 
		181.4,60.8 185.3,60.8 185.3,62 180.1,62 	"/>
	<path class="st1" d="M187.8,54.4h3c0.5,0,1,0.1,1.4,0.2c0.5,0.2,0.9,0.4,1.2,0.7c0.4,0.3,0.6,0.7,0.9,1.2c0.2,0.6,0.3,1.1,0.3,1.7
		c0,0.6-0.1,1.1-0.4,1.7c-0.2,0.5-0.6,0.9-1,1.1c-0.4,0.3-0.8,0.6-1.3,0.7c-0.5,0.2-1,0.2-1.4,0.2h-2.8L187.8,54.4z M190.1,60.8
		c0.4,0,0.8-0.1,1.2-0.2c0.3-0.1,0.7-0.2,1-0.5c0.3-0.2,0.5-0.5,0.6-0.8c0.2-0.4,0.2-0.8,0.2-1.2c0-0.4-0.1-0.8-0.2-1.1
		c-0.2-0.3-0.3-0.6-0.6-0.8c-0.2-0.2-0.6-0.3-0.9-0.4c-0.4-0.1-0.7-0.2-1.1-0.2h-1.2v5.1H190.1z"/>
	<rect x="197.1" y="54.4" class="st1" width="1.4" height="7.5"/>
	<path class="st1" d="M203.8,54.4h1.2l3.3,7.5h-1.5l-0.7-1.7h-3.3L202,62h-1.5L203.8,54.4z M205.4,59.1l-1.1-3l-1.2,3H205.4z"/>
	<path class="st1" d="M124.8,36.9c-0.4-0.2-0.8-0.6-1.2-1l-0.2-0.2V36c-0.1,5.4-0.6,5.7-0.6,5.7c-2.4,0-2.4-17.8-2.4-28.3v-0.2h-24
		v11.1c0,6.2-0.5,13.1-4.3,18.3l-0.1,0.2l0.2,0.1c0.5,0.2,1,0.6,1.3,1l0.1,0.2l0.1-0.2c3.2-4.3,4.7-10.7,4.7-19.4v-9.2h20.3V17
		c0.2,15.5,0.2,26.7,4.1,26.7C124.2,43.7,124.6,41.9,124.8,36.9L124.8,36.9L124.8,36.9z"/>
	<path class="st1" d="M113.5,34.3L113.5,34.3l-1.7,0.6l0.2,0.2c1,1,1.8,2.1,2.6,3.2l-5.5,0.2v-5.5h6.6v-9.6H109v-3.7
		c0.2,0,0.4-0.2,0.5-0.3c2.2-0.3,4.3-0.8,6.5-1.4c0.1,0,0.2,0,0.3,0s0.3,0,0.4-0.2l0.1-0.1l-1.8-1.4H115c-3.8,1.2-10.7,2.2-15.9,2.8
		h-0.2l0.1,0.2c0.2,0.4,0.3,0.9,0.5,1.4l0,0h0.1c2.2-0.2,4.9-0.6,7.5-1v3.6h-6.6V33h6.6v5.6c-3.6,0.2-6.9,0.3-9.1,0.4h-0.2l0.8,2.3
		h0.1c0.2-0.1,0.4-0.2,0.5-0.5c4-0.2,10.3-0.6,16.3-1c0.6,0.9,1,1.8,1.4,2.7v0.2l1.7-0.8v-0.1C117.4,39,115.7,36.5,113.5,34.3
		 M107.1,31.3h-4.8V25h4.8V31.3z M109,25h4.9v6.2H109V25z"/>
	<path class="st1" d="M141.9,12.6c0.3,0,0.6-0.2,0.7-0.4l0.1-0.2l-2.4-0.8v0.1c-2,6.2-5.3,12.5-8.6,16.2l-0.1,0.1l0.1,0.1
		c0.3,0.4,0.7,1.1,1,1.5l0.1,0.2l0.1-0.2c1.5-1.8,3-3.9,4.2-6v20.6h1.9V20.2c0.2,0,0.5-0.2,0.6-0.4l0.1-0.2l-0.6-0.2
		C140.1,17.2,141.1,14.9,141.9,12.6"/>
	<path class="st1" d="M146.7,35.8L146.7,35.8l-1.5,1l0.1,0.1c1.8,1.4,3.4,3,4.7,4.7l0.1,0.1l1.5-1.2l-0.1-0.1
		C150.1,38.7,148.5,37.1,146.7,35.8"/>
	<path class="st1" d="M160,31.5c0.2,0,0.4-0.1,0.6-0.2l1.8-0.1c0.6,0.6,1.1,1.1,1.7,1.7L164,33l1.5-1l-0.1-0.1
		c-1.6-1.7-3.4-3.1-5.3-4.4h3.2v-9.6h-9v-2.2H165V14h-10.6v-1.9c0.3,0,0.6-0.2,0.6-0.5v-0.2l-2.6-0.2v2.6h-10.2v1.7h10.2v2.2h-8.7
		v9.5h8.7v2.5c-3.8,0.1-7.5,0.1-10.5,0.1h-0.2l0.6,2.2h0.1c0.2,0,0.5-0.2,0.6-0.4c4-0.1,9.6-0.2,15-0.4v2.5h-16.9v1.8h16.9v5.8
		c0,0.6,0,0.6-1.9,0.6c-0.7,0-1.7,0-2.7-0.1h-1l0.2,0.4c0.2,0.4,0.4,0.9,0.5,1.4v0.1h0.1c3.6,0,4.7,0,5.5-0.2c1.1-0.3,1.3-1,1.3-2
		v-5.9h5.4v-1.8H160L160,31.5z M154.3,19.4h7v2.5h-7V19.4z M154.3,23.4h7v2.5h-7V23.4z M154.3,27.4h3.9l-0.6,0.3l0.2,0.1
		c0.6,0.5,1.6,1.1,2.6,1.9c-2,0.1-4.1,0.1-6.1,0.1h-0.1L154.3,27.4z M152.4,25.8h-6.9v-2.5h6.9V25.8z M152.4,21.8h-6.9v-2.5h6.9
		V21.8z"/>
	<polygon class="st0" points="201.1,18.7 195,19.8 193.8,24.2 	"/>
	<path class="st1" d="M208,40.8c-3.2-1.9-6-4.6-8.2-7.6h8.1v-1.8h-9.5v-3.2c0.2,0,0.5-0.2,0.6-0.4h5.1V16.8h3.9V15h-3.9v-3.2
		c0.3,0,0.6-0.2,0.6-0.5v-0.1l-2.5-0.2v4h-9.4v-3.2c0.3,0,0.6-0.2,0.6-0.5v-0.2l-2.5-0.2v4h-4.1v1.8h4.1v11h5.6v3.6h-9.3v1.8h7.8
		c-2.2,3.2-5.1,5.8-8.5,7.8l-0.2,0.1l0.2,0.2c0.5,0.4,0.9,0.9,1.2,1.4l0.1,0.1l0.1-0.1c3.4-2.2,6.3-5.2,8.6-8.6v9.6h1.9v-9.6
		c2.2,3.3,5,6.1,8.2,8.3l0.1,0.1l0.1-0.1c0.3-0.5,0.7-1,1.2-1.4l0.2-0.1L208,40.8z M202.2,26.1h-9.4v-9.3h9.4V26.1z"/>
	<path class="st1" d="M186.9,40.1l1.2-1.6l-0.1-0.1c-1.1-1.4-2.4-2.6-3.8-3.8c1.7-4,2.7-9,3.2-15.3c0.1-0.1,0.2-0.2,0.2-0.4v-0.1
		l-1.1-0.3l-0.3,0.1h-5.2c0.6-2.6,1-4.8,1.4-6.6c0.4,0,0.6-0.2,0.6-0.5v-0.1l-2.5-0.3l-0.1,0.3c-0.4,2.2-0.9,4.7-1.4,7.3h-3.8v1.8
		h3.4c-0.8,3.7-1.9,8.7-2.9,12.2v0.1l1.7,0.9l0.5-1.7c1.4,1,2.7,2,4,3.1c-1.4,2.9-3.5,5.4-6.2,7l-0.2,0.1l0.2,0.1
		c0.4,0.4,0.8,0.9,1.1,1.4l0.1,0.1l0.1-0.1c2.8-1.8,5-4.3,6.5-7.4c1.2,1.1,2.3,2.3,3.4,3.6L186.9,40.1z M178.4,30
		c0.7-2.9,1.5-6.3,2.2-9.7h4.9c-0.2,4.4-1.2,8.7-2.8,12.8C181.3,32,179.8,31,178.4,30"/>
	<polygon class="st1" points="94.2,55.5 91.9,55.5 91.9,54.3 97.9,54.3 97.9,55.5 95.6,55.5 95.6,61.7 94.2,61.7 	"/>
	<polygon class="st1" points="107.9,54.3 112.9,54.3 112.9,55.5 109.3,55.5 109.3,57.3 112.7,57.3 112.7,58.5 109.3,58.5 
		109.3,60.6 113.1,60.6 113.1,61.7 107.9,61.7 	"/>
	<polygon class="st1" points="104.4,54.2 104.4,57.2 100.5,57.2 100.5,54.2 99.2,54.2 99.2,61.8 100.5,61.8 100.5,58.4 104.4,58.4 
		104.4,61.8 105.7,61.8 105.7,54.2 	"/>
</g>
</svg>
