<svg width="236" viewBox="0 0 236 65" fill="none" xmlns="http://www.w3.org/2000/svg">
<path d="M89.0182 45.8523C85.1894 45.8523 82.1051 44.6915 79.659 42.2646C77.2129 39.8376 76.043 36.6721 76.043 32.6623V31.9237C76.043 29.2857 76.5747 26.8588 77.6383 24.7484C78.7018 22.638 80.0844 21.0552 81.9988 19.7889C83.9132 18.5227 85.9339 17.9951 88.2737 17.9951C91.9961 17.9951 94.7613 19.1558 96.782 21.4773C98.8028 23.7987 99.76 27.0698 99.76 31.3961V33.823H82.1052C82.3179 36.0389 83.0624 37.8328 84.3386 39.099C85.6149 40.3652 87.3165 40.9984 89.2309 40.9984C91.9961 40.9984 94.2295 39.8377 96.0376 37.6217L99.3345 40.6818C98.271 42.2646 96.782 43.5308 94.974 44.375C93.166 45.2191 91.2516 45.8523 89.0182 45.8523ZM88.2737 22.9545C86.572 22.9545 85.2958 23.4821 84.2323 24.6428C83.1687 25.8036 82.5306 27.3864 82.3179 29.4967H93.9105V29.0747C93.8041 27.0698 93.2724 25.5925 92.3152 24.5373C91.358 23.4821 89.9754 22.9545 88.2737 22.9545Z" fill="#152535" class="logo-color"/>
<path d="M114.224 37.727L119.967 18.6279H126.242L116.883 45.4299H111.672L102.206 18.6279H108.481L114.224 37.727Z" fill="#152535" class="logo-color"/>
<path d="M141.983 45.8523C138.154 45.8523 135.07 44.6915 132.624 42.2646C130.178 39.8376 129.008 36.6721 129.008 32.6623V31.9237C129.008 29.2857 129.54 26.8588 130.603 24.7484C131.667 22.638 133.049 21.0552 134.964 19.7889C136.878 18.5227 138.899 17.9951 141.239 17.9951C144.961 17.9951 147.726 19.1558 149.747 21.4773C151.768 23.7987 152.725 27.0698 152.725 31.3961V33.823H135.176C135.389 36.0389 136.134 37.8328 137.41 39.099C138.686 40.3652 140.388 40.9984 142.302 40.9984C145.067 40.9984 147.301 39.8377 149.109 37.6217L152.406 40.6818C151.342 42.2646 149.853 43.5308 148.045 44.375C146.237 45.2191 144.216 45.8523 141.983 45.8523ZM141.239 22.9545C139.537 22.9545 138.261 23.4821 137.197 24.6428C136.134 25.8036 135.495 27.3864 135.283 29.4967H146.875V29.0747C146.769 27.0698 146.237 25.5925 145.28 24.5373C144.323 23.4821 142.94 22.9545 141.239 22.9545Z" fill="#152535" class="logo-color"/>
<path d="M163.679 18.6282L163.892 21.6882C165.912 19.2613 168.465 18.1006 171.762 18.1006C177.399 18.1006 180.27 21.2662 180.376 27.7029V45.4301H174.314V28.0194C174.314 26.3311 173.995 25.0649 173.251 24.2207C172.506 23.3766 171.336 22.9545 169.635 22.9545C167.189 22.9545 165.381 24.0097 164.211 26.2256V45.2191H158.148V18.6282H163.679Z" fill="#152535" class="logo-color"/>
<path d="M196.649 27.386L201.754 18.6279H208.454L200.158 31.8179L208.667 45.4299H201.966L196.542 36.2497L191.225 45.4299H184.524L193.033 31.8179L184.843 18.6279H191.544L196.649 27.386Z" fill="#152535" class="logo-color"/>
<path d="M211.007 31.7126C211.007 29.0746 211.539 26.7532 212.602 24.6428C213.666 22.5324 215.155 20.9496 216.963 19.7889C218.771 18.6282 221.004 18.1006 223.45 18.1006C227.066 18.1006 230.044 19.2613 232.278 21.5827C234.511 23.9042 235.787 26.9642 236 30.8684V32.2402C236 34.8782 235.468 37.1996 234.511 39.31C233.554 41.4204 232.065 43.0032 230.151 44.1639C228.236 45.3246 226.003 45.8522 223.557 45.8522C219.728 45.8522 216.75 44.586 214.41 42.0535C212.07 39.521 211.007 36.1444 211.007 32.0292V31.7126ZM217.069 32.2402C217.069 34.9837 217.601 37.1996 218.771 38.6769C219.941 40.1542 221.536 40.9983 223.557 40.9983C225.577 40.9983 227.173 40.1542 228.343 38.5714C229.512 36.9886 230.044 34.6671 230.044 31.6071C230.044 28.8636 229.406 26.7532 228.236 25.1704C227.066 23.5876 225.471 22.7434 223.45 22.7434C221.43 22.7434 219.941 23.4821 218.771 25.0649C217.601 26.6477 217.069 29.1801 217.069 32.2402Z" fill="#152535" class="logo-color"/>
<path d="M64.2382 35.6658C64.2382 36.6155 64.1319 37.7762 64.0255 38.9369C63.9191 39.57 63.8128 40.0976 63.7064 40.8363C63.6001 41.1528 63.6001 41.4694 63.4937 41.786C63.3874 42.1025 63.281 42.4191 63.1747 42.8412C63.0683 43.4743 62.8556 44.0019 62.6429 44.635C62.5365 44.7405 62.4302 44.9515 62.3238 45.0571C61.8984 45.5847 61.3667 46.0067 60.9412 46.5343C60.7285 46.7454 60.4095 47.0619 60.1967 47.273C59.8777 47.484 59.665 47.695 59.3459 47.9061C57.1125 49.8054 54.56 51.3882 51.582 52.5489C48.7105 53.7097 45.5199 54.3428 42.2229 54.3428C41.7975 54.3428 41.372 54.3428 40.9466 54.3428H40.5212H40.4148H40.2022H39.7767C39.2449 54.2373 38.7132 54.2373 38.1814 54.2373C37.9687 54.2373 37.6496 54.2373 37.4369 54.1317L36.9052 54.0262C36.1607 53.8152 35.5226 53.8152 34.7781 53.4986L33.6082 53.1821C33.1828 53.0765 32.8637 52.8655 32.4383 52.76C32.3319 52.76 32.2256 52.6545 32.2256 52.6545C32.4383 52.6545 32.5446 52.6545 32.7574 52.76C33.2891 52.8655 33.8209 52.8655 34.2463 52.8655H34.6717H34.8844H34.9908H35.4162C35.8416 52.8655 36.267 52.8655 36.5861 52.8655C39.7767 52.8655 42.861 52.2324 45.6262 51.1772C48.4978 50.122 50.9439 48.5392 53.071 46.7454C53.3901 46.5343 53.6028 46.3233 53.9218 46.1123C54.1346 45.9012 54.4536 45.5847 54.6663 45.3736C55.0917 44.846 55.6235 44.4239 56.0489 43.8963C56.4743 43.3687 56.8997 42.9467 57.3252 42.4191C57.7506 41.8915 58.0696 41.3639 58.3887 40.9418C58.6014 40.7308 58.7078 40.4142 58.9205 40.2032C59.0268 39.9921 59.2396 39.6756 59.3459 39.4645C59.665 38.9369 59.8777 38.5149 60.1967 38.0928C60.7285 37.1431 61.0476 36.2989 61.473 35.4548C61.7921 34.6106 62.1111 33.872 62.3238 33.2389C62.6429 32.6058 62.7492 31.9726 62.8556 31.445C63.1747 30.4954 63.281 29.9678 63.281 29.9678C63.281 29.9678 63.3874 30.4954 63.6001 31.5506C63.7064 32.0782 63.8128 32.6058 63.9191 33.4499C64.2382 33.7665 64.2382 34.7162 64.2382 35.6658Z" fill="url(#paint0_linear)"/>
<path d="M56.5801 26.5912C56.4737 27.4353 56.3674 28.2795 56.1547 29.0181C55.942 29.7568 55.7292 30.6009 55.5165 31.234C54.453 34.0831 52.964 36.51 51.156 38.3039C49.5607 39.8866 47.9654 41.0474 46.4764 41.997C47.0082 41.575 47.54 41.0474 48.1781 40.4142C49.9861 38.5149 51.5814 36.0879 52.645 33.1334C52.8577 32.3948 53.0704 31.5506 53.2831 30.812C53.4958 29.9678 53.6021 29.1237 53.7085 28.2795C53.7085 27.4353 53.8148 26.5912 53.7085 25.6415C53.7085 25.1139 53.6021 24.5863 53.6021 24.1642C53.4958 23.7422 53.4958 23.109 53.3894 22.7925L53.1767 21.8428L53.0704 21.3152L52.8577 20.6821L52.7513 20.3655C52.4322 19.5214 52.1132 18.5717 51.6878 17.7276L51.0496 16.4613C50.8369 16.0392 50.5179 15.6172 50.3052 15.1951C49.9861 14.773 49.7734 14.3509 49.4543 14.0344L48.4971 12.8737C47.2209 11.3964 45.7319 10.1301 44.1366 9.07495C43.2858 8.54736 42.5413 8.01976 41.6905 7.59768C40.8396 7.1756 39.9888 6.75352 39.0316 6.43697C35.4156 5.17073 31.6932 4.74865 28.0771 5.06521C27.2263 5.06521 26.2691 5.27625 25.4183 5.38177C24.9929 5.48729 24.4611 5.59281 24.0357 5.69833L23.5039 5.80385L23.6103 5.69833H23.7166H23.823H23.9293L24.142 5.59281L24.7802 5.27625L24.9929 5.17073L25.4183 4.95969C25.5246 4.85417 25.8437 4.85417 26.0564 4.74865L27.439 4.43209C27.8644 4.32658 28.3962 4.22106 28.8216 4.11554C29.6725 4.01002 30.5233 3.79898 31.3741 3.79898C34.8838 3.48242 38.6062 3.9045 42.1159 5.17073C42.9667 5.48729 43.8176 5.90937 44.6684 6.22593C45.5192 6.648 46.2637 7.1756 47.1146 7.59768C48.7099 8.65287 50.0925 9.91911 51.3687 11.2909L52.3259 12.3461C52.645 12.6626 52.8577 13.0847 53.1767 13.5068C53.3894 13.9288 53.7085 14.2454 53.9212 14.6675L54.5593 15.9337C54.9848 16.7779 55.3038 17.622 55.6229 18.4662L55.7292 18.7827L55.9419 19.4159L56.0483 19.8379L56.261 20.7876C56.3673 20.9987 56.3674 21.6318 56.4737 22.0539C56.5801 22.5814 56.5801 23.0035 56.5801 23.5311C56.6864 24.9029 56.6864 25.747 56.5801 26.5912Z" fill="url(#paint1_linear)"/>
<path d="M53.7087 28.3845C53.6023 29.2286 53.496 30.0728 53.2833 30.9169C53.0706 31.6556 52.8579 32.4997 52.6452 33.2384C51.5816 36.1929 49.9863 38.6198 48.1783 40.5192C47.6465 41.0468 47.1148 41.5744 46.4766 42.102C46.583 41.8909 46.6893 41.7854 46.7957 41.5744C47.7529 40.0971 48.4974 38.5143 49.1355 36.7205C49.7736 34.9267 50.0927 33.0273 50.0927 31.128C50.0927 30.7059 49.9863 30.1783 49.9863 29.7562C49.8799 29.3341 49.88 28.8065 49.7736 28.3845C49.6673 27.9624 49.5609 27.4348 49.4545 27.1182C49.3482 27.0127 49.3482 26.8017 49.2418 26.6961C49.1355 26.4851 49.2418 26.4851 49.0291 26.063L48.6037 25.0078L48.391 24.5858C48.391 24.6913 48.391 24.6913 48.391 24.7968L48.2846 24.6913L48.1783 24.5858C47.9656 24.1637 47.7529 23.8471 47.4338 23.5306L47.0084 23.003C46.902 22.7919 46.6893 22.6864 46.583 22.4754C46.4766 22.2643 46.3703 22.1588 46.1575 21.9478L45.6258 21.5257C45.3067 21.2091 44.8813 20.9981 44.5622 20.6815C44.2432 20.365 43.8178 20.1539 43.3924 19.9429C42.9669 19.7319 42.5415 19.5208 42.1161 19.3098C41.6907 19.0987 41.2653 18.8877 40.7335 18.7822C38.9255 18.1491 36.9047 17.727 34.7777 17.727H34.6713C34.1395 17.6215 33.6078 17.727 33.076 17.727C32.7569 17.727 32.5442 17.727 32.3315 17.727L31.6934 17.8325C31.587 17.8325 31.4807 17.8325 31.3743 17.8325L30.8425 17.938L29.779 18.1491L29.5663 18.2546H29.46L29.8854 18.0435L29.1409 18.2546C27.3328 18.7822 25.7376 19.4153 24.1422 20.2595C22.1215 21.4202 20.3135 22.7919 18.8245 24.3747C17.5483 25.7465 16.5911 27.2237 15.7403 28.701C14.8894 30.1783 14.464 31.6556 14.1449 32.9218C13.8259 34.0825 13.6132 35.2432 13.6132 35.9819C13.6132 36.1929 13.6132 36.2984 13.6132 36.5095C13.5068 36.0874 13.2941 35.6653 13.1877 35.2432C13.1877 35.2432 13.1877 35.2432 13.1877 35.1377C13.0814 34.9267 12.975 34.6101 12.975 34.2935C12.8687 33.766 12.7623 33.3439 12.656 32.8163L12.5496 32.1832L12.4433 31.55L12.3369 30.3893V30.0728V29.9672V29.8617V29.2286C12.3369 28.701 12.3369 28.2789 12.3369 27.7513C12.3369 27.5403 12.3369 27.2237 12.3369 27.0127V26.4851C12.3369 26.1685 12.3369 25.7465 12.3369 25.4299C12.3369 25.2189 12.3369 25.1134 12.3369 24.9023L12.4433 24.3747C12.5496 23.9526 12.5496 23.6361 12.656 23.214C12.656 22.7919 12.7623 22.4754 12.8687 22.0533C12.975 21.6312 13.0814 21.3147 13.0814 20.8926C13.1878 20.4705 13.2941 20.1539 13.4005 19.8374C13.5068 19.5208 13.6132 19.0987 13.7195 18.7822C14.783 15.9332 16.272 13.4007 17.9737 11.1848C19.6753 8.96887 21.5897 7.17504 23.6105 5.80329C23.6105 5.80329 23.6105 5.80329 23.7168 5.69777L24.1422 5.59225C24.5677 5.48673 25.0994 5.38121 25.5248 5.27569C26.3757 5.17017 27.2265 4.95913 28.1837 4.95913C31.7997 4.64258 35.5221 5.06465 39.1382 6.33089C40.0954 6.64745 40.9462 7.06952 41.797 7.4916C42.6479 7.91368 43.4987 8.44128 44.2432 8.96887C45.8385 10.1296 47.3275 11.2903 48.6037 12.7676L49.5609 13.9283C49.88 14.2448 50.0927 14.6669 50.4117 15.089C50.6244 15.5111 50.9435 15.9332 51.1562 16.2497L51.7943 17.516C52.2198 18.3601 52.5388 19.3098 52.8579 20.1539L52.9642 20.4705L53.1769 21.1036L53.2833 21.6312L53.496 22.5809C53.6024 22.7919 53.6023 23.425 53.7087 23.9526C53.8151 24.4802 53.8151 25.0078 53.8151 25.4299C53.8151 26.6961 53.8151 27.4348 53.7087 28.3845Z" fill="url(#paint2_linear)"/>
<path d="M31.1618 0.211039C31.3745 0.211039 31.4809 0.211039 31.5872 0.211039C31.1618 0.211039 30.8427 0.316559 30.4173 0.316559C29.7792 0.422078 29.1411 0.527598 28.5029 0.738637C27.7585 0.844156 27.1203 1.05519 26.4822 1.26623C23.6106 2.11039 20.5264 3.58766 17.4421 5.80357C14.3578 8.01948 11.4863 11.0795 9.14647 14.8782C7.97657 16.7776 7.0194 18.888 6.16856 21.1039C5.95586 21.6315 5.8495 22.2646 5.63679 22.7922L5.42407 23.6364C5.31772 23.9529 5.3177 24.2695 5.21135 24.586C5.105 25.2192 4.99865 25.8523 4.78594 26.4854L4.57325 27.4351C4.57325 27.7516 4.57324 27.9627 4.46689 28.1737C4.46689 28.7013 4.36053 29.2289 4.36053 29.7565L4.25417 30.4951V30.6007V31.0227V31.7614C4.25417 32.3945 4.25417 33.0276 4.25417 33.6607V34.6104L4.36053 35.5601C4.57324 36.8263 4.57324 38.0925 4.99866 39.3588C5.31772 40.625 5.53043 41.8912 6.0622 43.1575C7.76387 48.2224 10.6354 52.8653 14.3578 56.7695C17.2294 59.6185 20.5264 61.9399 24.1424 63.6283C23.717 63.5227 23.2916 63.3117 22.8662 63.2062C17.9739 61.5179 13.2943 58.7744 9.67824 55.0812C5.95584 51.388 3.19063 46.7451 1.59531 41.8912C1.1699 40.7305 0.85084 39.4643 0.638132 38.1981C0.319069 36.9318 0.212715 35.6656 0.106361 34.5049L0 33.5552V32.6055C0 31.9724 0 31.3393 0 30.8117V29.9675V29.651L0.106361 28.9123C0.212715 28.3847 0.212721 27.9627 0.212721 27.4351C0.212721 27.224 0.212728 27.013 0.319082 26.6964L0.531771 25.7468C0.638125 25.1136 0.744499 24.4805 0.850853 23.8474C0.957207 23.5308 0.957188 23.2143 1.06354 22.8977L1.27626 22.0536C1.48897 21.526 1.59533 20.9984 1.80803 20.3653C2.55251 18.2549 3.50968 16.25 4.67958 14.3507C6.91302 10.6575 9.78459 7.70292 12.7625 5.59253C15.7404 3.48214 18.7184 2.00487 21.4836 1.16071C22.1217 0.949676 22.8662 0.738636 23.5043 0.633117C24.1424 0.527597 24.7805 0.422078 25.4186 0.316559C26.5885 0.10552 27.7584 0.105519 28.7156 0C29.4601 0.105519 30.311 0.211039 31.1618 0.211039Z" fill="url(#paint3_linear)"/>
<path d="M62.7486 44.6347C62.0042 46.8506 60.7279 49.2775 59.1326 51.7045C57.1119 54.659 54.2403 57.6136 50.6243 59.935C47.0082 62.2564 42.5413 64.0503 37.7554 64.6834C37.1173 64.7889 36.5855 64.7889 35.9474 64.8944L34.9902 64.9999H33.9266C33.3949 64.9999 32.8631 64.9999 32.4377 64.9999C32.1186 64.9999 31.9059 64.9999 31.5869 64.9999L30.5233 64.8944C29.1407 64.7889 27.7581 64.5779 26.4818 64.2613L24.5675 63.8392C24.3548 63.8392 24.1421 63.7337 24.0357 63.6282C20.4197 61.9399 17.1227 59.6185 14.2511 56.7694C10.4224 52.8652 7.55081 48.2223 5.9555 43.1574C5.53008 41.8912 5.21102 40.6249 4.89195 39.3587C4.57289 38.0925 4.46653 36.8262 4.25382 35.56L4.14746 34.6103V33.6607C4.14746 33.0275 4.14746 32.3944 4.14746 31.7613V30.9172V30.4951V30.3896L4.25382 29.6509C4.36018 29.1233 4.36018 28.5957 4.36018 28.0681C4.36018 27.8571 4.36019 27.5405 4.46654 27.3295L4.67923 26.3798C4.78559 25.7467 4.89197 25.1136 5.10467 24.4805C5.21103 24.1639 5.21101 23.8474 5.31736 23.5308L5.53009 22.6866C5.74279 22.159 5.84915 21.5259 6.06186 20.9983C6.80634 18.7824 7.86987 16.672 9.03976 14.7727C11.3796 10.974 14.2511 8.01943 17.3354 5.698C20.4197 3.48209 23.504 2.00482 26.3755 1.16066C27.12 0.949625 27.7581 0.738586 28.3962 0.633066C29.0344 0.527547 29.6725 0.422027 30.3106 0.210988C30.736 0.210988 31.0551 0.105469 31.4805 0.105469C32.0123 0.210988 32.544 0.316508 32.9695 0.316508C34.033 0.527547 34.5648 0.633066 34.5648 0.633066C34.5648 0.633066 34.033 0.844105 33.0758 1.16066C32.5441 1.3717 32.0123 1.47722 31.2678 1.79378C30.6297 2.00482 29.8852 2.32138 29.0344 2.74346C28.1835 3.16553 27.3327 3.58761 26.3755 4.11521C25.5247 4.64281 24.5675 5.1704 23.7167 5.80352L23.6103 5.90904C23.6103 5.90904 23.6103 5.90904 23.5039 6.01456C21.5896 7.38631 19.6752 9.18014 17.8672 11.3961C16.1655 13.612 14.6766 16.1444 13.613 18.9935C13.5067 19.31 13.4003 19.7321 13.2939 20.0486C13.1876 20.3652 13.0812 20.7873 12.9749 21.1038C12.8685 21.4204 12.7622 21.8425 12.7622 22.2646C12.6558 22.5811 12.5495 23.0032 12.5495 23.4253C12.4431 23.8474 12.4431 24.1639 12.3367 24.586L12.2304 25.1136C12.2304 25.3246 12.2304 25.4301 12.2304 25.6412C12.2304 25.9577 12.2304 26.3798 12.2304 26.6964V27.224C12.2304 27.435 12.2304 27.6461 12.2304 27.9626C12.2304 28.4902 12.2304 28.9123 12.2304 29.4399V30.073V30.1785C12.2304 30.073 12.2304 30.073 12.2304 30.073V30.1785V30.284V30.6006L12.3367 31.7613L12.4431 32.3944L12.5495 33.0275C12.6558 33.5551 12.7622 33.9772 12.8685 34.5048C12.9749 34.8214 12.9749 35.0324 13.0812 35.349C13.0812 35.349 13.0812 35.349 13.0812 35.4545C13.1876 35.8766 13.2939 36.2986 13.5067 36.7207C13.613 37.0373 13.7194 37.3538 13.9321 37.6704C15.102 40.6249 16.91 43.474 19.2498 45.7954C21.5896 48.1168 24.3548 49.9107 27.3327 51.0714C27.7581 51.1769 28.0772 51.3879 28.3962 51.4935L29.5661 51.81C30.417 52.1266 30.9488 52.1266 31.6932 52.3376L32.225 52.4431C32.3314 52.4431 32.3313 52.4431 32.4377 52.4431C32.544 52.4431 32.6504 52.5486 32.6504 52.5486C33.0758 52.6542 33.3949 52.8652 33.8203 52.9707L34.9902 53.2873C35.841 53.6038 36.4791 53.6038 37.1173 53.8149L37.649 53.9204C37.8618 53.9204 38.1808 54.0259 38.3935 54.0259C38.9253 54.0259 39.4571 54.1314 39.9888 54.1314H40.4143H40.627H40.7333H41.1588C41.5842 54.1314 42.0096 54.1314 42.435 54.1314C45.732 54.1314 48.8163 53.4983 51.7942 52.3376C54.6657 51.1769 57.3246 49.5941 59.558 47.6947C59.8771 47.4837 60.0898 47.2727 60.4089 47.0616C60.6216 46.8506 60.9406 46.534 61.1533 46.323C61.5788 45.7954 62.2169 45.3733 62.536 44.8457C62.536 44.9512 62.6423 44.7402 62.7486 44.6347Z" fill="url(#paint4_linear)"/>
<defs>
<linearGradient id="paint0_linear" x1="45.0761" y1="38.196" x2="57.7499" y2="50.8315" gradientUnits="userSpaceOnUse">
<stop stop-color="#FF175C"/>
<stop offset="1" stop-color="#FFD100"/>
</linearGradient>
<linearGradient id="paint1_linear" x1="56.8421" y1="25.4035" x2="21.3983" y2="19.6231" gradientUnits="userSpaceOnUse">
<stop stop-color="#FF175C"/>
<stop offset="1" stop-color="#FFD100"/>
</linearGradient>
<linearGradient id="paint2_linear" x1="54.2053" y1="25.846" x2="13.2322" y2="19.164" gradientUnits="userSpaceOnUse">
<stop stop-color="#FF175C"/>
<stop offset="1" stop-color="#F15A29"/>
</linearGradient>
<linearGradient id="paint3_linear" x1="2.88209" y1="10.3142" x2="41.8402" y2="49.1546" gradientUnits="userSpaceOnUse">
<stop stop-color="#FF175C"/>
<stop offset="1" stop-color="#FFD100"/>
</linearGradient>
<linearGradient id="paint4_linear" x1="63.8633" y1="37.8791" x2="4.44902" y2="28.1896" gradientUnits="userSpaceOnUse">
<stop stop-color="#FF175C"/>
<stop offset="1" stop-color="#FFD100"/>
</linearGradient>
</defs>
</svg>
